<svg class="img-fluid" id="outputsvg" xmlns="http://www.w3.org/2000/svg" style="transform: none; transform-origin: 50% 50% 0px; cursor: move;" width="1812" height="1166" viewBox="0 0 18120 11660"><g id="l3NiUbVvTuGVUH6tt7klxXl" fill="rgb(0,128,0)" style="transform: none;"><g style="transform: none;"><path id="pjzxBvdkq" d="M9110 7431 c0 -11 -57 -41 -78 -41 -39 0 -134 -96 -153 -154 -7 -23 -19 -50 -26 -61 -15 -22 -17 -477 -12 -2170 l1 -539 24 -38 c13 -21 24 -42 24 -47 0 -19 99 -111 120 -111 11 0 20 -4 20 -8 0 -11 60 -28 126 -37 53 -7 152 13 207 41 41 22 108 84 118 111 5 13 16 23 26 23 17 0 18 63 17 1344 -1 738 -5 1370 -9 1402 -10 87 -75 203 -112 204 -7 0 -13 4 -13 8 0 17 -83 51 -140 58 -33 4 -60 11 -60 15 0 5 -18 9 -40 9 -22 0 -40 -4 -40 -9z"></path></g></g><g id="l653da2WcIiSNtPECSVSrQz" fill="rgb(255,0,0)" style="transform: none;"><g style="transform: none;"><path id="plbsnw4x8" d="M3180 5825 l0 -2545 2540 0 2540 0 2 2538 c2 1395 2 2540 0 2545 -2 4 -1146 7 -2543 7 l-2539 0 0 -2545z m2569 23 c0 -123 -3 -216 -6 -208 -3 8 -17 27 -31 43 -25 27 -25 27 -4 27 22 0 22 2 22 180 0 113 4 180 10 180 6 0 10 -80 9 -222z"></path><path id="pyHaLjXtR" d="M10110 5825 l0 -2545 2534 0 c2301 0 2534 1 2540 16 3 9 6 1154 6 2544 l0 2529 -2540 1 -2540 0 0 -2545z m2563 248 c-115 -3 -123 -5 -123 -23 0 -11 -4 -20 -10 -20 -5 0 -10 9 -10 19 0 11 -6 22 -12 24 -7 3 52 5 132 4 l145 -1 -122 -3z m114 -345 c-2 -13 -4 -5 -4 17 -1 22 1 32 4 23 2 -10 2 -28 0 -40z m-136 -96 c-30 -2 -58 0 -62 5 -4 4 20 6 54 3 l62 -5 -54 -3z"></path></g></g><g id="l178dqQKRJSYAeCgNoHV4Wp" fill="rgb(128,0,128)" style="transform: none;"><g style="transform: none;"><path id="p13ATXnJOk" d="M5688 9003 l-3148 -3 0 -3178 0 -3177 3180 0 3180 0 0 403 c0 395 0 404 20 409 15 4 20 14 20 40 0 26 -5 36 -20 40 -25 7 -28 64 -5 87 8 8 15 28 15 45 0 21 -5 31 -15 31 -11 0 -15 12 -15 45 0 33 4 45 15 45 10 0 15 11 15 35 0 24 -5 35 -15 35 -11 0 -15 11 -15 36 0 27 5 37 20 41 15 4 20 14 20 40 0 26 -5 36 -20 40 -25 7 -28 64 -5 87 8 8 15 28 15 45 0 21 -5 31 -15 31 -10 0 -15 10 -15 34 0 19 7 41 15 50 8 8 15 28 15 45 0 21 -5 31 -15 31 -12 0 -15 13 -15 58 0 32 -6 66 -13 77 -11 16 -13 114 -12 490 2 579 2 555 19 555 9 0 12 7 9 20 -6 23 -19 26 -27 8 -3 -7 -3 -3 0 10 3 12 2 22 -3 22 -11 0 -10 473 1 482 6 4 4 13 -3 22 -9 11 -10 16 -2 16 6 0 11 -4 11 -10 0 -5 7 -10 15 -10 8 0 15 9 15 20 0 11 -7 20 -15 20 -19 0 -17 -47 -21 520 -2 426 -1 488 13 509 10 16 15 45 14 82 -1 39 4 62 14 73 20 20 20 76 0 76 -11 0 -15 11 -15 36 0 27 5 37 20 41 27 7 29 73 2 80 -16 4 -18 21 -18 204 -1 188 0 199 17 199 29 0 27 70 -1 77 -19 5 -20 12 -18 72 1 36 2 258 0 494 l-2 427 -32 -2 c-18 -2 -1449 -4 -3180 -5z m2540 -675 c1 -5 2 -1135 2 -2513 l0 -2505 -2510 0 -2510 0 0 2514 0 2515 2508 -2 c1379 -1 2508 -5 2510 -9z"></path><path id="p10cYlmwIX" d="M9475 8063 c3 -516 6 -1155 7 -1421 2 -265 6 -482 11 -482 4 0 1 -10 -7 -22 -15 -24 -11 -78 5 -78 5 0 9 -106 9 -236 0 -196 -3 -238 -15 -250 -19 -20 -19 -48 1 -68 8 -9 12 -20 9 -26 -4 -6 -6 -236 -7 -513 0 -276 -4 -504 -8 -507 -4 -3 -9 -12 -10 -20 -1 -8 -2 -415 -1 -905 l1 -890 3180 0 3180 0 0 3178 0 3177 -3180 0 -3181 0 6 -937z m5685 -2223 c0 -1374 -3 -2505 -6 -2514 -6 -15 -236 -16 -2510 -16 l-2504 0 0 2515 0 2516 2510 -2 2510 -1 0 -2498z m-5660 -300 c0 -11 -4 -20 -10 -20 -5 0 -10 9 -10 20 0 11 5 20 10 20 6 0 10 -9 10 -20z"></path><path id="pDIc9SR3i" d="M9348 7340 c12 -11 26 -20 31 -20 6 0 15 -8 20 -17 8 -15 10 -11 11 20 0 37 0 37 -42 37 l-42 0 22 -20z"></path><path id="pneDa3rdr" d="M8990 3935 c0 -33 2 -35 35 -35 33 0 35 2 35 35 0 33 -2 35 -35 35 -33 0 -35 -2 -35 -35z"></path></g></g><g id="l2dSWf21QATD4XpxCmUL8Ya" fill="rgb(109,106,105)" style="transform: none;"><g style="transform: none;"><path id="pKOedb2yw" d="M0 5830 l0 -5830 9060 0 9060 0 0 5830 0 5830 -9060 0 -9060 0 0 -5830z m16853 4970 c116 -29 200 -75 288 -158 65 -61 84 -87 122 -165 25 -51 50 -119 56 -152 9 -45 11 -1194 9 -4530 l-3 -4470 -27 -73 c-74 -204 -208 -335 -407 -401 l-64 -21 -7640 0 c-7029 0 -7643 1 -7695 16 -77 22 -156 63 -219 113 -103 82 -198 239 -222 366 -8 44 -11 1226 -11 4505 0 4888 -5 4499 60 4636 39 80 125 190 181 231 63 44 156 90 220 107 47 13 1030 15 7665 15 7529 1 7612 1 7687 -19z"></path><path id="p1Gdzaak2" d="M2218 5823 c1 -2099 3 -3817 5 -3817 1 -1 3135 0 6965 2 l6962 2 0 3815 0 3815 -6967 0 -6968 0 3 -3817z m6653 2254 c0 -740 3 -897 14 -897 7 0 20 17 28 38 23 55 114 142 149 142 8 0 30 7 48 16 71 36 219 -2 292 -76 30 -30 78 -119 78 -145 0 -9 5 -13 10 -10 7 4 10 320 10 916 l0 909 3150 0 3150 0 0 -3147 0 -3148 -3150 0 -3150 0 -1 878 c-1 482 -2 882 -3 889 -2 24 -22 17 -35 -14 -40 -94 -173 -173 -285 -169 -46 1 -116 21 -116 33 0 4 -9 8 -19 8 -27 0 -94 66 -126 125 -15 28 -31 54 -36 59 -5 5 -8 -216 -8 -495 0 -277 -1 -686 -1 -909 l0 -405 -3150 0 -3150 0 0 3147 0 3148 3148 2 c1731 2 3148 3 3149 2 2 0 3 -404 4 -897z"></path><path id="pH75m4Qec" d="M9493 7050 c0 -36 2 -50 4 -32 2 17 2 47 0 65 -2 17 -4 3 -4 -33z"></path><path id="pYTe2XcTi" d="M9493 6890 c0 -36 2 -50 4 -32 2 17 2 47 0 65 -2 17 -4 3 -4 -33z"></path><path id="pclwDDVO1" d="M9493 6730 c0 -36 2 -50 4 -32 2 17 2 47 0 65 -2 17 -4 3 -4 -33z"></path><path id="pKf6n8m5N" d="M9493 6570 c0 -36 2 -50 4 -32 2 17 2 47 0 65 -2 17 -4 3 -4 -33z"></path><path id="p139fwVWIO" d="M9493 6410 c0 -36 2 -50 4 -32 2 17 2 47 0 65 -2 17 -4 3 -4 -33z"></path><path id="ps9QjUfLM" d="M9493 6250 c0 -36 2 -50 4 -32 2 17 2 47 0 65 -2 17 -4 3 -4 -33z"></path><path id="pltEtAu4s" d="M8850 5500 c-8 -5 -11 -12 -7 -16 4 -4 15 0 24 9 18 18 8 23 -17 7z"></path><path id="p14bdO4S10" d="M9486 5504 c6 -3 10 -27 9 -57 -2 -39 -1 -41 2 -9 4 41 16 55 26 30 4 -9 6 -10 6 -1 1 6 -6 19 -15 27 -8 9 -21 16 -27 15 -8 0 -8 -2 -1 -5z"></path><path id="pvHp2ptDP" d="M9493 5290 c0 -36 2 -50 4 -32 2 17 2 47 0 65 -2 17 -4 3 -4 -33z"></path><path id="p13zUppxbM" d="M9493 5130 c0 -36 2 -50 4 -32 2 17 2 47 0 65 -2 17 -4 3 -4 -33z"></path><path id="pasazH0pw" d="M9493 4965 c0 -38 2 -53 4 -32 2 20 2 52 0 70 -2 17 -4 1 -4 -38z"></path><path id="pCel73sfy" d="M8873 4835 c0 -38 2 -53 4 -32 2 20 2 52 0 70 -2 17 -4 1 -4 -38z"></path><path id="piiIRiwF1" d="M9493 4805 c0 -38 2 -53 4 -32 2 20 2 52 0 70 -2 17 -4 1 -4 -38z"></path><path id="p1HuEnwSuC" d="M9493 4650 c0 -36 2 -50 4 -32 2 17 2 47 0 65 -2 17 -4 3 -4 -33z"></path><path id="p90yq3dN1" d="M9488 4515 c-2 -19 0 -35 4 -35 4 0 8 16 8 35 0 19 -2 35 -4 35 -2 0 -6 -16 -8 -35z"></path></g></g><g id="l4r82sG4ft7VCAuyEhOw5L1" fill="rgb(255,255,0)" style="transform: none;"><g style="transform: none;"><path id="pfyobs311" d="M9110 10850 l-7625 -5 -60 -24 c-62 -25 -134 -65 -186 -103 -46 -33 -134 -150 -169 -222 -65 -138 -60 256 -60 -4668 0 -3314 3 -4488 11 -4533 24 -127 119 -284 222 -366 63 -50 142 -91 219 -113 52 -15 663 -16 7726 -16 l7669 0 64 21 c199 66 333 197 407 401 l27 73 3 4500 c2 3359 0 4515 -9 4560 -6 33 -31 101 -56 152 -78 162 -227 278 -411 323 -42 10 -93 20 -112 22 -19 1 -3466 1 -7660 -2z m7010 -5025 l0 -3785 -6919 0 c-3806 0 -6926 -3 -6935 -6 -15 -6 -16 335 -18 3785 l-3 3791 6938 0 6937 0 0 -3785z"></path></g></g><g id="l7POp6nbf5y25WIBv5GHmD7" fill="rgb(255,0,255)" style="transform: none;"><g style="transform: none;"><path id="pOQW8ylWI" d="M8870 8350 c0 -5 11 -10 25 -10 31 0 31 -5 0 -36 -14 -14 -25 -30 -25 -35 0 -6 18 8 39 30 38 40 41 41 105 41 36 0 66 -2 66 -5 0 -3 -47 -52 -105 -110 -58 -57 -105 -109 -105 -115 0 -7 54 43 120 109 l119 121 66 0 c36 0 65 -2 65 -5 0 -3 -83 -87 -185 -188 -102 -101 -185 -190 -185 -197 0 -7 90 78 200 189 l200 201 65 0 c36 0 65 -2 65 -5 0 -3 -119 -123 -265 -268 -146 -144 -265 -269 -265 -276 0 -8 126 113 280 268 260 261 283 281 315 281 19 0 35 5 35 10 0 6 -112 10 -315 10 -203 0 -315 -4 -315 -10z"></path><path id="p1H1rmvifT" d="M9177 7951 c-169 -169 -307 -314 -307 -321 0 -7 142 129 315 302 173 174 315 318 315 322 0 3 -3 6 -7 6 -5 0 -146 -139 -316 -309z"></path><path id="p12eEwpKNq" d="M9178 7791 c-170 -169 -308 -313 -308 -320 0 -7 142 129 315 302 173 173 315 317 315 321 0 3 -3 6 -7 6 -5 -1 -146 -139 -315 -309z"></path><path id="p6ItvxI3m" d="M9177 7631 c-169 -169 -307 -314 -307 -321 0 -14 629 609 630 623 0 4 -3 7 -7 7 -5 0 -146 -139 -316 -309z"></path><path id="phKfI4DFx" d="M9287 7582 c-108 -109 -197 -201 -197 -205 0 -9 42 12 51 25 3 6 86 90 183 188 97 98 176 180 176 184 0 17 -31 -11 -213 -192z"></path><path id="ppYEVEDTx" d="M9376 7510 c-60 -61 -113 -110 -118 -110 -4 0 -8 -4 -8 -10 0 -27 36 0 138 104 62 63 112 117 112 120 0 16 -24 -4 -124 -104z"></path><path id="p7Q56lMp4" d="M9420 7394 c-39 -38 -59 -64 -49 -64 14 0 129 111 129 125 0 14 -21 -2 -80 -61z"></path><path id="pzg7BvKsZ" d="M9461 7280 c-15 -14 -21 -26 -16 -37 5 -16 9 -14 23 10 9 15 20 27 24 27 5 0 8 5 8 10 0 15 -12 12 -39 -10z"></path><path id="pQ95AoEIg" d="M8877 4464 c-4 -4 -7 -16 -7 -26 0 -18 1 -18 16 -3 11 10 13 20 7 26 -5 5 -12 6 -16 3z"></path><path id="p8G5c1eEu" d="M9413 4351 c-344 -345 -543 -551 -543 -561 0 -7 142 129 315 301 173 173 315 317 315 322 0 19 -24 2 -87 -62z"></path><path id="p8h4DQ7co" d="M8940 4364 c0 -5 -16 -26 -35 -48 -41 -45 -48 -72 -7 -29 15 16 37 36 50 45 20 13 21 17 7 28 -8 7 -15 9 -15 4z"></path><path id="pKx2Yq9ub" d="M8957 4210 c-48 -49 -87 -94 -87 -100 0 -5 43 31 95 82 52 50 95 95 95 100 0 20 -23 2 -103 -82z"></path><path id="p5U1xgp77" d="M9018 4111 c-82 -82 -148 -155 -148 -161 0 -6 68 56 152 139 84 83 156 151 161 151 4 0 5 5 2 10 -3 6 -9 10 -13 10 -4 0 -73 -67 -154 -149z"></path><path id="pHJzkQFAP" d="M9177 3951 c-169 -169 -307 -314 -307 -321 0 -7 142 129 315 302 173 173 315 317 315 321 0 4 -3 7 -8 7 -4 0 -146 -139 -315 -309z"></path><path id="pvFSdNesk" d="M9178 3791 c-170 -170 -308 -314 -308 -321 0 -7 142 129 315 302 173 173 315 318 315 322 0 3 -3 6 -7 6 -5 0 -146 -139 -315 -309z"></path><path id="p1nXHvC5L" d="M9178 3630 c-170 -170 -308 -314 -308 -320 0 -7 106 -10 315 -10 203 0 315 4 315 10 0 6 -27 10 -60 10 -33 0 -60 2 -60 6 0 3 28 32 61 65 34 33 59 63 56 66 -3 3 -37 -27 -76 -66 l-70 -71 -66 0 c-36 0 -65 2 -65 5 0 3 64 69 141 146 78 77 139 142 136 146 -3 3 -74 -63 -156 -146 l-151 -151 -65 0 c-36 0 -65 2 -65 5 0 3 100 104 222 225 122 121 218 223 215 227 -4 3 -110 -98 -237 -225 l-230 -232 -65 0 c-36 0 -65 2 -65 5 0 2 135 139 300 303 165 164 300 301 300 305 0 4 -3 7 -7 7 -5 0 -146 -140 -315 -310z"></path></g></g><g id="l5LBLsDxRUHD0IMlzuideVE" fill="rgb(255,181,181)" style="transform: none;"><g style="transform: none;"><path id="ptQNpbrUO" d="M5707 6104 c-4 -4 -7 -88 -7 -187 0 -170 -1 -179 -17 -166 -31 26 -71 42 -87 36 -27 -11 -19 -53 14 -79 73 -55 100 -81 100 -94 0 -9 12 -14 35 -14 l35 0 -2 253 -3 252 -30 3 c-17 2 -34 0 -38 -4z"></path><path id="p1CKORcroV" d="M12477 6103 c-13 -12 -7 -54 8 -59 8 -4 15 -14 15 -23 0 -9 21 -31 46 -50 77 -59 190 -175 198 -204 3 -15 2 -36 -4 -46 -19 -37 -109 -66 -125 -41 -4 6 -10 8 -15 5 -4 -3 -22 11 -39 31 -24 27 -38 35 -59 32 -21 -2 -28 -9 -30 -29 -2 -14 4 -31 12 -39 9 -7 16 -18 16 -25 0 -7 16 -22 36 -34 28 -17 51 -21 112 -20 84 1 129 18 147 57 5 12 13 22 17 22 5 0 8 30 8 66 l0 67 -87 88 c-48 49 -92 89 -98 89 -6 0 -22 11 -35 25 l-23 25 121 0 122 0 0 35 0 35 -168 0 c-93 0 -172 -3 -175 -7z"></path><path id="pKU8o9Chz" d="M8852 5503 c-26 -33 -29 -52 -4 -27 46 45 53 54 39 54 -7 0 -23 -12 -35 -27z"></path></g></g><g id="lDcaHDN5cBdQLGdGGAmRY1" fill="rgb(255,255,255)" style="transform: none;"><g style="transform: none;"><path id="p9a6n5jVO" d="M9140 6230 c0 -5 -22 -10 -50 -10 -27 0 -50 -4 -50 -10 0 -5 -9 -10 -20 -10 -11 0 -20 -4 -20 -10 0 -5 -7 -10 -16 -10 -9 0 -29 -13 -44 -30 -15 -16 -33 -30 -40 -30 -6 0 -34 23 -61 51 -28 28 -52 49 -55 46 -3 -3 17 -29 45 -57 56 -58 60 -69 31 -90 -11 -8 -20 -22 -20 -32 0 -10 -4 -18 -10 -18 -5 0 -10 -9 -10 -20 0 -11 -4 -20 -10 -20 -5 0 -10 -9 -10 -20 0 -11 -4 -20 -10 -20 -6 0 -10 -43 -10 -110 0 -67 4 -110 10 -110 6 0 10 -13 10 -30 0 -16 5 -30 10 -30 6 0 10 -9 10 -20 0 -11 5 -20 10 -20 6 0 10 -7 10 -16 0 -9 9 -25 21 -35 18 -15 19 -21 8 -41 -7 -12 -30 -40 -52 -61 -22 -21 -37 -40 -34 -44 3 -3 28 18 56 46 55 56 69 61 91 31 8 -11 22 -20 32 -20 10 0 18 -4 18 -10 0 -5 9 -10 20 -10 11 0 20 -4 20 -10 0 -5 9 -10 20 -10 11 0 20 -4 20 -10 0 -6 47 -10 120 -10 73 0 120 4 120 10 0 6 13 10 28 10 16 0 34 8 42 20 8 11 21 20 30 20 9 0 22 9 30 20 22 30 36 25 91 -31 28 -28 53 -49 56 -46 3 3 -18 28 -46 56 -28 27 -51 55 -51 61 0 7 14 25 30 40 17 15 30 35 30 44 0 9 5 16 10 16 6 0 10 9 10 20 0 11 5 20 10 20 6 0 10 23 10 50 0 28 5 50 10 50 6 0 10 23 10 50 0 28 -4 50 -10 50 -5 0 -10 18 -10 40 0 22 -4 40 -10 40 -5 0 -10 9 -10 20 0 11 -4 20 -10 20 -5 0 -10 8 -10 18 0 10 -9 24 -20 32 -11 8 -20 22 -20 31 0 10 -6 19 -12 21 -8 3 9 26 41 57 29 29 51 54 48 58 -3 3 -29 -19 -58 -47 -29 -29 -55 -48 -57 -42 -2 7 -11 12 -21 12 -9 0 -23 9 -31 20 -8 11 -22 20 -32 20 -10 0 -18 5 -18 10 0 6 -9 10 -20 10 -11 0 -20 5 -20 10 0 6 -18 10 -40 10 -22 0 -40 5 -40 10 0 6 -22 10 -50 10 -27 0 -50 -4 -50 -10z m100 -20 c0 -5 18 -10 40 -10 22 0 40 -4 40 -10 0 -5 9 -10 20 -10 11 0 20 -4 20 -10 0 -5 8 -10 18 -10 10 0 24 -9 32 -20 8 -11 20 -20 28 -20 17 0 42 -25 42 -42 0 -8 9 -20 20 -28 11 -8 20 -22 20 -32 0 -10 5 -18 10 -18 6 0 10 -9 10 -20 0 -11 5 -20 10 -20 6 0 10 -18 10 -40 0 -22 5 -40 10 -40 6 0 10 -22 10 -50 0 -27 -4 -50 -10 -50 -5 0 -10 -22 -10 -50 0 -27 -4 -50 -10 -50 -5 0 -10 -9 -10 -20 0 -11 -4 -20 -10 -20 -5 0 -10 -7 -10 -15 0 -18 -44 -65 -60 -65 -13 0 -260 247 -260 260 0 6 59 69 131 141 72 72 129 133 126 136 -3 3 -64 -54 -136 -126 -72 -72 -135 -131 -141 -131 -13 0 -260 247 -260 260 0 16 47 60 65 60 8 0 15 5 15 10 0 6 9 10 20 10 11 0 20 5 20 10 0 6 23 10 50 10 28 0 50 5 50 10 0 6 23 10 50 10 28 0 50 -4 50 -10z m-205 -255 c69 -69 125 -129 125 -135 0 -14 -247 -260 -261 -260 -16 0 -39 26 -39 44 0 9 -4 16 -10 16 -5 0 -10 9 -10 20 0 11 -4 20 -10 20 -5 0 -10 14 -10 30 0 17 -4 30 -10 30 -6 0 -10 43 -10 110 0 67 4 110 10 110 6 0 10 9 10 20 0 11 5 20 10 20 6 0 10 9 10 20 0 11 5 20 10 20 6 0 10 7 10 15 0 20 21 44 38 45 7 0 68 -56 137 -125z m280 -280 c69 -69 125 -130 125 -136 0 -15 -26 -39 -42 -39 -8 0 -20 -9 -28 -20 -8 -12 -26 -20 -42 -20 -15 0 -28 -4 -28 -10 0 -6 -47 -10 -120 -10 -73 0 -120 4 -120 10 0 6 -9 10 -20 10 -11 0 -20 5 -20 10 0 6 -9 10 -20 10 -11 0 -20 5 -20 10 0 6 -7 10 -16 10 -18 0 -44 23 -44 39 0 15 242 259 258 260 7 1 68 -55 137 -124z"></path></g></g></svg>