<svg class="img-fluid" id="outputsvg" xmlns="http://www.w3.org/2000/svg" style="transform: matrix(1, 0, 0, 1, 0, 0); transform-origin: 50% 50% 0px; cursor: move; transition: transform 200ms ease-in-out;" width="2022" height="1346" viewBox="0 0 20220 13460"><g id="l3tduE3WlMD13TndLwOfiaA" fill="rgb(0,0,0)" style="transform: none;"><g><path id="pDvwvl4oA" d="M3070 6880 c0 -22 5 -40 10 -40 13 0 13 -57 0 -65 -5 -3 -10 -21 -10 -40 l0 -33 110 -1 c93 0 111 2 120 17 9 16 11 16 24 0 8 -11 27 -18 46 -18 l33 0 -5 50 c-3 32 -13 59 -26 73 -11 12 -22 38 -24 57 -3 33 -6 35 -40 38 -38 3 -38 3 -38 -36 0 -25 -7 -45 -18 -55 -18 -16 -18 -15 -14 38 l4 55 -35 0 c-19 0 -37 -6 -40 -12 -4 -10 -7 -10 -18 0 -7 6 -28 12 -46 12 -32 0 -33 -1 -33 -40z"></path><path id="pozg8nI9A" d="M3430 6880 l0 -40 40 0 40 0 0 40 0 40 -40 0 -40 0 0 -40z"></path><path id="pecC0dd4H" d="M3563 6905 c-19 -21 -17 -172 1 -191 17 -17 121 -19 131 -3 4 6 9 37 12 70 7 76 23 77 23 1 0 -32 5 -63 12 -70 7 -7 38 -12 70 -12 47 0 59 4 68 20 10 19 21 20 161 20 l149 0 10 26 c6 14 10 51 10 83 l0 59 -62 5 c-35 3 -178 6 -318 6 -206 0 -257 -3 -267 -14z"></path><path id="p14Q8mDC6M" d="M10610 6896 c0 -19 -5 -26 -20 -26 -13 0 -20 7 -20 20 0 17 -7 20 -40 20 l-40 0 0 -85 0 -85 70 0 c40 0 70 4 70 10 0 6 11 10 25 10 19 0 25 6 30 33 4 18 5 53 3 77 -3 44 -4 45 -40 48 -35 3 -38 1 -38 -22z"></path><path id="pqBNZt0wx" d="M9710 6883 c0 -41 42 -123 63 -123 9 0 17 -7 17 -15 0 -11 11 -15 40 -15 37 0 40 2 40 29 0 15 3 56 6 90 l7 61 -37 0 c-21 0 -36 -5 -36 -12 0 -9 -3 -9 -12 0 -7 7 -29 12 -50 12 -35 0 -38 -2 -38 -27z"></path><path id="pg09ycPpH" d="M10257 6903 c-4 -3 -7 -26 -7 -50 0 -36 -3 -43 -20 -43 -32 0 -28 -69 6 -99 34 -30 88 -26 92 7 3 18 10 22 42 22 21 0 42 5 46 11 3 6 3 44 -1 85 l-7 74 -72 0 c-40 0 -76 -3 -79 -7z"></path><path id="p1HHny0Do" d="M10070 6850 c0 -33 -3 -40 -20 -40 -16 0 -20 -7 -20 -36 0 -47 29 -74 82 -74 l38 0 0 95 0 95 -40 0 -40 0 0 -40z"></path><path id="pyNXmYNpL" d="M3430 6775 l0 -46 38 3 c36 3 37 4 37 43 0 39 -1 40 -37 43 l-38 3 0 -46z"></path><path id="paS2W8FJ2" d="M5830 4121 c0 -22 5 -43 10 -46 6 -3 10 -17 10 -30 0 -13 -4 -27 -10 -30 -5 -3 -10 -24 -10 -46 0 -38 1 -39 33 -39 18 0 39 6 46 12 11 10 14 11 18 1 7 -20 103 -17 126 4 18 17 19 17 32 0 8 -11 26 -17 49 -17 33 0 36 2 36 30 0 34 -17 77 -41 105 -10 11 -19 36 -21 55 -3 33 -6 35 -40 38 -38 3 -38 3 -38 -36 0 -27 -6 -45 -22 -58 -21 -19 -21 -19 -13 1 4 11 10 37 13 58 l4 37 -40 0 c-23 0 -42 -5 -45 -12 -4 -10 -7 -10 -18 0 -7 6 -28 12 -46 12 -32 0 -33 -1 -33 -39z"></path><path id="pa8S8XTaV" d="M6197 4153 c-4 -3 -7 -24 -7 -45 0 -37 1 -38 34 -38 37 0 46 12 46 61 0 26 -3 29 -33 29 -19 0 -37 -3 -40 -7z"></path><path id="pCLnB8bXY" d="M6326 4141 c-20 -22 -23 -170 -4 -189 16 -16 120 -16 136 0 7 7 12 36 12 65 0 29 5 53 10 53 6 0 10 -24 10 -53 0 -29 5 -58 12 -65 17 -17 118 -15 138 3 12 11 51 15 157 18 96 3 147 8 158 17 11 9 15 32 15 91 l0 79 -314 0 c-287 -1 -315 -3 -330 -19z"></path><path id="pGLWeWbl1" d="M6190 4015 l0 -46 38 3 c36 3 37 4 37 43 0 39 -1 40 -37 43 l-38 3 0 -46z"></path></g></g><g id="l73suW3fCtQpt9xd9Ij2fEg" fill="rgb(0,127,0)" style="transform: none;"><g><path id="p14pq4OtCx" d="M10240 8546 c0 -17 -59 -30 -121 -27 -35 2 -48 -1 -52 -13 -4 -9 -13 -16 -22 -16 -8 0 -15 -4 -15 -9 0 -5 -15 -16 -34 -25 -33 -15 -96 -78 -96 -95 0 -5 -13 -24 -30 -42 l-30 -34 -1 -175 c0 -96 -3 -410 -5 -697 l-4 -523 374 0 373 0 1 574 c1 588 -7 827 -27 834 -6 2 -11 12 -11 22 0 9 -16 35 -36 56 -20 22 -48 53 -62 69 -16 18 -48 36 -77 45 -42 13 -50 20 -53 43 -3 23 -8 27 -38 27 -22 0 -34 -5 -34 -14z"></path><path id="p1GWoPekji" d="M9794 6825 c4 -22 3 -35 -4 -35 -5 0 -10 7 -10 15 0 8 -4 15 -10 15 -5 0 -10 -16 -10 -35 0 -23 5 -35 14 -35 7 0 16 -9 19 -20 4 -15 14 -20 42 -20 l38 0 -7 53 c-3 28 -6 62 -6 75 0 12 -4 22 -10 22 -5 0 -10 -7 -10 -15 0 -8 -4 -15 -10 -15 -5 0 -10 7 -10 15 0 8 -7 15 -16 15 -13 0 -15 -7 -10 -35z"></path><path id="p6IQqLrf5" d="M3873 6805 c0 -22 2 -30 4 -17 2 12 2 30 0 40 -3 9 -5 -1 -4 -23z"></path><path id="pJT8LQCB0" d="M3900 6822 c0 -10 6 -24 13 -31 10 -11 10 -13 0 -7 -7 4 -13 2 -13 -3 0 -14 13 -14 28 1 20 20 15 58 -8 58 -13 0 -20 -7 -20 -18z"></path><path id="p1FfbVAKDg" d="M9833 5943 c3 -611 5 -708 18 -711 8 -1 20 -16 27 -32 22 -49 94 -116 157 -146 69 -33 187 -44 274 -25 73 16 181 94 196 142 4 11 10 19 15 19 4 0 19 21 32 47 l23 48 2 683 2 682 -374 0 -374 0 2 -707z"></path></g></g><g id="l5aEqNoS1pYGJzD7peEZvhu" fill="rgb(127,0,127)" style="transform: none;"><g><path id="p4h7vmVJg" d="M2924 6763 l0 -3488 3485 3 c1916 1 3485 3 3485 5 1 1 -1 450 -4 997 -3 653 -8 995 -15 995 -5 0 -9 7 -8 15 3 17 5 261 3 273 -5 25 -1 127 5 137 4 6 3 16 -1 20 -5 5 -7 42 -3 82 3 40 3 77 1 82 -12 22 -13 118 -1 132 9 11 9 18 1 26 -16 16 -15 121 0 136 8 8 9 15 2 22 -5 5 -7 40 -4 82 4 40 3 84 0 98 -4 15 -1 34 8 48 8 12 12 25 8 29 -3 3 -6 1 -6 -5 0 -7 -4 -12 -10 -12 -5 0 -10 23 -10 50 0 51 15 69 23 28 4 -23 4 -23 6 -1 0 12 -6 28 -14 37 -8 8 -15 26 -15 40 0 16 6 26 15 26 8 0 15 7 15 15 0 13 -23 15 -150 15 l-150 0 0 120 0 120 150 0 c127 0 150 2 150 15 0 8 -7 15 -15 15 -16 0 -21 36 -7 42 5 2 12 17 15 33 3 17 4 24 1 18 -12 -28 -24 -10 -24 37 0 47 12 66 23 38 4 -9 6 -10 6 -1 1 6 -5 18 -13 26 -8 8 -11 18 -7 23 5 5 5 37 2 71 -4 34 -3 72 1 84 5 12 4 27 0 33 -5 6 -6 43 -2 81 4 39 3 74 -2 80 -12 14 -10 119 4 133 8 8 9 15 2 22 -5 5 -7 40 -3 82 3 40 2 78 -3 84 -4 6 -5 13 -2 16 3 4 5 102 5 220 0 210 0 215 23 239 13 14 29 35 35 47 11 20 9 22 -14 22 l-25 0 0 950 0 950 -3483 0 -3482 0 -1 -3487z m6206 -3 l0 -2730 -1050 0 -1050 0 0 -70 0 -70 -620 0 -619 0 -3 68 -3 67 -1057 3 -1058 2 0 1310 0 1310 -320 0 -320 0 0 120 0 120 320 0 320 0 0 1300 0 1300 2730 0 2730 0 0 -2730z"></path><path id="p7PPkKOvv" d="M10520 9295 c0 -677 -3 -955 -11 -955 -13 0 -1 -62 14 -71 17 -12 24 -234 22 -701 -3 -403 -5 -459 -19 -473 -9 -9 -16 -22 -15 -28 0 -9 2 -8 6 1 10 25 33 12 33 -18 0 -28 -21 -43 -33 -22 -2 4 -2 1 0 -6 1 -8 3 -20 3 -29 0 -8 6 -13 13 -10 8 3 13 -7 14 -29 2 -25 -1 -34 -12 -34 -8 0 -15 -7 -15 -15 0 -13 24 -15 155 -15 l155 0 0 -120 0 -120 -155 0 c-131 0 -155 -2 -155 -15 0 -8 6 -15 13 -15 10 0 12 -127 11 -642 -1 -354 -4 -653 -7 -666 -13 -51 -21 -68 -37 -82 -16 -14 -40 -53 -40 -64 0 -3 14 -6 30 -6 l30 0 0 -940 0 -940 3485 0 3485 0 0 3485 0 3485 -3485 0 -3485 0 0 -955z m6200 -2525 l0 -2720 -2720 0 -2720 0 0 2720 0 2720 2720 0 2720 0 0 -2720z"></path><path id="p1BYGCpoJl" d="M10020 8450 c0 -28 2 -29 20 -18 11 7 20 16 20 20 0 5 7 8 15 8 8 0 15 5 15 10 0 6 -16 10 -35 10 -32 0 -35 -2 -35 -30z"></path><path id="p1H3jbAxnF" d="M10437 8386 c10 -13 26 -29 36 -35 15 -10 17 -7 17 24 0 33 -2 35 -35 35 l-36 0 18 -24z"></path><path id="p13cpSwCSM" d="M10383 5108 c-42 -26 -42 -38 2 -38 32 0 35 2 35 30 0 17 -1 30 -2 29 -2 0 -18 -10 -35 -21z"></path><path id="p9bjCwiqm" d="M10153 5053 c-28 -11 -13 -33 22 -33 24 0 35 5 35 15 0 8 -4 15 -9 15 -5 0 -15 2 -23 4 -7 3 -19 2 -25 -1z"></path></g></g><g id="l39NQx0d0zQvTV7eu2smYBS" fill="rgb(255,0,0)" style="transform: none;"><g><path id="pWuGihbtv" d="M3640 8238 c0 -717 -3 -1313 -6 -1325 l-6 -23 321 0 321 0 0 -120 0 -120 -321 0 -321 0 6 -22 c3 -13 6 -610 6 -1328 l0 -1305 1075 0 1075 0 0 68 0 67 620 0 620 0 0 -67 0 -68 1072 3 c589 1 1074 5 1077 9 3 3 0 8 -6 10 -10 4 -13 288 -13 1374 0 1210 2 1369 15 1369 8 0 15 5 15 10 0 6 -7 10 -15 10 -13 0 -15 159 -15 1370 l0 1370 -2750 0 c-1827 0 -2750 3 -2750 10 0 6 -4 10 -10 10 -7 0 -10 -441 -10 -1302z m2790 -1608 c0 -11 -4 -20 -8 -20 -5 0 -17 9 -27 20 -18 20 -17 20 8 20 20 0 27 -5 27 -20z"></path><path id="p11aBzQshk" d="M11252 8161 c3 -1384 3 -1381 -32 -1381 -5 0 -10 -4 -10 -10 0 -5 6 -10 14 -10 8 0 17 -7 20 -16 3 -9 6 -626 6 -1372 l0 -1357 2750 0 2750 0 2 2748 c2 1512 1 2751 -1 2753 -2 2 -1241 4 -2753 4 l-2748 0 2 -1359z m2781 -1148 l-113 -4 0 -31 c0 -30 0 -31 -20 -13 -11 10 -20 24 -20 31 0 7 -6 15 -12 17 -7 3 52 5 132 4 135 -1 137 -1 33 -4z m116 -327 c-1 -31 -1 -31 -8 4 -4 20 -11 42 -15 50 -4 8 0 6 8 -4 9 -11 15 -34 15 -50z m-29 -71 c0 -2 -18 -14 -40 -25 -47 -24 -117 -26 -145 -3 l-20 16 20 -9 c32 -14 108 -10 140 8 32 17 45 21 45 13z"></path></g></g><g id="l4yAoNoLQAPqiFKCD7EDhLT" fill="rgb(98,96,100)" style="transform: none;"><g><path id="plqyaIQWn" d="M2560 13320 l0 -40 40 0 40 0 0 40 0 40 -40 0 -40 0 0 -40z"></path><path id="pY7PAaGJh" d="M8080 13140 l0 -40 40 0 40 0 0 40 0 40 -40 0 -40 0 0 -40z"></path><path id="pXymCT2P2" d="M10680 13140 l0 -40 40 0 40 0 0 40 0 40 -40 0 -40 0 0 -40z"></path><path id="prORNWDEm" d="M14640 13140 l0 -40 40 0 40 0 0 40 0 40 -40 0 -40 0 0 -40z"></path><path id="pjYA2ylSu" d="M16370 13140 l0 -40 40 0 40 0 0 40 0 40 -40 0 -40 0 0 -40z"></path><path id="p18IQfrjJL" d="M19120 13140 l0 -40 40 0 40 0 0 40 0 40 -40 0 -40 0 0 -40z"></path><path id="pd3Z7l90d" d="M840 12980 l0 -40 40 0 40 0 0 40 0 40 -40 0 -40 0 0 -40z"></path><path id="pITT2oovB" d="M1000 12980 l0 -40 40 0 40 0 0 40 0 40 -40 0 -40 0 0 -40z"></path><path id="pcuqybChh" d="M2040 12980 l0 -40 40 0 40 0 0 40 0 40 -40 0 -40 0 0 -40z"></path><path id="pNpdvM4q3" d="M5320 12980 l0 -40 40 0 40 0 0 40 0 40 -40 0 -40 0 0 -40z"></path><path id="p15JOjAmPr" d="M12920 12980 l0 -40 40 0 40 0 0 40 0 40 -40 0 -40 0 0 -40z"></path><path id="pIhrdTIdY" d="M14120 12980 l0 -40 40 0 40 0 0 40 0 40 -40 0 -40 0 0 -40z"></path><path id="pFZ4W4hJ9" d="M15160 12980 l0 -40 40 0 40 0 0 40 0 40 -40 0 -40 0 0 -40z"></path><path id="pQYogsdiY" d="M17400 12980 l0 -40 40 0 40 0 0 40 0 40 -40 0 -40 0 0 -40z"></path><path id="pZf20AeFh" d="M19120 12980 l0 -40 40 0 40 0 0 40 0 40 -40 0 -40 0 0 -40z"></path><path id="pTuNsJ7X" d="M19480 12980 l0 -40 40 0 40 0 0 40 0 40 -40 0 -40 0 0 -40z"></path><path id="pQbsn8Qf6" d="M140 12970 l0 -40 40 0 40 0 0 40 0 40 -40 0 -40 0 0 -40z"></path><path id="phyxhiEMr" d="M1180 12970 l0 -40 40 0 40 0 0 40 0 40 -40 0 -40 0 0 -40z"></path><path id="pyayFQh8o" d="M2220 12965 l0 -45 40 0 40 0 0 45 0 45 -40 0 -40 0 0 -45z"></path><path id="pGUa58Tyq" d="M3780 12970 l0 -40 40 0 40 0 0 40 0 40 -40 0 -40 0 0 -40z"></path><path id="pMC0dQEyV" d="M3420 12800 l0 -40 40 0 40 0 0 40 0 40 -40 0 -40 0 0 -40z"></path><path id="pOGq2KLWq" d="M5500 12800 l0 -40 40 0 40 0 0 40 0 40 -40 0 -40 0 0 -40z"></path><path id="plXOgAGVP" d="M6540 12800 l0 -40 40 0 40 0 0 40 0 40 -40 0 -40 0 0 -40z"></path><path id="pv43yxuQs" d="M17580 12800 l0 -40 40 0 40 0 0 40 0 40 -40 0 -40 0 0 -40z"></path><path id="plgqrL6m3" d="M320 12620 l0 -40 40 0 40 0 0 40 0 40 -40 0 -40 0 0 -40z"></path><path id="pHsRCl6dO" d="M840 12620 l0 -40 40 0 40 0 0 40 0 40 -40 0 -40 0 0 -40z"></path><path id="p2dG0K5wJ" d="M1000 12620 l0 -40 40 0 40 0 0 40 0 40 -40 0 -40 0 0 -40z"></path><path id="phdX7jNsH" d="M9120 12620 l0 -40 40 0 40 0 0 40 0 40 -40 0 -40 0 0 -40z"></path><path id="p1CPhSM54F" d="M12920 12620 l0 -40 40 0 40 0 0 40 0 40 -40 0 -40 0 0 -40z"></path><path id="p3VkTevgZ" d="M15160 12620 l0 -40 40 0 40 0 0 40 0 40 -40 0 -40 0 0 -40z"></path><path id="p10xf3Uym3" d="M15680 12620 l0 -40 40 0 40 0 0 40 0 40 -40 0 -40 0 0 -40z"></path><path id="p15OLfPNf1" d="M16880 12620 l0 -40 40 0 40 0 0 40 0 40 -40 0 -40 0 0 -40z"></path><path id="pTmrvtHbv" d="M18440 12620 l0 -40 40 0 40 0 0 40 0 40 -40 0 -40 0 0 -40z"></path><path id="pyUtWX6Bg" d="M19120 12620 l0 -40 40 0 40 0 0 40 0 40 -40 0 -40 0 0 -40z"></path><path id="pSOALUEpN" d="M19480 12620 l0 -40 40 0 40 0 0 40 0 40 -40 0 -40 0 0 -40z"></path><path id="pLQ9wZv2T" d="M19640 12620 l0 -40 40 0 40 0 0 40 0 40 -40 0 -40 0 0 -40z"></path><path id="pW4Ni2Y6K" d="M840 12460 l0 -40 40 0 40 0 0 40 0 40 -40 0 -40 0 0 -40z"></path><path id="pS1BLk32K" d="M1000 12460 l0 -40 40 0 40 0 0 40 0 40 -40 0 -40 0 0 -40z"></path><path id="pMMkmvMnp" d="M1360 12460 l0 -40 40 0 40 0 0 40 0 40 -40 0 -40 0 0 -40z"></path><path id="pOI2rbqpF" d="M8080 12460 l0 -40 40 0 40 0 0 40 0 40 -40 0 -40 0 0 -40z"></path><path id="pGbVjWUqf" d="M11360 12460 l0 -40 40 0 40 0 0 40 0 40 -40 0 -40 0 0 -40z"></path><path id="p14IkcVS3N" d="M11880 12460 l0 -40 40 0 40 0 0 40 0 40 -40 0 -40 0 0 -40z"></path><path id="pIQwD6G9Q" d="M12920 12460 l0 -40 40 0 40 0 0 40 0 40 -40 0 -40 0 0 -40z"></path><path id="pVvJ022Sk" d="M15160 12460 l0 -40 40 0 40 0 0 40 0 40 -40 0 -40 0 0 -40z"></path><path id="pOZdObPj6" d="M17400 12460 l0 -40 40 0 40 0 0 40 0 40 -40 0 -40 0 0 -40z"></path><path id="pBA6wBihs" d="M18440 12460 l0 -40 40 0 40 0 0 40 0 40 -40 0 -40 0 0 -40z"></path><path id="p04bO5g17" d="M18960 12460 l0 -40 40 0 40 0 0 40 0 40 -40 0 -40 0 0 -40z"></path><path id="pQao9T9NS" d="M19120 12460 l0 -40 40 0 40 0 0 40 0 40 -40 0 -40 0 0 -40z"></path><path id="pFhTGwHPa" d="M19480 12460 l0 -40 40 0 40 0 0 40 0 40 -40 0 -40 0 0 -40z"></path><path id="pWQ3XgbsB" d="M20000 12460 l0 -40 40 0 40 0 0 40 0 40 -40 0 -40 0 0 -40z"></path><path id="pk5HkLQpR" d="M2050 12285 c0 -33 2 -35 35 -35 33 0 35 2 35 35 0 33 -2 35 -35 35 -33 0 -35 -2 -35 -35z"></path><path id="pruoaMrZW" d="M2220 12285 c0 -35 0 -35 45 -35 45 0 45 0 45 35 0 35 0 35 -45 35 -45 0 -45 0 -45 -35z"></path><path id="p1pzi4OJq" d="M18440 12285 c0 -34 1 -35 40 -35 39 0 40 1 40 35 0 34 -1 35 -40 35 -39 0 -40 -1 -40 -35z"></path><path id="pFxqHaN8w" d="M18740 12225 c0 -33 2 -35 35 -35 33 0 35 2 35 35 0 33 -2 35 -35 35 -33 0 -35 -2 -35 -35z"></path><path id="p1HDMHhM2T" d="M840 12100 l0 -40 40 0 40 0 0 40 0 40 -40 0 -40 0 0 -40z"></path><path id="pwBInMTRG" d="M1000 12100 l0 -40 40 0 40 0 0 40 0 40 -40 0 -40 0 0 -40z"></path><path id="pkQL7vpmE" d="M19120 12100 l0 -40 40 0 40 0 0 40 0 40 -40 0 -40 0 0 -40z"></path><path id="p8AkGsywP" d="M19480 12100 l0 -40 40 0 40 0 0 40 0 40 -40 0 -40 0 0 -40z"></path><path id="pkB6eniaW" d="M19640 12100 l0 -40 40 0 40 0 0 40 0 40 -40 0 -40 0 0 -40z"></path><path id="p19NuUH5VV" d="M18972 12053 c3 -36 5 -38 41 -41 l38 -3 -3 38 c-3 36 -5 38 -41 41 l-38 3 3 -38z"></path><path id="prt93aem8" d="M1000 11940 l0 -40 40 0 40 0 0 40 0 40 -40 0 -40 0 0 -40z"></path><path id="p43e1aL8K" d="M19480 11940 l0 -40 40 0 40 0 0 40 0 40 -40 0 -40 0 0 -40z"></path><path id="p16PIVSvOH" d="M19080 11895 c0 -19 5 -35 10 -35 6 0 10 -11 10 -25 0 -14 4 -25 9 -25 9 0 18 -40 27 -122 6 -47 7 -48 40 -48 32 0 34 2 34 33 0 53 -19 152 -30 155 -5 2 -10 15 -10 28 0 13 -4 24 -10 24 -5 0 -10 11 -10 25 0 22 -4 25 -35 25 -33 0 -35 -2 -35 -35z"></path><path id="p1GSaXndgu" d="M1230 11815 c0 -8 -9 -15 -20 -15 -17 0 -20 -7 -20 -39 0 -41 13 -51 71 -51 23 0 27 5 33 38 12 75 10 82 -29 82 -24 0 -35 -5 -35 -15z"></path><path id="pLm5qZ8Zg" d="M19640 11760 l0 -40 40 0 40 0 0 40 0 40 -40 0 -40 0 0 -40z"></path><path id="pspDaFI7C" d="M840 11580 l0 -40 40 0 40 0 0 40 0 40 -40 0 -40 0 0 -40z"></path><path id="pCkaJ4fKw" d="M1000 11580 l0 -40 40 0 40 0 0 40 0 40 -40 0 -40 0 0 -40z"></path><path id="p3j29gxQ0" d="M20000 11580 l0 -40 40 0 40 0 0 40 0 40 -40 0 -40 0 0 -40z"></path><path id="pcWQqiPel" d="M19140 6785 l0 -4745 35 0 35 0 0 4745 0 4745 -35 0 -35 0 0 -4745z"></path><path id="pjOZwxX8T" d="M840 11420 l0 -40 40 0 40 0 0 40 0 40 -40 0 -40 0 0 -40z"></path><path id="pXS5B5CAc" d="M1000 11420 l0 -40 40 0 40 0 0 40 0 40 -40 0 -40 0 0 -40z"></path><path id="pKr2mj40w" d="M19480 11420 l0 -40 40 0 40 0 0 40 0 40 -40 0 -40 0 0 -40z"></path><path id="p1FjbZzfQL" d="M19640 11420 l0 -40 40 0 40 0 0 40 0 40 -40 0 -40 0 0 -40z"></path><path id="p1AJfq6644" d="M20000 11420 l0 -40 40 0 40 0 0 40 0 40 -40 0 -40 0 0 -40z"></path><path id="p67UCMkh8" d="M840 11240 l0 -40 40 0 40 0 0 40 0 40 -40 0 -40 0 0 -40z"></path><path id="pEAFPHJMh" d="M840 10900 l0 -40 40 0 40 0 0 40 0 40 -40 0 -40 0 0 -40z"></path><path id="pVTHJwa4H" d="M1000 10900 l0 -40 40 0 40 0 0 40 0 40 -40 0 -40 0 0 -40z"></path><path id="puaAjuDtC" d="M19480 10900 l0 -40 40 0 40 0 0 40 0 40 -40 0 -40 0 0 -40z"></path><path id="pdjVEClQx" d="M19480 10560 l0 -40 40 0 40 0 0 40 0 40 -40 0 -40 0 0 -40z"></path><path id="pbadcx4w6" d="M840 10380 l0 -40 40 0 40 0 0 40 0 40 -40 0 -40 0 0 -40z"></path><path id="pEFlm8LND" d="M1000 10380 l0 -40 40 0 40 0 0 40 0 40 -40 0 -40 0 0 -40z"></path><path id="pEFtXoaIa" d="M3080 10380 l0 -40 40 0 40 0 0 40 0 40 -40 0 -40 0 0 -40z"></path><path id="p1G0mZQX6G" d="M8080 10380 l0 -40 40 0 40 0 0 40 0 40 -40 0 -40 0 0 -40z"></path><path id="phUQbZfSc" d="M8440 10380 l0 -40 40 0 40 0 0 40 0 40 -40 0 -40 0 0 -40z"></path><path id="pYDf87x9F" d="M10500 10380 l0 -40 40 0 40 0 0 40 0 40 -40 0 -40 0 0 -40z"></path><path id="p1C4WPh9Tb" d="M11360 10380 l0 -40 40 0 40 0 0 40 0 40 -40 0 -40 0 0 -40z"></path><path id="pRSy8xvSz" d="M14120 10380 l0 -40 40 0 40 0 0 40 0 40 -40 0 -40 0 0 -40z"></path><path id="p1C2LL2rQt" d="M14640 10380 l0 -40 40 0 40 0 0 40 0 40 -40 0 -40 0 0 -40z"></path><path id="p0GlyGA7W" d="M16200 10380 l0 -40 40 0 40 0 0 40 0 40 -40 0 -40 0 0 -40z"></path><path id="p7RWrwksV" d="M17400 10380 l0 -40 40 0 40 0 0 40 0 40 -40 0 -40 0 0 -40z"></path><path id="pVynPLsLq" d="M19480 10380 l0 -40 40 0 40 0 0 40 0 40 -40 0 -40 0 0 -40z"></path><path id="p10rj4HeEN" d="M9830 10230 c0 -5 7 -10 15 -10 13 0 15 -21 15 -125 0 -118 1 -125 20 -125 19 0 20 7 20 135 l0 135 -35 0 c-19 0 -35 -4 -35 -10z"></path><path id="p4WLP0jbs" d="M9860 9110 c0 -467 4 -850 8 -850 14 0 32 23 32 42 0 10 7 18 15 18 8 0 15 4 15 10 0 15 71 90 85 90 6 0 20 9 30 20 10 11 24 20 32 20 7 0 16 7 19 15 4 10 15 12 35 8 46 -9 99 5 99 27 0 24 10 50 20 50 5 0 6 -19 3 -42 -4 -29 -3 -39 5 -34 6 4 19 2 29 -3 39 -21 86 -41 92 -38 3 1 22 -14 42 -35 21 -21 35 -38 32 -38 -3 0 5 -8 18 -19 19 -16 25 -16 37 -5 7 8 20 14 28 14 11 0 14 25 14 140 0 131 -1 140 -19 140 -14 0 -18 5 -14 20 3 11 12 20 19 20 10 0 14 16 14 60 0 57 -1 60 -24 60 -19 0 -23 4 -19 20 3 11 14 20 24 20 17 0 19 8 19 60 0 54 -2 60 -21 60 -15 0 -19 4 -15 16 3 9 6 18 6 20 0 2 7 4 15 4 12 0 15 13 15 60 0 52 -2 60 -19 60 -14 0 -18 5 -14 20 3 11 12 20 19 20 11 0 14 16 14 66 0 64 -1 66 -24 62 -19 -4 -22 -1 -18 14 2 10 13 18 23 18 17 0 19 8 19 69 0 46 -4 71 -12 74 -10 4 -10 6 0 6 8 1 12 19 12 56 0 48 -2 55 -20 55 -11 0 -20 -7 -20 -15 0 -13 -37 -15 -269 -15 -206 0 -271 -3 -274 -12 -4 -10 -6 -10 -6 0 -1 7 -14 12 -31 12 l-30 0 0 205 c0 198 -1 205 -20 205 -20 0 -20 -7 -20 -850z m462 298 c-56 -53 -66 -42 -12 12 23 23 45 39 48 35 4 -3 -13 -24 -36 -47z m-292 27 c-13 -16 -40 -20 -40 -7 0 14 12 22 33 22 16 0 17 -3 7 -15z m148 -10 c-16 -13 -28 -28 -28 -33 0 -5 -12 -14 -27 -21 -16 -7 -26 -10 -23 -8 3 3 21 24 40 46 19 22 42 41 50 40 10 0 6 -8 -12 -24z m-98 -90 c0 -5 -49 -55 -55 -55 -12 0 11 40 28 48 27 13 27 13 27 7z m150 -11 c0 -6 -40 -44 -46 -44 -2 0 2 11 8 25 10 22 38 36 38 19z m-230 -67 c0 -2 -9 -14 -20 -27 -11 -13 -20 -17 -20 -10 0 7 8 19 18 26 18 14 22 16 22 11z m160 -2 c0 -6 -50 -55 -57 -55 -7 0 17 31 37 47 17 14 20 15 20 8z m160 2 c0 -10 -41 -49 -46 -45 -3 3 5 15 17 27 22 20 29 25 29 18z m120 -40 c0 -2 -9 -14 -20 -27 -11 -13 -20 -17 -20 -10 0 7 8 19 18 26 18 14 22 16 22 11z m-440 -120 c0 -2 -9 -14 -20 -27 -11 -13 -20 -17 -20 -10 0 7 8 19 18 26 18 14 22 16 22 11z m320 0 c0 -2 -9 -14 -20 -27 -11 -13 -20 -17 -20 -10 0 7 8 19 18 26 18 14 22 16 22 11z m-190 -37 c-13 -11 -25 -20 -27 -20 -2 0 2 9 9 20 7 11 19 20 27 20 9 0 6 -7 -9 -20z m-130 -285 c0 -6 -50 -55 -57 -55 -7 0 17 31 37 47 17 14 20 15 20 8z m305 -21 c-14 -14 -28 -24 -31 -21 -6 6 36 47 48 47 5 0 -3 -12 -17 -26z m-175 -14 c-13 -11 -25 -20 -27 -20 -2 0 2 9 9 20 7 11 19 20 27 20 9 0 6 -7 -9 -20z m-130 -135 c0 -8 -6 -15 -14 -15 -8 0 -16 -6 -19 -12 -2 -7 -7 -10 -11 -7 -4 4 3 16 15 28 27 25 29 25 29 6z m313 -7 c-13 -12 -26 -18 -30 -14 -4 4 1 14 11 22 31 22 43 17 19 -8z m167 17 c0 -8 -51 -55 -60 -55 -6 0 4 14 22 30 30 29 38 34 38 25z m-347 -35 c-10 -11 -21 -20 -25 -20 -5 0 -3 9 4 20 7 11 18 20 25 20 9 0 7 -6 -4 -20z m267 -55 c0 -9 -9 -15 -22 -15 -21 0 -21 0 -2 15 24 18 24 18 24 0z"></path><path id="p1BI2cLepp" d="M17770 9910 c0 -5 -7 -10 -15 -10 -11 0 -15 -11 -15 -36 l0 -35 48 3 47 3 3 43 3 42 -35 0 c-20 0 -36 -4 -36 -10z"></path><path id="pzY8zwX2b" d="M19480 9860 l0 -40 40 0 40 0 0 40 0 40 -40 0 -40 0 0 -40z"></path><path id="p18MJ2tkRd" d="M19640 9860 l0 -40 40 0 40 0 0 40 0 40 -40 0 -40 0 0 -40z"></path><path id="pMblTS2px" d="M19480 9700 l0 -40 40 0 40 0 0 40 0 40 -40 0 -40 0 0 -40z"></path><path id="p47aD9UpM" d="M17580 9520 l0 -40 40 0 40 0 0 40 0 40 -40 0 -40 0 0 -40z"></path><path id="pNibIOepG" d="M17758 9383 c-23 -6 -26 -73 -3 -73 8 0 15 -7 15 -15 0 -10 11 -15 35 -15 l35 0 0 55 0 55 -32 -1 c-18 -1 -41 -3 -50 -6z"></path><path id="pfDkXRVtA" d="M320 9340 l0 -40 40 0 40 0 0 40 0 40 -40 0 -40 0 0 -40z"></path><path id="pi9NFC7t1" d="M840 9340 l0 -40 40 0 40 0 0 40 0 40 -40 0 -40 0 0 -40z"></path><path id="pJ9PVt8GD" d="M1000 9340 l0 -40 40 0 40 0 0 40 0 40 -40 0 -40 0 0 -40z"></path><path id="poJqmPt9o" d="M19300 9340 l0 -40 40 0 40 0 0 40 0 40 -40 0 -40 0 0 -40z"></path><path id="pjQfXcurU" d="M19480 9340 l0 -40 40 0 40 0 0 40 0 40 -40 0 -40 0 0 -40z"></path><path id="p6x1snl47" d="M20000 9340 l0 -40 40 0 40 0 0 40 0 40 -40 0 -40 0 0 -40z"></path><path id="pBRt0WQjL" d="M1000 9180 l0 -40 40 0 40 0 0 40 0 40 -40 0 -40 0 0 -40z"></path><path id="pRtzT9wQO" d="M19480 9180 l0 -40 40 0 40 0 0 40 0 40 -40 0 -40 0 0 -40z"></path><path id="pexucixDu" d="M19640 9180 l0 -40 40 0 40 0 0 40 0 40 -40 0 -40 0 0 -40z"></path><path id="pzYV8bErc" d="M20000 9180 l0 -40 40 0 40 0 0 40 0 40 -40 0 -40 0 0 -40z"></path><path id="p11nDz1lDz" d="M840 8820 l0 -40 40 0 40 0 0 40 0 40 -40 0 -40 0 0 -40z"></path><path id="pBktvjNXA" d="M19480 8820 l0 -40 40 0 40 0 0 40 0 40 -40 0 -40 0 0 -40z"></path><path id="pwK7BI8eE" d="M19480 8660 l0 -40 40 0 40 0 0 40 0 40 -40 0 -40 0 0 -40z"></path><path id="pi0ydYv13" d="M19640 8660 l0 -40 40 0 40 0 0 40 0 40 -40 0 -40 0 0 -40z"></path><path id="pz7UXyocu" d="M17770 8190 c0 -5 -7 -10 -15 -10 -10 0 -15 -11 -15 -35 0 -24 5 -35 15 -35 8 0 15 -9 15 -20 0 -16 7 -20 35 -20 l35 0 0 65 0 65 -35 0 c-19 0 -35 -4 -35 -10z"></path><path id="p1F1lm8OcB" d="M9862 8160 c0 -19 2 -27 5 -17 2 9 2 25 0 35 -3 9 -5 1 -5 -18z"></path><path id="pBqcJzFnU" d="M840 8140 l0 -40 40 0 40 0 0 40 0 40 -40 0 -40 0 0 -40z"></path><path id="pG5MVlgls" d="M1000 8140 l0 -40 40 0 40 0 0 40 0 40 -40 0 -40 0 0 -40z"></path><path id="p1Ip5MXfG" d="M19480 8140 l0 -40 40 0 40 0 0 40 0 40 -40 0 -40 0 0 -40z"></path><path id="pEFniL45V" d="M19640 8140 l0 -40 40 0 40 0 0 40 0 40 -40 0 -40 0 0 -40z"></path><path id="paGO7Kwjc" d="M20000 8140 l0 -40 40 0 40 0 0 40 0 40 -40 0 -40 0 0 -40z"></path><path id="pnbePyzFW" d="M9863 8045 c0 -27 2 -38 4 -22 2 15 2 37 0 50 -2 12 -4 0 -4 -28z"></path><path id="pLAaBveny" d="M9863 7875 c0 -33 2 -45 4 -27 2 18 2 45 0 60 -2 15 -4 0 -4 -33z"></path><path id="pdQweBg5o" d="M9863 7725 c0 -27 2 -38 4 -22 2 15 2 37 0 50 -2 12 -4 0 -4 -28z"></path><path id="pTRRWaiOZ" d="M1000 7620 l0 -40 40 0 40 0 0 40 0 40 -40 0 -40 0 0 -40z"></path><path id="pIGq6emL7" d="M10542 7630 c0 -19 2 -27 5 -17 2 9 2 25 0 35 -3 9 -5 1 -5 -18z"></path><path id="p2dWxrxDF" d="M19480 7620 l0 -40 40 0 40 0 0 40 0 40 -40 0 -40 0 0 -40z"></path><path id="poI5gcb0j" d="M9863 7400 c0 -30 2 -43 4 -27 2 15 2 39 0 55 -2 15 -4 2 -4 -28z"></path><path id="psFF20uw2" d="M19480 7280 l0 -40 40 0 40 0 0 40 0 40 -40 0 -40 0 0 -40z"></path><path id="p14nVtEQVz" d="M9863 7215 c0 -27 2 -38 4 -22 2 15 2 37 0 50 -2 12 -4 0 -4 -28z"></path><path id="pKKKekOOw" d="M840 7100 l0 -40 40 0 40 0 0 40 0 40 -40 0 -40 0 0 -40z"></path><path id="pnwZvJMPE" d="M19480 7100 l0 -40 40 0 40 0 0 40 0 40 -40 0 -40 0 0 -40z"></path><path id="p19Ode4rze" d="M19640 7100 l0 -40 40 0 40 0 0 40 0 40 -40 0 -40 0 0 -40z"></path><path id="pZEVy6TCp" d="M17770 6990 c0 -5 -7 -10 -15 -10 -10 0 -15 -11 -15 -35 0 -24 5 -35 15 -35 8 0 15 -9 15 -20 0 -16 7 -20 35 -20 l35 0 0 65 0 65 -35 0 c-19 0 -35 -4 -35 -10z"></path><path id="pxTuu0itH" d="M19480 6940 l0 -40 40 0 40 0 0 40 0 40 -40 0 -40 0 0 -40z"></path><path id="pKFEPLVqs" d="M20000 6940 l0 -40 40 0 40 0 0 40 0 40 -40 0 -40 0 0 -40z"></path><path id="pssGKb1QA" d="M19480 6760 l0 -40 40 0 40 0 0 40 0 40 -40 0 -40 0 0 -40z"></path><path id="pSLaMQvJQ" d="M9800 6755 c0 -33 2 -35 35 -35 33 0 35 2 35 35 0 27 -4 35 -19 35 -14 0 -18 -6 -16 -25 2 -14 -1 -23 -6 -19 -5 3 -9 14 -9 25 0 10 -4 19 -10 19 -5 0 -10 -16 -10 -35z"></path><path id="pwhr4bA3z" d="M17770 6630 c0 -5 -7 -10 -15 -10 -10 0 -15 -11 -15 -35 0 -24 5 -35 15 -35 8 0 15 -9 15 -20 0 -16 7 -20 35 -20 l35 0 0 65 0 65 -35 0 c-19 0 -35 -4 -35 -10z"></path><path id="p1CJoZ1ldG" d="M19480 6580 l0 -40 40 0 40 0 0 40 0 40 -40 0 -40 0 0 -40z"></path><path id="px8fEobYV" d="M17770 6470 c0 -5 -7 -10 -15 -10 -10 0 -15 -11 -15 -35 0 -24 5 -35 15 -35 8 0 15 -7 15 -15 0 -10 11 -15 35 -15 l35 0 0 60 0 60 -35 0 c-19 0 -35 -4 -35 -10z"></path><path id="p1Fjzt8EDq" d="M19480 6420 l0 -40 40 0 40 0 0 40 0 40 -40 0 -40 0 0 -40z"></path><path id="p15uYYEkyM" d="M9836 6404 c-9 -24 -4 -24 18 -3 16 16 17 19 4 19 -9 0 -19 -7 -22 -16z"></path><path id="pF0mkntm4" d="M9863 6265 c0 -27 2 -38 4 -22 2 15 2 37 0 50 -2 12 -4 0 -4 -28z"></path><path id="pKvS0jeuL" d="M10543 6150 c0 -36 2 -50 4 -32 2 17 2 47 0 65 -2 17 -4 3 -4 -33z"></path><path id="pfirI083x" d="M19480 6060 l0 -40 40 0 40 0 0 40 0 40 -40 0 -40 0 0 -40z"></path><path id="psQei1JN9" d="M19640 6060 l0 -40 40 0 40 0 0 40 0 40 -40 0 -40 0 0 -40z"></path><path id="p13oQtsL3O" d="M840 5900 l0 -40 40 0 40 0 0 40 0 40 -40 0 -40 0 0 -40z"></path><path id="pSMLH5OUs" d="M1000 5900 l0 -40 40 0 40 0 0 40 0 40 -40 0 -40 0 0 -40z"></path><path id="plvnX0Hsv" d="M19480 5900 l0 -40 40 0 40 0 0 40 0 40 -40 0 -40 0 0 -40z"></path><path id="pjiUljKRU" d="M20000 5900 l0 -40 40 0 40 0 0 40 0 40 -40 0 -40 0 0 -40z"></path><path id="p15hEDhNM7" d="M19300 5550 l0 -40 40 0 40 0 0 40 0 40 -40 0 -40 0 0 -40z"></path><path id="p1DagmuEiD" d="M9863 5475 c0 -22 2 -30 4 -17 2 12 2 30 0 40 -3 9 -5 -1 -4 -23z"></path><path id="phOMQnyZS" d="M840 5380 l0 -40 40 0 40 0 0 40 0 40 -40 0 -40 0 0 -40z"></path><path id="pK2BYTWor" d="M1000 5380 l0 -40 40 0 40 0 0 40 0 40 -40 0 -40 0 0 -40z"></path><path id="p1HjwEx4zw" d="M19480 5380 l0 -40 40 0 40 0 0 40 0 40 -40 0 -40 0 0 -40z"></path><path id="p15zR8nRrg" d="M19640 5380 l0 -40 40 0 40 0 0 40 0 40 -40 0 -40 0 0 -40z"></path><path id="pWpynEtGE" d="M10541 5340 c-1 -8 -4 -25 -7 -38 -5 -29 -19 -56 -40 -76 -9 -9 -11 -16 -4 -16 6 0 8 -5 5 -10 -4 -6 -11 -8 -16 -5 -5 4 -9 1 -9 -4 0 -14 -82 -91 -96 -91 -6 0 -17 -7 -24 -15 -7 -8 -30 -18 -51 -21 -23 -4 -39 -12 -39 -20 0 -8 -9 -14 -20 -14 -13 0 -20 -7 -20 -19 0 -22 -25 -51 -43 -51 -6 0 -1 7 11 16 31 22 31 74 0 75 -13 1 -26 1 -30 0 -4 0 -19 4 -33 9 -21 8 -25 7 -25 -10 0 -20 -63 -90 -81 -90 -6 0 4 13 21 29 26 23 31 35 28 62 -3 30 -7 34 -36 37 -24 2 -39 -2 -51 -17 -23 -26 -35 -27 -21 -2 17 33 12 78 -13 103 -12 13 -30 39 -39 59 -10 20 -24 36 -33 36 -13 0 -15 -91 -15 -829 0 -818 0 -828 20 -828 18 0 20 8 22 163 l3 162 323 3 322 2 0 200 c0 184 -1 200 -17 200 -17 1 -17 1 0 14 23 18 25 146 2 146 -8 0 -15 5 -15 10 0 6 7 10 15 10 12 0 15 14 15 70 0 56 -3 70 -15 70 -8 0 -15 5 -15 10 0 6 7 10 15 10 12 0 15 13 15 60 l0 60 -30 0 -30 0 20 20 c11 11 25 20 30 20 6 0 10 27 10 60 l0 60 -32 1 c-18 0 -27 3 -20 6 6 2 12 11 12 19 0 8 9 14 20 14 18 0 20 7 20 60 l0 60 -35 0 c-33 0 -35 -2 -35 -35 0 -28 -4 -35 -20 -35 -11 0 -20 -4 -20 -10 0 -5 -6 -10 -14 -10 -8 0 -17 -6 -19 -12 -4 -10 -6 -10 -6 0 -1 6 8 21 19 32 12 12 20 33 20 54 0 33 1 34 50 40 28 4 53 13 56 20 3 7 3 53 1 102 -1 49 -4 82 -6 74z m-621 -335 c0 -8 -4 -15 -10 -15 -5 0 -10 7 -10 15 0 8 5 15 10 15 6 0 10 -7 10 -15z m414 -61 c-30 -31 -57 -54 -60 -52 -6 6 94 108 107 108 5 0 -16 -25 -47 -56z m-174 -8 c0 -9 -121 -128 -126 -124 -4 4 115 128 123 128 2 0 3 -2 3 -4z m320 -1 c0 -2 -16 -20 -35 -39 -19 -20 -35 -42 -35 -51 0 -8 -4 -15 -10 -15 -22 0 -8 32 31 70 40 39 49 45 49 35z m-500 -14 c0 -12 -29 -41 -40 -41 -5 0 1 11 13 25 25 28 27 29 27 16z m384 -115 c-3 -9 -10 -16 -15 -16 -5 0 -25 -16 -45 -35 -37 -37 -56 -47 -33 -17 20 25 93 92 96 88 2 -2 1 -11 -3 -20z m-184 -16 c-36 -33 -49 -39 -29 -12 18 23 41 42 52 42 5 0 -5 -13 -23 -30z m-170 -10 c-13 -11 -27 -20 -32 -20 -14 0 26 38 41 39 9 1 5 -7 -9 -19z m360 -120 c-13 -11 -25 -20 -27 -20 -2 0 2 9 9 20 7 11 19 20 27 20 9 0 6 -7 -9 -20z m-50 -43 c0 -10 -41 -49 -46 -45 -3 3 5 15 17 27 22 20 29 25 29 18z m-190 -197 c-13 -11 -25 -20 -27 -20 -2 0 2 9 9 20 7 11 19 20 27 20 9 0 6 -7 -9 -20z m364 -114 c-3 -8 -12 -17 -20 -20 -11 -4 -12 -2 -1 14 14 23 29 27 21 6z m-333 -176 c-22 -22 -41 -44 -41 -50 0 -5 -10 -10 -22 -9 l-23 0 23 11 c12 6 22 15 22 19 0 12 61 69 73 69 5 0 -9 -18 -32 -40z m-161 -4 c0 -7 -9 -16 -20 -19 -25 -6 -26 1 -2 19 22 17 22 17 22 0z m474 -10 c-6 -15 -34 -23 -34 -10 0 8 34 34 38 30 1 -2 0 -11 -4 -20z m-167 -3 c-9 -9 -20 -13 -24 -9 -4 4 -1 11 7 16 25 16 35 11 17 -7z"></path><path id="p1FFYb51f3" d="M320 4860 l0 -40 40 0 40 0 0 40 0 40 -40 0 -40 0 0 -40z"></path><path id="pPuGVkUe3" d="M840 4860 l0 -40 40 0 40 0 0 40 0 40 -40 0 -40 0 0 -40z"></path><path id="p7BlABvlH" d="M1000 4860 l0 -40 40 0 40 0 0 40 0 40 -40 0 -40 0 0 -40z"></path><path id="puxZAsKYk" d="M19480 4860 l0 -40 40 0 40 0 0 40 0 40 -40 0 -40 0 0 -40z"></path><path id="p6MrzKAYD" d="M19640 4860 l0 -40 40 0 40 0 0 40 0 40 -40 0 -40 0 0 -40z"></path><path id="p5qZcWBHE" d="M20000 4860 l0 -40 40 0 40 0 0 40 0 40 -40 0 -40 0 0 -40z"></path><path id="pMDoTfQ7v" d="M840 4340 l0 -40 40 0 40 0 0 40 0 40 -40 0 -40 0 0 -40z"></path><path id="p2NExJeBd" d="M19480 4340 l0 -40 40 0 40 0 0 40 0 40 -40 0 -40 0 0 -40z"></path><path id="pFjuYJHc7" d="M19640 4340 l0 -40 40 0 40 0 0 40 0 40 -40 0 -40 0 0 -40z"></path><path id="pnpNriL6E" d="M19480 4000 l0 -40 40 0 40 0 0 40 0 40 -40 0 -40 0 0 -40z"></path><path id="p10H8bzKft" d="M19480 3820 l0 -40 40 0 40 0 0 40 0 40 -40 0 -40 0 0 -40z"></path><path id="p12es8PeGE" d="M19640 3820 l0 -40 40 0 40 0 0 40 0 40 -40 0 -40 0 0 -40z"></path><path id="pYsDAlbae" d="M20000 3820 l0 -40 40 0 40 0 0 40 0 40 -40 0 -40 0 0 -40z"></path><path id="p13aAvgTTB" d="M17770 3715 c0 -8 -7 -15 -15 -15 -10 0 -15 -11 -15 -35 0 -24 5 -35 15 -35 8 0 15 -9 15 -20 0 -16 7 -20 35 -20 l35 0 0 70 0 70 -35 0 c-24 0 -35 -5 -35 -15z"></path><path id="p1CaMtHIch" d="M840 3660 l0 -40 40 0 40 0 0 40 0 40 -40 0 -40 0 0 -40z"></path><path id="pxa1U8zcV" d="M1000 3660 l0 -40 40 0 40 0 0 40 0 40 -40 0 -40 0 0 -40z"></path><path id="pngUtvB85" d="M19480 3660 l0 -40 40 0 40 0 0 40 0 40 -40 0 -40 0 0 -40z"></path><path id="p9Fqrt3uQ" d="M19640 3660 l0 -40 40 0 40 0 0 40 0 40 -40 0 -40 0 0 -40z"></path><path id="p1G41bLvoS" d="M20000 3660 l0 -40 40 0 40 0 0 40 0 40 -40 0 -40 0 0 -40z"></path><path id="pCXSVL5wb" d="M9862 3455 c3 -133 2 -145 -14 -145 -10 0 -18 -4 -18 -10 0 -5 16 -10 35 -10 l35 0 0 155 c0 150 -1 155 -21 155 -19 0 -20 -4 -17 -145z"></path><path id="pBtFhaf8S" d="M10506 3334 c-3 -9 -6 -29 -6 -45 0 -28 2 -29 45 -29 41 0 45 2 45 25 0 18 -5 25 -20 25 -13 0 -20 7 -20 20 0 24 -35 28 -44 4z"></path><path id="pyqbutdvp" d="M19480 3300 l0 -40 40 0 40 0 0 40 0 40 -40 0 -40 0 0 -40z"></path><path id="pmOrd5fjF" d="M17770 3190 c0 -5 -7 -10 -15 -10 -10 0 -15 -11 -15 -35 0 -24 5 -35 15 -35 8 0 15 -7 15 -15 0 -10 11 -15 35 -15 l35 0 0 60 0 60 -35 0 c-19 0 -35 -4 -35 -10z"></path><path id="pb8xjUR9o" d="M3080 3140 l0 -40 40 0 40 0 0 40 0 40 -40 0 -40 0 0 -40z"></path><path id="pVvuqq9BZ" d="M3420 3140 l0 -40 40 0 40 0 0 40 0 40 -40 0 -40 0 0 -40z"></path><path id="pr0yly4po" d="M4120 3140 l0 -40 40 0 40 0 0 40 0 40 -40 0 -40 0 0 -40z"></path><path id="pEFWVh4mn" d="M4280 3140 l0 -40 40 0 40 0 0 40 0 40 -40 0 -40 0 0 -40z"></path><path id="pJ2O4823w" d="M5160 3140 l0 -40 40 0 40 0 0 40 0 40 -40 0 -40 0 0 -40z"></path><path id="pU2x137FE" d="M5320 3140 l0 -40 40 0 40 0 0 40 0 40 -40 0 -40 0 0 -40z"></path><path id="pPveQsMvw" d="M6360 3140 l0 -40 40 0 40 0 0 40 0 40 -40 0 -40 0 0 -40z"></path><path id="pfp6laQ3g" d="M7400 3140 l0 -40 40 0 40 0 0 40 0 40 -40 0 -40 0 0 -40z"></path><path id="p1D14sX09K" d="M7560 3140 l0 -40 40 0 40 0 0 40 0 40 -40 0 -40 0 0 -40z"></path><path id="pe37uBDVe" d="M8080 3140 l0 -40 40 0 40 0 0 40 0 40 -40 0 -40 0 0 -40z"></path><path id="p1FMIjCUIC" d="M8600 3140 l0 -40 40 0 40 0 0 40 0 40 -40 0 -40 0 0 -40z"></path><path id="pMQLdKDpt" d="M10680 3140 l0 -40 40 0 40 0 0 40 0 40 -40 0 -40 0 0 -40z"></path><path id="p4jmhVcKy" d="M10840 3140 l0 -40 40 0 40 0 0 40 0 40 -40 0 -40 0 0 -40z"></path><path id="p8ixr8mju" d="M11880 3140 l0 -40 40 0 40 0 0 40 0 40 -40 0 -40 0 0 -40z"></path><path id="pEcwi9EY2" d="M12920 3140 l0 -40 40 0 40 0 0 40 0 40 -40 0 -40 0 0 -40z"></path><path id="pTd4eRnEf" d="M13080 3140 l0 -40 40 0 40 0 0 40 0 40 -40 0 -40 0 0 -40z"></path><path id="pdWkWwByc" d="M13960 3140 l0 -40 40 0 40 0 0 40 0 40 -40 0 -40 0 0 -40z"></path><path id="p1ANbXDFgJ" d="M14120 3140 l0 -40 40 0 40 0 0 40 0 40 -40 0 -40 0 0 -40z"></path><path id="pMQac1o2J" d="M15160 3140 l0 -40 40 0 40 0 0 40 0 40 -40 0 -40 0 0 -40z"></path><path id="pDP28kXU4" d="M16200 3140 l0 -40 40 0 40 0 0 40 0 40 -40 0 -40 0 0 -40z"></path><path id="pa0uOUR9E" d="M16360 3140 l0 -40 40 0 40 0 0 40 0 40 -40 0 -40 0 0 -40z"></path><path id="pRabl6UmX" d="M16880 3140 l0 -40 40 0 40 0 0 40 0 40 -40 0 -40 0 0 -40z"></path><path id="p1CH2QeBoA" d="M17400 3140 l0 -40 40 0 40 0 0 40 0 40 -40 0 -40 0 0 -40z"></path><path id="pvWHoSTCe" d="M19480 3140 l0 -40 40 0 40 0 0 40 0 40 -40 0 -40 0 0 -40z"></path><path id="pnP1ZlN2O" d="M19640 3140 l0 -40 40 0 40 0 0 40 0 40 -40 0 -40 0 0 -40z"></path><path id="paNpl7QjN" d="M16360 2960 l0 -40 40 0 40 0 0 40 0 40 -40 0 -40 0 0 -40z"></path><path id="puGzk9pJy" d="M3080 2780 l0 -40 40 0 40 0 0 40 0 40 -40 0 -40 0 0 -40z"></path><path id="pNSVXxjsr" d="M3600 2780 l0 -40 40 0 40 0 0 40 0 40 -40 0 -40 0 0 -40z"></path><path id="ptf77Sv1g" d="M4120 2780 l0 -40 40 0 40 0 0 40 0 40 -40 0 -40 0 0 -40z"></path><path id="pmqp7soDi" d="M4280 2780 l0 -40 40 0 40 0 0 40 0 40 -40 0 -40 0 0 -40z"></path><path id="pLLdELKUL" d="M4640 2780 l0 -40 40 0 40 0 0 40 0 40 -40 0 -40 0 0 -40z"></path><path id="pXA7fKQds" d="M4800 2780 l0 -40 40 0 40 0 0 40 0 40 -40 0 -40 0 0 -40z"></path><path id="p10TEhJzyH" d="M5160 2780 l0 -40 40 0 40 0 0 40 0 40 -40 0 -40 0 0 -40z"></path><path id="p1BswIbV2G" d="M5320 2780 l0 -40 40 0 40 0 0 40 0 40 -40 0 -40 0 0 -40z"></path><path id="phOhEorZL" d="M5840 2780 l0 -40 40 0 40 0 0 40 0 40 -40 0 -40 0 0 -40z"></path><path id="p1C7GsFEt6" d="M6360 2780 l0 -40 40 0 40 0 0 40 0 40 -40 0 -40 0 0 -40z"></path><path id="pQ3UjBOkF" d="M6880 2780 l0 -40 40 0 40 0 0 40 0 40 -40 0 -40 0 0 -40z"></path><path id="puSANmPCA" d="M7040 2780 l0 -40 40 0 40 0 0 40 0 40 -40 0 -40 0 0 -40z"></path><path id="pHz4PK9DH" d="M7400 2780 l0 -40 40 0 40 0 0 40 0 40 -40 0 -40 0 0 -40z"></path><path id="ptVYAxzPL" d="M7560 2780 l0 -40 40 0 40 0 0 40 0 40 -40 0 -40 0 0 -40z"></path><path id="pIplvpkd7" d="M7920 2780 l0 -40 40 0 40 0 0 40 0 40 -40 0 -40 0 0 -40z"></path><path id="p18uc1KfkF" d="M8080 2780 l0 -40 40 0 40 0 0 40 0 40 -40 0 -40 0 0 -40z"></path><path id="pkVLMe24V" d="M8600 2780 l0 -40 40 0 40 0 0 40 0 40 -40 0 -40 0 0 -40z"></path><path id="p1BV4ClHnD" d="M9120 2780 l0 -40 40 0 40 0 0 40 0 40 -40 0 -40 0 0 -40z"></path><path id="pLVOx47u4" d="M9640 2780 l0 -40 40 0 40 0 0 40 0 40 -40 0 -40 0 0 -40z"></path><path id="pxlMk4vDP" d="M10680 2780 l0 -40 40 0 40 0 0 40 0 40 -40 0 -40 0 0 -40z"></path><path id="puBcCTRUS" d="M10840 2780 l0 -40 40 0 40 0 0 40 0 40 -40 0 -40 0 0 -40z"></path><path id="pZOLR9h1z" d="M11200 2780 l0 -40 40 0 40 0 0 40 0 40 -40 0 -40 0 0 -40z"></path><path id="p10vFVCoVB" d="M11360 2780 l0 -40 40 0 40 0 0 40 0 40 -40 0 -40 0 0 -40z"></path><path id="pC21DveZ2" d="M11880 2780 l0 -40 40 0 40 0 0 40 0 40 -40 0 -40 0 0 -40z"></path><path id="phe3YHNIZ" d="M12400 2780 l0 -40 40 0 40 0 0 40 0 40 -40 0 -40 0 0 -40z"></path><path id="pY8kwUBaN" d="M12920 2780 l0 -40 40 0 40 0 0 40 0 40 -40 0 -40 0 0 -40z"></path><path id="p18rUwlv6M" d="M13080 2780 l0 -40 40 0 40 0 0 40 0 40 -40 0 -40 0 0 -40z"></path><path id="pzY0je53s" d="M13440 2780 l0 -40 40 0 40 0 0 40 0 40 -40 0 -40 0 0 -40z"></path><path id="pxTvs9l34" d="M13600 2780 l0 -40 40 0 40 0 0 40 0 40 -40 0 -40 0 0 -40z"></path><path id="p1FglXRLUi" d="M13960 2780 l0 -40 40 0 40 0 0 40 0 40 -40 0 -40 0 0 -40z"></path><path id="p13MSW1FZJ" d="M14120 2780 l0 -40 40 0 40 0 0 40 0 40 -40 0 -40 0 0 -40z"></path><path id="peZfF3hmY" d="M14480 2780 l0 -40 40 0 40 0 0 40 0 40 -40 0 -40 0 0 -40z"></path><path id="pPJzwtrcJ" d="M14640 2780 l0 -40 40 0 40 0 0 40 0 40 -40 0 -40 0 0 -40z"></path><path id="p14qcTrxav" d="M15160 2780 l0 -40 40 0 40 0 0 40 0 40 -40 0 -40 0 0 -40z"></path><path id="ps7y2P538" d="M16200 2780 l0 -40 40 0 40 0 0 40 0 40 -40 0 -40 0 0 -40z"></path><path id="p6X80dCYf" d="M16360 2780 l0 -40 40 0 40 0 0 40 0 40 -40 0 -40 0 0 -40z"></path><path id="pi4WiQojN" d="M16720 2780 l0 -40 40 0 40 0 0 40 0 40 -40 0 -40 0 0 -40z"></path><path id="pD6SAF0yC" d="M17400 2780 l0 -40 40 0 40 0 0 40 0 40 -40 0 -40 0 0 -40z"></path><path id="pyyWenNkh" d="M19480 2780 l0 -40 40 0 40 0 0 40 0 40 -40 0 -40 0 0 -40z"></path><path id="p15oZAACLW" d="M19640 2780 l0 -40 40 0 40 0 0 40 0 40 -40 0 -40 0 0 -40z"></path><path id="pXRTjZm0W" d="M20000 2780 l0 -40 40 0 40 0 0 40 0 40 -40 0 -40 0 0 -40z"></path><path id="pE8H3KZun" d="M840 2620 l0 -40 40 0 40 0 0 40 0 40 -40 0 -40 0 0 -40z"></path><path id="p1Exz96ab1" d="M1000 2620 l0 -40 40 0 40 0 0 40 0 40 -40 0 -40 0 0 -40z"></path><path id="p19imlg6DZ" d="M2730 2625 l0 -35 55 0 55 0 0 35 0 35 -55 0 -55 0 0 -35z"></path><path id="pCMIpU1Q3" d="M2870 2625 l0 -35 65 0 65 0 0 35 0 35 -65 0 -65 0 0 -35z"></path><path id="p1ER2i2HPw" d="M3090 2625 l0 -35 55 0 55 0 0 35 0 35 -55 0 -55 0 0 -35z"></path><path id="p10Z4Xohm" d="M3230 2625 l0 -35 75 0 75 0 0 35 0 35 -75 0 -75 0 0 -35z"></path><path id="pk0M7SIye" d="M3390 2625 l0 -35 65 0 65 0 0 35 0 35 -65 0 -65 0 0 -35z"></path><path id="pxDpOdytn" d="M3610 2625 l0 -35 55 0 55 0 0 35 0 35 -55 0 -55 0 0 -35z"></path><path id="px9Zm1dpm" d="M3790 2625 c0 -35 0 -35 45 -35 45 0 45 0 45 35 0 35 0 35 -45 35 -45 0 -45 0 -45 -35z"></path><path id="pU0Y59yzA" d="M3930 2625 l0 -35 55 0 55 0 0 35 0 35 -55 0 -55 0 0 -35z"></path><path id="pURujPSMA" d="M4130 2625 l0 -35 55 0 55 0 0 35 0 35 -55 0 -55 0 0 -35z"></path><path id="pPu0tZHRX" d="M4290 2625 l0 -35 55 0 55 0 0 35 0 35 -55 0 -55 0 0 -35z"></path><path id="p13nTbghjv" d="M4430 2625 l0 -35 65 0 65 0 0 35 0 35 -65 0 -65 0 0 -35z"></path><path id="p10ZX0cyRC" d="M4650 2625 l0 -35 55 0 55 0 0 35 0 35 -55 0 -55 0 0 -35z"></path><path id="pk3NN50QL" d="M4770 2625 l0 -35 75 0 75 0 0 35 0 35 -75 0 -75 0 0 -35z"></path><path id="pho54Rqi0" d="M4950 2625 l0 -35 65 0 65 0 0 35 0 35 -65 0 -65 0 0 -35z"></path><path id="pEPyxNf0L" d="M5170 2625 l0 -35 55 0 55 0 0 35 0 35 -55 0 -55 0 0 -35z"></path><path id="pdYShnu2O" d="M5330 2625 l0 -35 55 0 55 0 0 35 0 35 -55 0 -55 0 0 -35z"></path><path id="pvrSjPNzO" d="M5470 2625 l0 -35 65 0 65 0 0 35 0 35 -65 0 -65 0 0 -35z"></path><path id="ptLfmLhWk" d="M5650 2625 l0 -35 55 0 55 0 0 35 0 35 -55 0 -55 0 0 -35z"></path><path id="pXd6bTJhA" d="M5850 2625 l0 -35 55 0 55 0 0 35 0 35 -55 0 -55 0 0 -35z"></path><path id="pBj8ne7c9" d="M5990 2625 l0 -35 65 0 65 0 0 35 0 35 -65 0 -65 0 0 -35z"></path><path id="pVf067P4d" d="M6150 2625 l0 -35 75 0 75 0 0 35 0 35 -75 0 -75 0 0 -35z"></path><path id="pFdCXmEcj" d="M6370 2625 l0 -35 55 0 55 0 0 35 0 35 -55 0 -55 0 0 -35z"></path><path id="pPHeALOg6" d="M6510 2625 l0 -35 75 0 75 0 0 35 0 35 -75 0 -75 0 0 -35z"></path><path id="piZowSD8M" d="M6690 2625 l0 -35 55 0 55 0 0 35 0 35 -55 0 -55 0 0 -35z"></path><path id="pmqvqFaze" d="M6880 2625 l0 -35 60 0 60 0 0 35 0 35 -60 0 -60 0 0 -35z"></path><path id="pZsx0JxnI" d="M7050 2625 l0 -35 55 0 55 0 0 35 0 35 -55 0 -55 0 0 -35z"></path><path id="p14Ui1Jtyr" d="M7210 2625 l0 -35 55 0 55 0 0 35 0 35 -55 0 -55 0 0 -35z"></path><path id="p1EHi5PXzm" d="M7410 2625 c0 -35 0 -35 45 -35 45 0 45 0 45 35 0 35 0 35 -45 35 -45 0 -45 0 -45 -35z"></path><path id="phAUQYcMG" d="M7570 2625 l0 -35 55 0 55 0 0 35 0 35 -55 0 -55 0 0 -35z"></path><path id="p1E8Tw6CBJ" d="M7730 2625 l0 -35 55 0 55 0 0 35 0 35 -55 0 -55 0 0 -35z"></path><path id="pfPdyLeWE" d="M7930 2625 l0 -35 55 0 55 0 0 35 0 35 -55 0 -55 0 0 -35z"></path><path id="pLH20JYq2" d="M8090 2625 l0 -35 55 0 55 0 0 35 0 35 -55 0 -55 0 0 -35z"></path><path id="pGo4JZVji" d="M8250 2625 l0 -35 55 0 55 0 0 35 0 35 -55 0 -55 0 0 -35z"></path><path id="pR20fhRoZ" d="M8430 2625 c0 -35 0 -35 45 -35 45 0 45 0 45 35 0 35 0 35 -45 35 -45 0 -45 0 -45 -35z"></path><path id="pkE8hPAjF" d="M8610 2625 c0 -35 0 -35 45 -35 45 0 45 0 45 35 0 35 0 35 -45 35 -45 0 -45 0 -45 -35z"></path><path id="pJ8tL4ZFu" d="M8750 2625 l0 -35 65 0 65 0 0 35 0 35 -65 0 -65 0 0 -35z"></path><path id="pg6vqSwuC" d="M8910 2625 l0 -35 65 0 65 0 0 35 0 35 -65 0 -65 0 0 -35z"></path><path id="pYbjaWjIY" d="M9090 2625 l0 -35 75 0 75 0 0 35 0 35 -75 0 -75 0 0 -35z"></path><path id="pC9tESMrz" d="M9290 2625 l0 -35 65 0 65 0 0 35 0 35 -65 0 -65 0 0 -35z"></path><path id="phzLZ7G9z" d="M9430 2625 l0 -35 55 0 55 0 0 35 0 35 -55 0 -55 0 0 -35z"></path><path id="p2YbAb0VX" d="M9650 2625 l0 -35 55 0 55 0 0 35 0 35 -55 0 -55 0 0 -35z"></path><path id="phZtweFf3" d="M9790 2625 l0 -35 65 0 65 0 0 35 0 35 -65 0 -65 0 0 -35z"></path><path id="p19MoKf73n" d="M9950 2625 l0 -35 65 0 65 0 0 35 0 35 -65 0 -65 0 0 -35z"></path><path id="p15irYRExG" d="M10170 2625 l0 -35 55 0 55 0 0 35 0 35 -55 0 -55 0 0 -35z"></path><path id="pHFakC6RE" d="M10330 2625 l0 -35 55 0 55 0 0 35 0 35 -55 0 -55 0 0 -35z"></path><path id="prfYfw4Op" d="M10490 2625 l0 -35 55 0 55 0 0 35 0 35 -55 0 -55 0 0 -35z"></path><path id="p5cD1d5qM" d="M10690 2625 c0 -33 2 -35 35 -35 33 0 35 2 35 35 0 33 -2 35 -35 35 -33 0 -35 -2 -35 -35z"></path><path id="pVfnVl6jn" d="M10850 2625 l0 -35 55 0 55 0 0 35 0 35 -55 0 -55 0 0 -35z"></path><path id="pzRWRMudv" d="M10990 2625 l0 -35 65 0 65 0 0 35 0 35 -65 0 -65 0 0 -35z"></path><path id="p193XNCgX8" d="M11210 2625 c0 -35 0 -35 45 -35 45 0 45 0 45 35 0 35 0 35 -45 35 -45 0 -45 0 -45 -35z"></path><path id="p1CZNulLg3" d="M11370 2625 l0 -35 55 0 55 0 0 35 0 35 -55 0 -55 0 0 -35z"></path><path id="p13fTpzonM" d="M11530 2625 l0 -35 55 0 55 0 0 35 0 35 -55 0 -55 0 0 -35z"></path><path id="pbbYbMqUc" d="M11710 2625 c0 -35 0 -35 45 -35 45 0 45 0 45 35 0 35 0 35 -45 35 -45 0 -45 0 -45 -35z"></path><path id="pljUSL8b3" d="M11890 2625 l0 -35 55 0 55 0 0 35 0 35 -55 0 -55 0 0 -35z"></path><path id="pwtL27R31" d="M12030 2625 l0 -35 65 0 65 0 0 35 0 35 -65 0 -65 0 0 -35z"></path><path id="pPaer6E8P" d="M12190 2625 l0 -35 65 0 65 0 0 35 0 35 -65 0 -65 0 0 -35z"></path><path id="pnCQhox9a" d="M12370 2625 l0 -35 75 0 75 0 0 35 0 35 -75 0 -75 0 0 -35z"></path><path id="pvKqjBwjF" d="M12550 2625 l0 -35 65 0 65 0 0 35 0 35 -65 0 -65 0 0 -35z"></path><path id="p19MYnPmse" d="M12710 2625 l0 -35 65 0 65 0 0 35 0 35 -65 0 -65 0 0 -35z"></path><path id="pn5W7M5hn" d="M12930 2625 l0 -35 55 0 55 0 0 35 0 35 -55 0 -55 0 0 -35z"></path><path id="p18OPGKjFK" d="M13090 2625 c0 -35 0 -35 45 -35 45 0 45 0 45 35 0 35 0 35 -45 35 -45 0 -45 0 -45 -35z"></path><path id="pPAxEIuaq" d="M13230 2625 l0 -35 75 0 75 0 0 35 0 35 -75 0 -75 0 0 -35z"></path><path id="ptPmV0Ld5" d="M13450 2625 l0 -35 55 0 55 0 0 35 0 35 -55 0 -55 0 0 -35z"></path><path id="pHijYtA1t" d="M13570 2625 l0 -35 75 0 75 0 0 35 0 35 -75 0 -75 0 0 -35z"></path><path id="pLJGO6rl9" d="M13750 2625 l0 -35 65 0 65 0 0 35 0 35 -65 0 -65 0 0 -35z"></path><path id="puPgbaIsy" d="M13970 2625 l0 -35 55 0 55 0 0 35 0 35 -55 0 -55 0 0 -35z"></path><path id="pmdq2CbxT" d="M14130 2625 l0 -35 55 0 55 0 0 35 0 35 -55 0 -55 0 0 -35z"></path><path id="pDUAVctzo" d="M14270 2625 l0 -35 65 0 65 0 0 35 0 35 -65 0 -65 0 0 -35z"></path><path id="piDDoYA2Q" d="M14490 2625 l0 -35 55 0 55 0 0 35 0 35 -55 0 -55 0 0 -35z"></path><path id="pelZukZbh" d="M14640 2625 l0 -35 60 0 60 0 0 35 0 35 -60 0 -60 0 0 -35z"></path><path id="p1C6Z30tGb" d="M14810 2625 l0 -35 55 0 55 0 0 35 0 35 -55 0 -55 0 0 -35z"></path><path id="plSaC8KsV" d="M14990 2625 c0 -35 0 -35 45 -35 45 0 45 0 45 35 0 35 0 35 -45 35 -45 0 -45 0 -45 -35z"></path><path id="pl5agHU6k" d="M15170 2625 l0 -35 55 0 55 0 0 35 0 35 -55 0 -55 0 0 -35z"></path><path id="p6UEPu93O" d="M15310 2625 l0 -35 65 0 65 0 0 35 0 35 -65 0 -65 0 0 -35z"></path><path id="pGfHUkcm0" d="M15470 2625 l0 -35 75 0 75 0 0 35 0 35 -75 0 -75 0 0 -35z"></path><path id="p15B6yxMOE" d="M15650 2625 l0 -35 75 0 75 0 0 35 0 35 -75 0 -75 0 0 -35z"></path><path id="pUJl0gtTg" d="M15830 2625 l0 -35 65 0 65 0 0 35 0 35 -65 0 -65 0 0 -35z"></path><path id="pzURYmAw0" d="M15990 2625 l0 -35 65 0 65 0 0 35 0 35 -65 0 -65 0 0 -35z"></path><path id="pedmPbb1H" d="M16210 2625 l0 -35 55 0 55 0 0 35 0 35 -55 0 -55 0 0 -35z"></path><path id="pvoQ6XAOC" d="M16370 2625 c0 -35 0 -35 45 -35 45 0 45 0 45 35 0 35 0 35 -45 35 -45 0 -45 0 -45 -35z"></path><path id="pDchYFykE" d="M16530 2625 l0 -35 55 0 55 0 0 35 0 35 -55 0 -55 0 0 -35z"></path><path id="p7ZizK0n9" d="M16730 2625 l0 -35 55 0 55 0 0 35 0 35 -55 0 -55 0 0 -35z"></path><path id="p1BwzSqgnw" d="M16850 2625 l0 -35 75 0 75 0 0 35 0 35 -75 0 -75 0 0 -35z"></path><path id="pmZyRYdi3" d="M17030 2625 l0 -35 65 0 65 0 0 35 0 35 -65 0 -65 0 0 -35z"></path><path id="pHSqaP7vy" d="M17250 2625 l0 -35 55 0 55 0 0 35 0 35 -55 0 -55 0 0 -35z"></path><path id="psDCWvFAc" d="M17410 2625 l0 -35 55 0 55 0 0 35 0 35 -55 0 -55 0 0 -35z"></path><path id="pqzVSX9vS" d="M17550 2625 l0 -35 85 0 85 0 0 35 0 35 -85 0 -85 0 0 -35z"></path><path id="pRUbvsf6e" d="M19480 2620 l0 -40 40 0 40 0 0 40 0 40 -40 0 -40 0 0 -40z"></path><path id="pqGFEcOrM" d="M19640 2620 l0 -40 40 0 40 0 0 40 0 40 -40 0 -40 0 0 -40z"></path><path id="pl4UI8dl1" d="M20000 2620 l0 -40 40 0 40 0 0 40 0 40 -40 0 -40 0 0 -40z"></path><path id="p1H8nNIMVQ" d="M1000 2280 l0 -40 40 0 40 0 0 40 0 40 -40 0 -40 0 0 -40z"></path><path id="pMCzXq5xt" d="M840 2100 l0 -40 40 0 40 0 0 40 0 40 -40 0 -40 0 0 -40z"></path><path id="p1BaJh7hug" d="M1000 2100 l0 -40 40 0 40 0 0 40 0 40 -40 0 -40 0 0 -40z"></path><path id="ph7XnMf07" d="M19480 2100 l0 -40 40 0 40 0 0 40 0 40 -40 0 -40 0 0 -40z"></path><path id="pG3swGvrz" d="M19640 2100 l0 -40 40 0 40 0 0 40 0 40 -40 0 -40 0 0 -40z"></path><path id="p15niBN1tL" d="M19480 1920 l0 -40 40 0 40 0 0 40 0 40 -40 0 -40 0 0 -40z"></path><path id="pZEYmGbxo" d="M1210 1820 c0 -11 -4 -20 -10 -20 -5 0 -10 -16 -10 -35 0 -28 4 -35 20 -35 13 0 20 -7 20 -20 0 -16 7 -20 36 -20 l37 0 -7 61 c-10 84 -13 89 -52 89 -27 0 -34 -4 -34 -20z"></path><path id="ptIWOnF3j" d="M1000 1760 l0 -40 40 0 40 0 0 40 0 40 -40 0 -40 0 0 -40z"></path><path id="pMiZAz7Z6" d="M840 1580 l0 -40 40 0 40 0 0 40 0 40 -40 0 -40 0 0 -40z"></path><path id="p166IRASab" d="M1000 1580 l0 -40 40 0 40 0 0 40 0 40 -40 0 -40 0 0 -40z"></path><path id="p1Cb5ZghVz" d="M19120 1580 l0 -40 40 0 40 0 0 40 0 40 -40 0 -40 0 0 -40z"></path><path id="pevcoshU3" d="M19480 1580 l0 -40 40 0 40 0 0 40 0 40 -40 0 -40 0 0 -40z"></path><path id="pwnVzCj6V" d="M20000 1580 l0 -40 40 0 40 0 0 40 0 40 -40 0 -40 0 0 -40z"></path><path id="p14v24BqgM" d="M19006 1554 c-3 -9 -6 -29 -6 -45 0 -24 -4 -29 -26 -29 -34 0 -54 -22 -54 -59 0 -24 4 -31 20 -31 11 0 20 -7 20 -15 0 -11 11 -15 40 -15 l40 0 0 40 c0 29 -4 40 -15 40 -8 0 -15 9 -15 20 0 15 7 20 29 20 31 0 41 14 41 61 0 26 -3 29 -34 29 -22 0 -36 -6 -40 -16z"></path><path id="pdWaWmok4" d="M1670 1285 c0 -24 5 -35 15 -35 8 0 15 -9 15 -20 0 -16 7 -20 33 -20 64 0 77 9 77 50 0 36 -2 38 -44 49 -25 6 -56 11 -70 11 -23 0 -26 -4 -26 -35z"></path><path id="p1HenTzMRp" d="M18600 1269 c0 -39 20 -59 59 -59 30 0 31 1 31 45 l0 45 -45 0 c-44 0 -45 -1 -45 -31z"></path><path id="pBJ9mmSIX" d="M1900 1254 c0 -24 5 -34 15 -34 8 0 15 -4 15 -10 0 -6 32 -10 75 -10 43 0 75 4 75 10 0 6 9 10 20 10 16 0 20 7 20 34 l0 33 -110 0 -110 0 0 -33z"></path><path id="puQxA8ozl" d="M2240 1261 c0 -49 9 -61 46 -61 19 0 34 5 34 10 0 6 9 10 20 10 16 0 20 7 20 35 l0 35 -60 0 c-60 0 -60 0 -60 -29z"></path><path id="pNJPiowcy" d="M3260 1255 c0 -24 5 -35 15 -35 8 0 15 -4 15 -10 0 -5 16 -10 35 -10 19 0 35 5 35 10 0 6 9 10 20 10 16 0 20 7 20 35 l0 35 -70 0 -70 0 0 -35z"></path><path id="p1994PGfuO" d="M3468 1283 c-13 -3 -18 -15 -18 -44 0 -38 1 -39 35 -39 19 0 35 5 35 10 0 6 9 10 20 10 16 0 20 7 20 35 0 34 -1 35 -37 34 -21 -1 -46 -3 -55 -6z"></path><path id="p76ufouV6" d="M6588 1283 c-13 -3 -18 -15 -18 -44 0 -38 1 -39 35 -39 19 0 35 5 35 10 0 6 9 10 20 10 16 0 20 7 20 35 0 34 -1 35 -37 34 -21 -1 -46 -3 -55 -6z"></path><path id="pVEgoChs" d="M8940 1255 c0 -24 5 -35 15 -35 8 0 15 -4 15 -10 0 -5 16 -10 35 -10 19 0 35 5 35 10 0 6 9 10 20 10 16 0 20 7 20 35 l0 35 -70 0 -70 0 0 -35z"></path><path id="pdMpsNKlU" d="M9503 1283 c-8 -2 -13 -22 -13 -44 0 -38 1 -39 35 -39 19 0 35 5 35 10 0 6 9 10 20 10 16 0 20 7 20 35 0 35 0 35 -42 34 -24 0 -49 -3 -55 -6z"></path><path id="pGWNm5x7V" d="M9820 1255 c0 -24 5 -35 15 -35 8 0 15 -4 15 -10 0 -5 16 -10 35 -10 19 0 35 5 35 10 0 6 9 10 20 10 16 0 20 7 20 35 l0 35 -70 0 -70 0 0 -35z"></path><path id="pFV6F6l2B" d="M18333 1283 c-43 -4 -43 -4 -43 -44 l0 -39 91 0 c101 0 119 9 119 59 l0 31 -62 -2 c-35 -1 -82 -3 -105 -5z"></path><path id="p15msxg5Oc" d="M1000 1060 l0 -40 40 0 40 0 0 40 0 40 -40 0 -40 0 0 -40z"></path><path id="pSL8576i" d="M1880 1060 l0 -40 40 0 40 0 0 40 0 40 -40 0 -40 0 0 -40z"></path><path id="pF6vYMDe3" d="M2040 1060 l0 -40 40 0 40 0 0 40 0 40 -40 0 -40 0 0 -40z"></path><path id="pcgkCdPHH" d="M3600 1060 l0 -40 40 0 40 0 0 40 0 40 -40 0 -40 0 0 -40z"></path><path id="pDcvkrYl5" d="M4120 1060 l0 -40 40 0 40 0 0 40 0 40 -40 0 -40 0 0 -40z"></path><path id="p19irkeOy8" d="M5320 1060 l0 -40 40 0 40 0 0 40 0 40 -40 0 -40 0 0 -40z"></path><path id="pMxearQCr" d="M7400 1060 l0 -40 40 0 40 0 0 40 0 40 -40 0 -40 0 0 -40z"></path><path id="plUV1qvFn" d="M8600 1060 l0 -40 40 0 40 0 0 40 0 40 -40 0 -40 0 0 -40z"></path><path id="pV73i6Dqf" d="M10680 1060 l0 -40 40 0 40 0 0 40 0 40 -40 0 -40 0 0 -40z"></path><path id="p1BVe7BvYa" d="M11360 1060 l0 -40 40 0 40 0 0 40 0 40 -40 0 -40 0 0 -40z"></path><path id="pDNVxAwxt" d="M13080 1060 l0 -40 40 0 40 0 0 40 0 40 -40 0 -40 0 0 -40z"></path><path id="piBv1UlKA" d="M14120 1060 l0 -40 40 0 40 0 0 40 0 40 -40 0 -40 0 0 -40z"></path><path id="pRmY87ar2" d="M16200 1060 l0 -40 40 0 40 0 0 40 0 40 -40 0 -40 0 0 -40z"></path><path id="pdfUbMibi" d="M16360 1060 l0 -40 40 0 40 0 0 40 0 40 -40 0 -40 0 0 -40z"></path><path id="pVJ6DlkxR" d="M17400 1060 l0 -40 40 0 40 0 0 40 0 40 -40 0 -40 0 0 -40z"></path><path id="pVEffqzGQ" d="M19120 1060 l0 -40 40 0 40 0 0 40 0 40 -40 0 -40 0 0 -40z"></path><path id="pCPzKlmcs" d="M3600 900 l0 -40 40 0 40 0 0 40 0 40 -40 0 -40 0 0 -40z"></path><path id="p1Dm9XkaYV" d="M9640 900 l0 -40 40 0 40 0 0 40 0 40 -40 0 -40 0 0 -40z"></path><path id="p1Ef2rCteK" d="M10680 900 l0 -40 40 0 40 0 0 40 0 40 -40 0 -40 0 0 -40z"></path><path id="p1kMTOt2x" d="M11880 900 l0 -40 40 0 40 0 0 40 0 40 -40 0 -40 0 0 -40z"></path><path id="pjLxL0VVZ" d="M12920 900 l0 -40 40 0 40 0 0 40 0 40 -40 0 -40 0 0 -40z"></path><path id="prukr9ZgF" d="M14640 900 l0 -40 40 0 40 0 0 40 0 40 -40 0 -40 0 0 -40z"></path><path id="pbkQycIof" d="M17400 900 l0 -40 40 0 40 0 0 40 0 40 -40 0 -40 0 0 -40z"></path><path id="p6D1QCNJ2" d="M20000 900 l0 -40 40 0 40 0 0 40 0 40 -40 0 -40 0 0 -40z"></path><path id="p07hjvWih" d="M5500 885 l0 -45 40 0 40 0 0 45 0 45 -40 0 -40 0 0 -45z"></path><path id="pUzns3wHH" d="M11540 890 l0 -40 40 0 40 0 0 40 0 40 -40 0 -40 0 0 -40z"></path><path id="p1389WoLjv" d="M12220 885 l0 -45 40 0 40 0 0 45 0 45 -40 0 -40 0 0 -45z"></path><path id="pDS8Ksz3c" d="M12740 889 l0 -40 43 3 c41 3 42 4 45 41 l3 37 -45 0 -46 0 0 -41z"></path><path id="p1GxBW1o0e" d="M17060 890 l0 -40 40 0 40 0 0 40 0 40 -40 0 -40 0 0 -40z"></path><path id="psVn0ZAZy" d="M18260 890 l0 -40 40 0 40 0 0 40 0 40 -40 0 -40 0 0 -40z"></path><path id="pfrzM55v7" d="M8600 880 l0 -40 40 0 40 0 0 40 0 40 -40 0 -40 0 0 -40z"></path><path id="pcSIn9dnG" d="M840 540 l0 -40 40 0 40 0 0 40 0 40 -40 0 -40 0 0 -40z"></path><path id="pmvfKAtji" d="M1000 540 l0 -40 40 0 40 0 0 40 0 40 -40 0 -40 0 0 -40z"></path><path id="p125HbegEd" d="M1880 540 l0 -40 40 0 40 0 0 40 0 40 -40 0 -40 0 0 -40z"></path><path id="p12gPtukts" d="M3080 540 l0 -40 40 0 40 0 0 40 0 40 -40 0 -40 0 0 -40z"></path><path id="pY8RrW7Ut" d="M4280 540 l0 -40 40 0 40 0 0 40 0 40 -40 0 -40 0 0 -40z"></path><path id="pBGDxluQo" d="M4800 540 l0 -40 40 0 40 0 0 40 0 40 -40 0 -40 0 0 -40z"></path><path id="pbTyPO9X2" d="M6360 540 l0 -40 40 0 40 0 0 40 0 40 -40 0 -40 0 0 -40z"></path><path id="prMbFFWaW" d="M7400 540 l0 -40 40 0 40 0 0 40 0 40 -40 0 -40 0 0 -40z"></path><path id="pubOYxVgn" d="M7560 540 l0 -40 40 0 40 0 0 40 0 40 -40 0 -40 0 0 -40z"></path><path id="p2RxQShZV" d="M8600 540 l0 -40 40 0 40 0 0 40 0 40 -40 0 -40 0 0 -40z"></path><path id="p3MWKG4OF" d="M9640 540 l0 -40 40 0 40 0 0 40 0 40 -40 0 -40 0 0 -40z"></path><path id="p16hlVA5m1" d="M10840 540 l0 -40 40 0 40 0 0 40 0 40 -40 0 -40 0 0 -40z"></path><path id="p5134B3je" d="M11880 540 l0 -40 40 0 40 0 0 40 0 40 -40 0 -40 0 0 -40z"></path><path id="pbs6Tmtf6" d="M12400 540 l0 -40 40 0 40 0 0 40 0 40 -40 0 -40 0 0 -40z"></path><path id="pEtQiizUZ" d="M12920 540 l0 -40 40 0 40 0 0 40 0 40 -40 0 -40 0 0 -40z"></path><path id="pErIaz1g4" d="M14120 540 l0 -40 40 0 40 0 0 40 0 40 -40 0 -40 0 0 -40z"></path><path id="ps1OzwQUa" d="M15160 540 l0 -40 40 0 40 0 0 40 0 40 -40 0 -40 0 0 -40z"></path><path id="pevxUBhML" d="M16200 540 l0 -40 40 0 40 0 0 40 0 40 -40 0 -40 0 0 -40z"></path><path id="peRlNLCNj" d="M16360 540 l0 -40 40 0 40 0 0 40 0 40 -40 0 -40 0 0 -40z"></path><path id="p19LZC01ON" d="M17400 540 l0 -40 40 0 40 0 0 40 0 40 -40 0 -40 0 0 -40z"></path><path id="p14TuIgPfe" d="M18440 540 l0 -40 40 0 40 0 0 40 0 40 -40 0 -40 0 0 -40z"></path><path id="pzj9WFXCK" d="M19120 540 l0 -40 40 0 40 0 0 40 0 40 -40 0 -40 0 0 -40z"></path><path id="p1bJDMzlL" d="M19480 540 l0 -40 40 0 40 0 0 40 0 40 -40 0 -40 0 0 -40z"></path><path id="p9mHX7f4f" d="M20000 540 l0 -40 40 0 40 0 0 40 0 40 -40 0 -40 0 0 -40z"></path><path id="psFJGE5uw" d="M2040 380 l0 -40 40 0 40 0 0 40 0 40 -40 0 -40 0 0 -40z"></path><path id="p565d74jP" d="M8080 380 l0 -40 40 0 40 0 0 40 0 40 -40 0 -40 0 0 -40z"></path><path id="p1BYQAEeuE" d="M8600 380 l0 -40 40 0 40 0 0 40 0 40 -40 0 -40 0 0 -40z"></path><path id="plVyxlGb3" d="M9640 380 l0 -40 40 0 40 0 0 40 0 40 -40 0 -40 0 0 -40z"></path><path id="pLAxql7YP" d="M14120 380 l0 -40 40 0 40 0 0 40 0 40 -40 0 -40 0 0 -40z"></path><path id="pHDnup0Rl" d="M14640 380 l0 -40 40 0 40 0 0 40 0 40 -40 0 -40 0 0 -40z"></path><path id="prVqQ7h57" d="M15160 380 l0 -40 40 0 40 0 0 40 0 40 -40 0 -40 0 0 -40z"></path><path id="pu7VbkbRw" d="M16360 380 l0 -40 40 0 40 0 0 40 0 40 -40 0 -40 0 0 -40z"></path><path id="p1CboRRTid" d="M17240 380 l0 -40 40 0 40 0 0 40 0 40 -40 0 -40 0 0 -40z"></path><path id="pt2JpXKbE" d="M17400 380 l0 -40 40 0 40 0 0 40 0 40 -40 0 -40 0 0 -40z"></path><path id="pZsouV5EP" d="M18440 380 l0 -40 40 0 40 0 0 40 0 40 -40 0 -40 0 0 -40z"></path><path id="p12DH8YJM0" d="M19120 380 l0 -40 40 0 40 0 0 40 0 40 -40 0 -40 0 0 -40z"></path><path id="p7aV5Va10" d="M19640 380 l0 -40 40 0 40 0 0 40 0 40 -40 0 -40 0 0 -40z"></path><path id="pC4yaHbKl" d="M20000 380 l0 -40 40 0 40 0 0 40 0 40 -40 0 -40 0 0 -40z"></path></g></g><g id="l2UEsESgCYBWbUSrP4uuMWl" fill="rgb(109,106,105)" style="transform: none;"><g><path id="p1B9vK4bMx" d="M0 6730 l0 -6730 10110 0 10110 0 0 6730 0 6730 -10110 0 -10110 0 0 -6730z m2270 6235 c0 -8 -4 -15 -10 -15 -5 0 -10 7 -10 15 0 8 5 15 10 15 6 0 10 -7 10 -15z m16373 -741 c117 -37 142 -51 231 -118 43 -34 87 -67 97 -75 11 -7 19 -19 19 -26 0 -7 7 -18 15 -25 40 -33 105 -180 127 -285 11 -58 15 -9751 3 -9836 -14 -100 -91 -273 -148 -331 -12 -13 -31 -36 -42 -51 -11 -15 -23 -27 -27 -27 -4 0 -29 -16 -55 -37 -54 -41 -181 -103 -212 -103 -10 0 -21 -5 -23 -10 -2 -6 -55 -11 -131 -13 -100 -2 -130 -6 -137 -17 -8 -13 -10 -12 -10 3 0 16 -393 17 -8251 17 -7487 0 -8256 1 -8312 16 -237 60 -417 231 -493 469 -19 59 -19 159 -19 4995 l0 4935 28 75 c59 157 171 296 301 374 58 35 184 81 241 89 17 2 3784 5 8373 6 l8343 1 82 -26z m534 -1156 c-2 -13 -4 -5 -4 17 -1 22 1 32 4 23 2 -10 2 -28 0 -40z m0 -330 c-2 -29 -3 -8 -3 47 0 55 1 79 3 53 2 -26 2 -71 0 -100z m0 -180 c-2 -18 -4 -6 -4 27 0 33 2 48 4 33 2 -15 2 -42 0 -60z m0 -235 c-2 -21 -4 -4 -4 37 0 41 2 58 4 38 2 -21 2 -55 0 -75z m0 -130 c-2 -16 -4 -3 -4 27 0 30 2 43 4 28 2 -16 2 -40 0 -55z m0 -145 c-2 -24 -4 -7 -4 37 0 44 2 63 4 43 2 -21 2 -57 0 -80z m0 -240 c-2 -24 -4 -7 -4 37 0 44 2 63 4 43 2 -21 2 -57 0 -80z m0 -410 c-2 -18 -4 -6 -4 27 0 33 2 48 4 33 2 -15 2 -42 0 -60z m0 -210 c-2 -35 -3 -9 -3 57 0 66 1 94 3 63 2 -32 2 -86 0 -120z m0 -200 c-2 -13 -4 -5 -4 17 -1 22 1 32 4 23 2 -10 2 -28 0 -40z m0 -160 c-2 -13 -4 -5 -4 17 -1 22 1 32 4 23 2 -10 2 -28 0 -40z m0 -350 c-2 -18 -4 -6 -4 27 0 33 2 48 4 33 2 -15 2 -42 0 -60z m0 -170 c-2 -13 -4 -5 -4 17 -1 22 1 32 4 23 2 -10 2 -28 0 -40z m0 -110 c-2 -18 -4 -6 -4 27 0 33 2 48 4 33 2 -15 2 -42 0 -60z m0 -90 c-2 -13 -4 -5 -4 17 -1 22 1 32 4 23 2 -10 2 -28 0 -40z m0 -145 c-2 -21 -4 -4 -4 37 0 41 2 58 4 38 2 -21 2 -55 0 -75z m0 -95 c-2 -13 -4 -5 -4 17 -1 22 1 32 4 23 2 -10 2 -28 0 -40z m0 -110 c-2 -18 -4 -6 -4 27 0 33 2 48 4 33 2 -15 2 -42 0 -60z m0 -250 c-2 -13 -4 -5 -4 17 -1 22 1 32 4 23 2 -10 2 -28 0 -40z m0 -85 c-3 -10 -5 -2 -5 17 0 19 2 27 5 18 2 -10 2 -26 0 -35z m0 -145 c-2 -18 -4 -6 -4 27 0 33 2 48 4 33 2 -15 2 -42 0 -60z m0 -330 c-2 -35 -3 -9 -3 57 0 66 1 94 3 63 2 -32 2 -86 0 -120z m0 -180 c-2 -24 -4 -7 -4 37 0 44 2 63 4 43 2 -21 2 -57 0 -80z m0 -245 c-2 -21 -4 -4 -4 37 0 41 2 58 4 38 2 -21 2 -55 0 -75z m0 -205 c-2 -18 -4 -6 -4 27 0 33 2 48 4 33 2 -15 2 -42 0 -60z m0 -95 c-3 -10 -5 -2 -5 17 0 19 2 27 5 18 2 -10 2 -26 0 -35z m0 -185 c-2 -18 -4 -6 -4 27 0 33 2 48 4 33 2 -15 2 -42 0 -60z m0 -200 c-2 -18 -4 -6 -4 27 0 33 2 48 4 33 2 -15 2 -42 0 -60z m0 -250 c-2 -35 -3 -9 -3 57 0 66 1 94 3 63 2 -32 2 -86 0 -120z m0 -120 c-2 -13 -4 -5 -4 17 -1 22 1 32 4 23 2 -10 2 -28 0 -40z m0 -280 c-2 -13 -4 -5 -4 17 -1 22 1 32 4 23 2 -10 2 -28 0 -40z m0 -80 c-2 -13 -4 -5 -4 17 -1 22 1 32 4 23 2 -10 2 -28 0 -40z m0 -80 c-2 -13 -4 -5 -4 17 -1 22 1 32 4 23 2 -10 2 -28 0 -40z m0 -160 c-2 -13 -4 -5 -4 17 -1 22 1 32 4 23 2 -10 2 -28 0 -40z m0 -125 c-3 -10 -5 -2 -5 17 0 19 2 27 5 18 2 -10 2 -26 0 -35z m0 -80 c-3 -10 -5 -2 -5 17 0 19 2 27 5 18 2 -10 2 -26 0 -35z m0 -75 c-2 -13 -4 -5 -4 17 -1 22 1 32 4 23 2 -10 2 -28 0 -40z m0 -110 c-2 -18 -4 -6 -4 27 0 33 2 48 4 33 2 -15 2 -42 0 -60z m0 -240 c-2 -18 -4 -6 -4 27 0 33 2 48 4 33 2 -15 2 -42 0 -60z m0 -95 c-3 -10 -5 -2 -5 17 0 19 2 27 5 18 2 -10 2 -26 0 -35z m0 -145 c-2 -18 -4 -6 -4 27 0 33 2 48 4 33 2 -15 2 -42 0 -60z m0 -235 c-2 -21 -4 -4 -4 37 0 41 2 58 4 38 2 -21 2 -55 0 -75z m0 -285 c-2 -18 -4 -6 -4 27 0 33 2 48 4 33 2 -15 2 -42 0 -60z m0 -235 c-2 -21 -4 -4 -4 37 0 41 2 58 4 38 2 -21 2 -55 0 -75z m0 -205 c-2 -18 -4 -6 -4 27 0 33 2 48 4 33 2 -15 2 -42 0 -60z m0 -95 c-3 -10 -5 -2 -5 17 0 19 2 27 5 18 2 -10 2 -26 0 -35z m0 -185 c-2 -18 -4 -6 -4 27 0 33 2 48 4 33 2 -15 2 -42 0 -60z m0 -250 c-2 -13 -4 -5 -4 17 -1 22 1 32 4 23 2 -10 2 -28 0 -40z m0 -80 c-2 -13 -4 -5 -4 17 -1 22 1 32 4 23 2 -10 2 -28 0 -40z m-17397 -1168 c0 -8 -41 -22 -47 -16 -2 2 -1 10 2 18 6 16 45 14 45 -2z m270 -20 c0 -5 -20 -10 -45 -10 -25 0 -45 5 -45 10 0 6 20 10 45 10 25 0 45 -4 45 -10z m16340 0 c0 -5 -16 -10 -35 -10 -19 0 -35 5 -35 10 0 6 16 10 35 10 19 0 35 -4 35 -10z m-12840 -355 c0 -8 -4 -15 -10 -15 -5 0 -10 7 -10 15 0 8 5 15 10 15 6 0 10 -7 10 -15z m6720 0 c0 -8 -4 -15 -10 -15 -5 0 -10 7 -10 15 0 8 5 15 10 15 6 0 10 -7 10 -15z"></path><path id="pkWapjsIw" d="M2572 6768 l3 -4183 45 1 c193 5 15121 3 15164 -2 l56 -7 0 4187 0 4186 -7635 0 -7635 0 2 -4182z m7293 3102 c-1 -199 3 -348 9 -351 5 -4 4 -20 -3 -39 -6 -18 -11 -37 -11 -41 0 -18 23 -8 46 18 20 23 21 29 9 36 -19 10 -19 27 0 27 8 0 15 -4 15 -10 0 -5 6 -10 14 -10 8 0 16 -7 19 -14 4 -9 1 -13 -6 -10 -16 6 -102 -86 -89 -95 7 -4 7 -22 2 -51 -13 -63 -12 -63 11 -57 21 6 21 5 -2 -19 -18 -19 -20 -27 -11 -33 10 -6 10 -18 3 -52 -6 -24 -11 -47 -11 -51 0 -13 18 -9 35 9 14 13 18 14 25 3 7 -11 11 -10 25 3 9 9 13 22 9 28 -4 8 -3 9 4 5 15 -9 85 61 76 76 -4 7 -3 8 4 4 14 -9 85 60 77 74 -3 6 1 7 9 4 9 -3 16 -2 16 4 0 5 7 13 16 16 23 9 9 -10 -63 -84 -34 -36 -70 -75 -78 -87 -9 -13 -20 -23 -25 -23 -11 0 -60 -48 -60 -58 0 -4 -14 -15 -30 -24 -22 -13 -30 -25 -30 -45 0 -15 -3 -39 -7 -52 -5 -21 -3 -23 16 -18 19 5 21 3 9 -11 -7 -9 -17 -21 -23 -25 -7 -6 -6 -10 1 -13 6 -3 8 -25 4 -60 -6 -51 -5 -55 12 -50 16 4 17 2 7 -10 -6 -8 -9 -17 -6 -20 10 -10 78 65 71 78 -4 7 -3 8 5 4 15 -9 44 20 35 35 -4 8 -3 9 5 5 15 -9 44 20 35 35 -4 8 -3 9 4 5 15 -9 85 61 76 76 -4 7 -3 8 4 4 15 -9 85 61 76 76 -4 7 -3 8 5 4 15 -9 44 20 35 35 -4 8 -3 9 5 5 15 -9 44 20 35 35 -4 8 -3 9 4 5 15 -9 85 61 76 76 -4 7 -3 8 4 4 15 -9 85 61 76 76 -5 7 -3 8 6 3 7 -4 16 -2 21 6 4 7 11 10 15 6 4 -4 -21 -35 -55 -68 -35 -35 -60 -68 -57 -75 6 -16 -10 -29 -18 -15 -7 10 -90 -68 -99 -94 -4 -8 -11 -15 -16 -15 -13 0 -56 -43 -64 -64 -4 -9 -13 -16 -21 -16 -8 0 -18 -9 -21 -20 -3 -11 -10 -20 -15 -20 -12 0 -100 -89 -100 -101 0 -5 -7 -12 -16 -16 -28 -11 -114 -106 -120 -132 -3 -14 -7 -36 -10 -48 -5 -26 3 -28 30 -8 15 11 22 12 27 3 5 -8 12 -7 24 5 9 9 13 22 9 28 -4 8 -3 9 4 5 15 -9 85 61 76 76 -4 7 -3 8 4 4 15 -9 85 61 76 76 -4 7 -3 8 5 4 15 -9 44 20 35 35 -4 8 -3 9 5 5 15 -9 44 20 35 35 -4 8 -3 9 5 5 15 -9 44 20 35 35 -4 8 -3 9 4 5 15 -9 125 101 116 116 -4 7 -3 8 4 4 15 -9 125 101 116 116 -4 7 -3 8 5 4 13 -9 45 20 37 33 -3 5 2 7 12 4 16 -4 19 3 21 51 l2 55 -32 3 c-31 3 -32 4 -15 20 9 10 15 22 11 28 -4 6 1 7 11 3 14 -5 16 -3 11 11 -4 11 -3 15 4 10 7 -4 10 15 9 57 -1 35 -1 216 -1 402 l1 337 3455 0 3455 0 0 -3455 -1 -3455 -3447 0 c-2350 0 -3448 -3 -3450 -10 -2 -5 -10 -10 -18 -10 -12 0 -12 4 -4 20 7 13 10 154 9 412 -1 216 -4 383 -6 371 -3 -15 -12 -23 -24 -23 -21 0 -26 15 -8 25 6 4 8 13 5 21 -3 9 0 11 11 7 13 -5 15 -2 10 11 -4 9 -3 15 2 12 13 -8 13 121 0 145 -8 15 -8 19 0 15 7 -5 11 9 11 43 0 59 -13 65 -57 26 -15 -14 -40 -36 -55 -50 -16 -14 -28 -29 -28 -35 0 -5 -4 -10 -9 -10 -11 0 -111 -99 -111 -110 0 -5 -9 -12 -20 -15 -11 -3 -20 -13 -20 -21 0 -8 -7 -17 -16 -21 -20 -8 -64 -51 -64 -63 0 -6 -4 -10 -10 -10 -21 0 -9 22 36 64 29 28 43 49 38 57 -4 8 -3 10 5 5 15 -9 44 20 35 35 -4 8 -3 9 4 5 15 -9 85 61 76 76 -4 7 -3 8 5 4 15 -9 44 20 35 35 -4 8 -3 9 5 5 15 -9 44 20 35 35 -4 8 -3 9 5 5 15 -9 44 20 35 35 -4 8 -3 9 5 5 13 -8 45 20 37 33 -3 5 2 8 12 7 16 -1 17 21 20 302 2 299 2 303 -17 292 -18 -9 -20 -7 -18 20 2 35 1 34 21 14 15 -14 16 -8 16 63 0 43 -4 73 -8 67 -10 -15 -42 -25 -42 -13 0 6 -6 5 -14 -3 -7 -7 -29 -26 -49 -41 -24 -19 -34 -34 -30 -45 3 -11 2 -13 -4 -5 -7 9 -14 9 -33 -2 -54 -31 -78 -37 -143 -41 -38 -1 -76 -9 -85 -16 -13 -11 -15 -10 -9 5 4 10 2 17 -6 17 -8 0 -40 14 -73 30 -62 32 -123 91 -149 147 -18 38 -30 44 -22 11 4 -12 2 -27 -2 -32 -5 -6 -11 -33 -15 -60 -6 -46 -5 -48 17 -43 l22 6 -22 -19 c-23 -18 -31 -40 -15 -40 4 0 13 5 20 12 7 7 12 9 12 6 0 -4 -6 -13 -13 -20 -8 -7 -16 -34 -20 -59 -6 -45 -5 -47 21 -52 15 -3 29 -1 30 4 2 5 8 9 13 9 6 0 5 -9 -1 -21 -9 -16 -14 -18 -26 -8 -8 6 -18 8 -22 4 -4 -4 -1 -10 5 -12 10 -4 10 -10 -1 -31 -7 -15 -16 -44 -20 -66 -7 -36 -6 -38 14 -33 18 5 19 3 8 -10 -9 -12 -10 -17 -2 -20 9 -3 9 -11 -1 -31 -20 -42 -28 -102 -14 -102 6 0 18 8 25 18 11 14 15 15 23 3 8 -12 12 -12 26 2 9 9 13 22 9 28 -4 8 -3 9 5 5 15 -9 44 20 35 35 -4 8 -3 9 5 5 7 -5 24 5 41 24 17 18 30 27 30 21 0 -7 -11 -24 -25 -39 -14 -15 -25 -34 -25 -42 0 -9 -8 -16 -19 -17 -18 -2 -71 -47 -71 -61 0 -4 -14 -15 -30 -24 -23 -13 -30 -24 -30 -47 0 -16 -3 -36 -6 -45 -4 -12 0 -16 15 -16 27 0 27 -8 -1 -33 -13 -11 -18 -21 -12 -24 6 -2 8 -24 4 -59 -6 -50 -4 -55 11 -51 10 3 20 0 22 -6 2 -7 16 1 31 16 15 15 24 32 20 39 -4 7 -3 8 5 4 15 -9 44 20 35 35 -4 8 -3 9 5 5 15 -9 44 20 35 35 -4 8 -3 9 5 5 15 -9 44 20 35 35 -4 8 -3 9 5 5 15 -9 44 20 35 35 -4 8 -3 9 5 5 15 -9 44 20 35 35 -4 8 -3 9 5 5 15 -9 44 20 35 35 -4 8 -3 9 5 5 15 -9 44 20 35 35 -4 8 -3 9 5 5 15 -9 44 20 35 35 -4 8 -3 9 5 5 7 -4 28 10 52 35 22 23 42 39 45 36 6 -6 -18 -47 -28 -47 -10 0 -108 -101 -108 -111 0 -5 -4 -9 -10 -9 -12 0 -60 -48 -60 -60 0 -5 -9 -12 -20 -15 -11 -3 -20 -13 -20 -21 0 -8 -7 -17 -16 -21 -15 -6 -64 -50 -64 -57 0 -6 -58 -66 -64 -66 -9 0 -56 -50 -56 -60 0 -6 -2 -10 -4 -10 -2 0 -12 -3 -20 -6 -12 -5 -15 -2 -10 10 8 21 -10 21 -27 -1 -10 -11 -11 -17 -3 -20 7 -2 10 -12 8 -21 -8 -37 -11 -92 -6 -92 3 0 14 8 24 17 16 14 21 15 28 3 7 -11 11 -10 25 3 9 9 13 22 9 28 -4 8 -3 9 5 5 15 -9 44 20 35 35 -4 8 -3 9 5 5 15 -9 44 20 35 35 -4 8 -3 9 5 5 15 -9 44 20 35 35 -4 8 -3 9 5 5 15 -9 44 20 35 35 -4 8 -3 9 4 5 15 -9 85 61 76 76 -4 7 -3 8 5 4 15 -9 44 20 35 35 -4 8 -3 9 4 5 15 -9 125 101 116 116 -4 7 -3 8 4 4 15 -9 85 61 76 76 -4 7 -3 8 5 4 15 -9 44 20 35 35 -4 8 -3 9 5 5 14 -9 45 20 36 34 -3 6 1 7 9 4 9 -3 16 -17 16 -30 0 -19 -5 -24 -25 -24 -15 0 -25 -6 -25 -15 0 -7 -6 -18 -14 -22 -23 -13 -186 -173 -186 -183 0 -5 -9 -12 -20 -15 -11 -3 -20 -13 -20 -21 0 -8 -7 -17 -16 -21 -20 -8 -64 -51 -64 -63 0 -6 -4 -10 -9 -10 -11 0 -111 -99 -111 -110 0 -5 -9 -12 -20 -15 -11 -3 -20 -13 -20 -21 0 -8 -4 -14 -9 -14 -9 0 -71 -57 -71 -65 0 -13 -40 -43 -46 -34 -3 5 4 19 17 30 12 10 20 22 16 25 -3 3 -18 -6 -33 -21 -22 -22 -24 -29 -13 -36 11 -7 12 -12 2 -29 -7 -11 -13 -31 -13 -45 l0 -25 310 0 c248 0 310 -3 310 -13 0 -10 -60 -13 -297 -14 -250 0 -298 -3 -307 -15 -7 -10 -11 -117 -10 -331 l2 -316 -3450 0 c-1897 0 -3452 -2 -3456 -5 -4 -2 -7 1552 -7 3455 l0 3459 3455 -2 3455 -3 0 -345z m262 -362 c-2 -8 -23 -13 -53 -13 -27 0 -55 -4 -61 -8 -20 -12 -35 2 -20 18 16 19 141 21 134 3z m163 -4 c-10 -11 -27 -14 -59 -12 -25 1 -52 -1 -59 -6 -17 -10 -24 -3 -16 18 5 13 20 16 76 16 63 0 69 -2 58 -16z m157 4 c-2 -9 -25 -13 -65 -13 -34 0 -62 -4 -62 -9 0 -5 -3 -6 -6 -3 -4 4 -1 13 6 22 16 19 134 22 127 3z m93 2 c0 -5 -8 -10 -18 -10 -10 0 -23 -5 -29 -11 -17 -17 -36 -1 -20 16 14 16 67 20 67 5z m-400 -35 c0 -3 -25 -31 -55 -62 -30 -31 -55 -53 -55 -48 0 8 100 115 107 115 2 0 3 -2 3 -5z m314 -7 c-4 -7 -26 -32 -48 -56 -23 -23 -41 -50 -41 -60 0 -10 -7 -16 -16 -14 -14 2 -47 -28 -124 -110 -14 -16 -22 -33 -19 -42 7 -18 -7 -21 -23 -5 -8 8 -13 5 -18 -10 -3 -12 -12 -21 -20 -21 -8 0 -17 -9 -20 -20 -3 -11 -10 -20 -15 -20 -12 0 -60 -48 -60 -59 0 -5 -7 -12 -15 -15 -9 -3 -15 -13 -13 -22 2 -11 -5 -18 -19 -20 -19 -3 -73 -47 -73 -59 0 -13 -40 -43 -46 -34 -3 5 4 19 16 29 13 11 19 24 14 31 -4 8 -3 9 5 5 6 -4 18 0 27 8 8 9 12 21 8 27 -4 8 -3 9 4 5 7 -4 27 9 47 29 20 20 33 40 29 47 -4 7 -3 8 5 4 6 -4 18 0 27 8 8 9 12 21 8 27 -4 8 -3 9 5 5 6 -4 18 0 27 8 8 9 12 21 8 27 -4 8 -3 9 4 5 7 -4 27 9 47 29 20 20 33 40 29 47 -4 6 -3 8 4 4 6 -3 64 46 134 114 68 66 124 120 126 120 2 0 0 -6 -4 -12z m-521 -45 c-10 -25 -41 -54 -48 -43 -3 6 6 21 22 35 34 29 34 29 26 8z m315 -8 c-6 -14 -17 -25 -25 -25 -7 0 -13 -7 -13 -15 0 -8 -7 -15 -15 -15 -8 0 -15 2 -15 5 0 4 72 74 77 75 2 0 -3 -11 -9 -25z m-248 -83 c0 -4 -16 -22 -35 -39 -19 -18 -35 -37 -35 -42 0 -5 -7 -11 -15 -15 -25 -9 -17 14 16 45 17 16 28 33 24 39 -3 6 0 7 9 4 9 -3 16 -1 16 5 0 6 5 11 10 11 6 0 10 -3 10 -8z m-71 -4233 c-13 -25 -17 -24 -15 5 0 14 6 22 13 19 9 -4 10 -10 2 -24z m446 -39 c-17 -33 -25 -38 -25 -16 0 14 26 46 36 46 2 0 -2 -13 -11 -30z m-335 -7 c0 -13 -47 -53 -53 -47 -3 3 4 17 16 29 22 24 37 31 37 18z m140 -22 c0 -5 -7 -14 -15 -21 -16 -14 -18 -10 -9 14 6 17 24 22 24 7z m-210 -52 c-7 -11 -14 -19 -16 -16 -7 7 7 37 17 37 6 0 5 -9 -1 -21z m161 4 c-6 -10 -37 -44 -71 -77 -33 -32 -60 -62 -60 -67 0 -5 -5 -9 -11 -9 -7 0 -17 -7 -24 -17 -8 -11 -14 -13 -19 -5 -4 7 -2 12 4 12 7 0 9 7 6 16 -3 8 -2 12 4 9 13 -8 84 61 76 74 -4 6 -1 9 6 6 7 -2 29 13 48 35 37 41 58 53 41 23z m169 8 c0 -5 -7 -14 -15 -21 -16 -14 -18 -10 -9 14 6 17 24 22 24 7z m160 2 c0 -13 -66 -73 -73 -67 -3 3 9 21 26 39 32 33 47 42 47 28z m-200 -42 c0 -4 -12 -21 -27 -36 -16 -15 -28 -35 -28 -44 -1 -9 -7 -15 -14 -13 -7 1 -19 -2 -25 -8 -28 -22 -23 5 5 31 17 16 28 33 24 39 -3 5 0 7 7 5 7 -3 20 4 28 15 15 21 30 26 30 11z m280 -57 c0 -19 -5 -24 -24 -24 -13 0 -27 -7 -30 -16 -3 -8 -11 -12 -16 -9 -6 4 2 19 21 35 17 16 28 34 24 40 -3 6 0 7 9 4 9 -3 16 -17 16 -30z m-173 -4 c-6 -17 -17 -28 -23 -26 -7 3 -15 -2 -18 -10 -3 -9 -10 -13 -16 -9 -9 5 47 73 62 74 3 1 1 -13 -5 -29z m-236 -67 c-13 -24 -51 -55 -51 -43 0 12 41 58 53 59 4 1 3 -7 -2 -16z m169 8 c0 -12 -26 -32 -33 -25 -6 7 14 33 26 34 4 0 7 -4 7 -9z m-371 -52 c-5 -11 -15 -17 -21 -13 -7 4 -6 9 2 14 7 4 10 13 6 19 -4 7 -1 9 8 5 12 -5 13 -10 5 -25z m322 3 c-12 -23 -61 -72 -72 -72 -5 0 -9 -7 -9 -16 0 -9 -9 -18 -20 -21 -10 -3 -22 -14 -25 -24 -4 -10 -13 -19 -21 -19 -8 0 -14 -6 -14 -14 0 -8 -9 -18 -20 -21 -11 -3 -20 -12 -20 -20 0 -7 -7 -16 -16 -19 -10 -4 -13 -13 -9 -27 5 -14 3 -20 -7 -18 -30 4 -48 -2 -48 -15 0 -8 -9 -18 -20 -21 -11 -3 -20 -11 -20 -16 0 -16 -39 -49 -46 -38 -3 5 4 19 16 29 13 11 19 24 14 31 -4 8 -3 9 5 5 15 -9 44 20 35 35 -4 8 -3 9 5 5 15 -9 44 20 35 35 -4 8 -3 9 5 5 6 -4 18 0 27 9 13 12 14 19 4 30 -8 9 -8 15 -2 15 6 0 12 -6 14 -12 3 -9 9 -8 22 5 9 9 14 22 10 28 -4 8 -3 9 5 5 15 -9 44 20 35 35 -4 8 -3 9 5 5 14 -9 45 20 36 34 -3 5 0 8 7 5 7 -2 29 13 48 35 37 41 57 52 41 22z m169 9 c0 -5 -7 -14 -15 -21 -16 -14 -18 -10 -9 14 6 17 24 22 24 7z m120 -217 c0 -19 -5 -24 -25 -24 -14 0 -25 -6 -25 -13 0 -7 -18 -26 -40 -43 -22 -16 -40 -35 -40 -41 0 -7 -3 -13 -7 -13 -12 0 -113 -99 -113 -109 0 -6 -9 -13 -20 -16 -11 -3 -20 -13 -20 -22 0 -8 -9 -17 -20 -20 -10 -3 -22 -14 -25 -24 -4 -10 -13 -19 -21 -19 -8 0 -14 -7 -14 -15 0 -8 -4 -15 -9 -15 -11 0 -71 -58 -71 -69 0 -5 -9 -13 -20 -16 -11 -3 -20 -13 -20 -21 0 -8 -4 -14 -10 -14 -20 0 -9 20 36 64 28 28 43 50 38 57 -4 8 -3 9 5 5 15 -9 44 20 35 35 -4 8 -3 9 5 5 15 -9 44 20 35 35 -4 8 -3 9 5 5 15 -9 44 20 35 35 -4 8 -3 9 5 5 15 -9 44 20 35 35 -4 8 -3 9 5 5 15 -9 44 20 35 35 -4 8 -3 9 5 5 15 -9 44 20 35 35 -4 8 -3 9 5 5 15 -9 44 20 35 35 -4 8 -3 9 5 5 15 -9 44 20 35 35 -4 8 -3 9 5 5 15 -9 44 20 35 35 -4 8 -3 9 5 5 14 -9 45 20 36 34 -3 6 1 7 9 4 9 -3 16 -17 16 -30z m0 -319 c0 -18 -5 -25 -20 -25 -10 0 -24 -9 -30 -20 -6 -11 -15 -20 -20 -20 -12 0 -60 -48 -60 -60 0 -6 -4 -10 -9 -10 -5 0 -32 -23 -61 -52 -37 -37 -51 -46 -46 -30 9 26 -1 28 -26 5 -10 -9 -18 -11 -18 -5 0 15 38 35 51 26 14 -8 140 118 134 134 -3 7 0 10 5 7 13 -8 43 22 35 35 -3 5 0 7 7 5 7 -3 20 4 28 15 19 27 30 25 30 -5z m-157 -97 c-13 -12 -26 -18 -30 -14 -4 4 1 14 11 22 31 22 43 17 19 -8z m-373 -99 c-7 -11 -14 -19 -16 -16 -7 7 7 37 17 37 6 0 5 -9 -1 -21z m-44 -17 c1 -15 -1 -21 -3 -14 -3 6 -12 12 -21 12 -13 0 -12 3 4 15 10 8 19 15 19 15 0 0 1 -12 1 -28z m478 14 c-6 -15 -34 -31 -34 -19 0 5 30 32 37 33 1 0 0 -6 -3 -14z m96 -71 c0 -8 -7 -15 -15 -15 -8 0 -15 7 -15 15 0 8 7 15 15 15 8 0 15 -7 15 -15z m7267 -310 c-4 -8 -14 -14 -24 -14 -17 1 -17 2 0 6 9 2 17 12 17 20 0 9 3 14 6 10 4 -3 4 -13 1 -22z m-14489 -1052 c-10 -2 -28 -2 -40 0 -13 2 -5 4 17 4 22 1 32 -1 23 -4z m1200 0 c-10 -2 -28 -2 -40 0 -13 2 -5 4 17 4 22 1 32 -1 23 -4z m520 0 c-10 -2 -28 -2 -40 0 -13 2 -5 4 17 4 22 1 32 -1 23 -4z m1040 0 c-10 -2 -28 -2 -40 0 -13 2 -5 4 17 4 22 1 32 -1 23 -4z m520 0 c-10 -2 -28 -2 -40 0 -13 2 -5 4 17 4 22 1 32 -1 23 -4z m3280 0 c-10 -2 -28 -2 -40 0 -13 2 -5 4 17 4 22 1 32 -1 23 -4z m1200 0 c-10 -2 -28 -2 -40 0 -13 2 -5 4 17 4 22 1 32 -1 23 -4z m1040 0 c-10 -2 -28 -2 -40 0 -13 2 -5 4 17 4 22 1 32 -1 23 -4z m160 0 c-10 -2 -28 -2 -40 0 -13 2 -5 4 17 4 22 1 32 -1 23 -4z m200 0 c-10 -2 -28 -2 -40 0 -13 2 -5 4 17 4 22 1 32 -1 23 -4z m160 0 c-10 -2 -28 -2 -40 0 -13 2 -5 4 17 4 22 1 32 -1 23 -4z m680 0 c-10 -2 -28 -2 -40 0 -13 2 -5 4 17 4 22 1 32 -1 23 -4z m520 0 c-10 -2 -28 -2 -40 0 -13 2 -5 4 17 4 22 1 32 -1 23 -4z m520 0 c-10 -2 -28 -2 -40 0 -13 2 -5 4 17 4 22 1 32 -1 23 -4z m1040 0 c-10 -2 -28 -2 -40 0 -13 2 -5 4 17 4 22 1 32 -1 23 -4z m160 0 c-10 -2 -28 -2 -40 0 -13 2 -5 4 17 4 22 1 32 -1 23 -4z m360 0 c-10 -2 -28 -2 -40 0 -13 2 -5 4 17 4 22 1 32 -1 23 -4z m1200 0 c-10 -2 -28 -2 -40 0 -13 2 -5 4 17 4 22 1 32 -1 23 -4z"></path><path id="pfuLCS9dV" d="M10540 9210 c0 -15 -7 -20 -25 -20 -14 0 -25 -6 -25 -14 0 -7 -14 -24 -31 -37 -17 -13 -72 -66 -122 -117 -114 -117 -126 -128 -176 -175 -23 -21 -41 -42 -41 -48 0 -5 -4 -9 -9 -9 -8 0 -65 -55 -117 -112 -45 -50 -82 -76 -92 -66 -7 7 -15 8 -19 3 -5 -4 -2 -10 5 -12 11 -4 10 -8 -1 -22 -8 -9 -17 -36 -19 -61 -3 -40 -1 -45 17 -43 19 1 19 1 2 -12 -12 -8 -14 -15 -8 -20 15 -9 44 22 35 36 -4 8 -3 9 5 5 6 -4 18 0 27 9 13 12 14 19 4 30 -8 9 -8 15 -2 15 6 0 12 -6 15 -12 3 -9 11 -6 24 10 27 29 35 28 21 -3 -6 -14 -15 -25 -19 -25 -8 0 -59 -48 -59 -55 0 -10 -40 -45 -51 -45 -6 0 -9 -6 -6 -14 3 -8 3 -17 -1 -21 -11 -11 -9 -69 3 -77 6 -5 5 -11 -5 -17 -8 -6 -11 -13 -7 -17 4 -4 15 0 24 9 12 12 14 19 5 30 -13 15 2 37 23 37 13 0 81 71 78 81 -1 4 10 10 24 14 43 10 104 58 99 77 -2 10 1 15 9 12 7 -3 11 -13 8 -23 -5 -18 17 -25 47 -14 24 9 60 9 60 1 0 -15 19 -8 40 14 11 12 18 28 15 36 -3 7 0 10 6 6 6 -3 26 9 45 27 19 18 34 29 34 23 0 -5 -23 -31 -51 -58 l-51 -49 23 -13 c13 -7 32 -13 41 -14 9 0 19 -6 22 -12 3 -9 11 -6 24 10 27 29 34 28 20 -4 -11 -23 -9 -28 23 -57 43 -39 79 -90 79 -111 0 -9 4 -16 9 -16 5 0 13 -21 19 -47 l10 -48 1 55 c1 33 -4 62 -11 69 -10 11 -10 13 0 7 9 -5 12 9 11 61 -1 37 -4 58 -6 46 -7 -34 -33 -29 -30 5 1 19 7 29 17 28 13 -1 15 31 18 217 l3 219 -31 -7 c-36 -8 -37 -3 -8 25 15 14 24 17 29 8 4 -6 8 64 8 155 1 92 -1 167 -4 167 -3 0 -5 -9 -5 -20z m0 -156 c0 -19 -5 -24 -25 -24 -14 0 -25 -4 -25 -10 0 -5 -11 -19 -24 -32 -115 -109 -226 -222 -226 -229 0 -5 -4 -9 -9 -9 -12 0 -111 -100 -111 -111 0 -5 -5 -9 -10 -9 -6 0 -25 -16 -44 -36 -33 -35 -34 -35 -33 -11 1 14 5 23 10 20 12 -7 39 26 31 38 -4 8 -3 9 5 5 15 -9 44 20 35 35 -4 8 -3 9 4 5 7 -4 27 9 47 29 20 20 33 40 29 47 -4 7 -3 8 5 4 6 -4 18 0 27 8 8 9 12 21 8 27 -4 8 -3 9 5 5 15 -9 44 20 35 35 -4 8 -3 9 5 5 15 -9 44 20 35 35 -4 8 -3 9 5 5 15 -9 44 20 35 35 -4 8 -3 9 5 5 15 -9 44 20 35 35 -4 8 -3 9 5 5 15 -9 44 20 35 35 -4 8 -3 9 5 5 15 -9 44 20 35 35 -4 8 -3 9 5 5 14 -9 45 20 36 34 -3 6 1 7 9 4 9 -3 16 -17 16 -30z m-60 -201 c0 -5 -11 -18 -24 -31 l-24 -22 2 24 c0 14 6 22 14 19 6 -3 12 0 12 6 0 6 5 11 10 11 6 0 10 -3 10 -7z m-60 -60 c0 -2 -21 -26 -47 -53 -27 -26 -58 -60 -71 -74 -12 -15 -27 -24 -32 -21 -6 3 22 37 61 76 38 38 67 74 64 79 -3 6 1 7 9 4 9 -3 16 -8 16 -11z m120 -59 c0 -19 -5 -24 -25 -24 -14 0 -25 -6 -25 -13 0 -7 -13 -23 -29 -35 l-29 -21 2 24 c0 12 4 21 9 18 12 -7 39 26 31 38 -4 8 -3 9 5 5 14 -9 45 20 36 34 -3 6 1 7 9 4 9 -3 16 -17 16 -30z m-292 -120 c-6 -13 -17 -24 -24 -24 -6 0 -15 -7 -18 -16 -3 -8 -11 -12 -16 -9 -6 4 2 19 21 35 17 16 28 34 24 40 -3 5 0 7 9 4 12 -5 13 -10 4 -30z m162 1 c-7 -9 -15 -13 -18 -10 -3 2 1 11 8 20 7 9 15 13 18 10 3 -2 -1 -11 -8 -20z m130 -41 c0 -17 -6 -24 -19 -24 -11 0 -26 -8 -33 -17 -7 -10 -23 -26 -35 -36 -21 -18 -21 -18 -19 6 0 14 4 23 8 21 11 -7 80 65 73 76 -3 6 1 7 9 4 9 -3 16 -17 16 -30z m-370 -35 c-7 -11 -14 -19 -16 -16 -7 7 7 37 17 37 6 0 5 -9 -1 -21z m-126 -55 c13 -5 14 -10 6 -20 -14 -15 -40 -8 -40 12 0 15 10 17 34 8z m449 -98 c-3 -4 -9 -2 -13 4 -5 8 -16 10 -26 6 -18 -6 -18 -6 0 8 14 12 21 12 31 3 7 -7 11 -16 8 -21z"></path><path id="p12dgtq4dD" d="M9891 9104 c-18 -21 -6 -30 14 -11 8 9 15 18 15 21 0 11 -15 5 -29 -10z"></path><path id="plhch3y2n" d="M10543 8100 c0 -25 2 -35 4 -22 2 12 2 32 0 45 -2 12 -4 2 -4 -23z"></path><path id="pxi6GmAT1" d="M9862 8000 c0 -19 2 -27 5 -17 2 9 2 25 0 35 -3 9 -5 1 -5 -18z"></path><path id="pBzypJ98U" d="M10543 7585 c0 -27 2 -38 4 -22 2 15 2 37 0 50 -2 12 -4 0 -4 -28z"></path><path id="poptX8E5e" d="M9790 6865 c0 -24 5 -35 15 -35 8 0 15 5 15 11 0 6 7 17 15 26 14 14 15 13 9 -11 -4 -16 -2 -26 5 -26 6 0 11 16 11 35 0 33 -2 35 -35 35 -33 0 -35 -2 -35 -35z"></path><path id="pWF9qy5We" d="M3849 6855 c20 -44 28 -44 33 0 4 32 2 35 -23 35 l-26 0 16 -35z"></path><path id="p43FWb2Pn" d="M3820 6845 c0 -14 5 -25 10 -25 6 0 10 11 10 25 0 14 -4 25 -10 25 -5 0 -10 -11 -10 -25z"></path><path id="pJpE6GC72" d="M10600 6799 c0 -20 -4 -29 -12 -26 -7 2 -12 10 -10 16 1 6 -2 11 -8 11 -5 0 -10 -16 -10 -35 l0 -35 48 0 c56 0 72 12 72 56 0 41 -17 53 -29 22 l-10 -23 0 23 c-1 15 -7 22 -21 22 -16 0 -20 -7 -20 -31z"></path><path id="pz1NLmPH3" d="M9790 6745 c0 -33 2 -35 35 -35 33 0 35 2 35 35 0 39 -16 48 -23 13 l-4 -23 -8 23 c-12 36 -35 27 -35 -13z"></path><path id="p6Cjhbsr9" d="M9863 5795 c0 -33 2 -45 4 -27 2 18 2 45 0 60 -2 15 -4 0 -4 -33z"></path><path id="plBylDhZh" d="M9863 5630 c0 -30 2 -43 4 -27 2 15 2 39 0 55 -2 15 -4 2 -4 -28z"></path><path id="ps56BuujL" d="M10543 5335 c0 -27 2 -38 4 -22 2 15 2 37 0 50 -2 12 -4 0 -4 -28z"></path><path id="pPEGRoJqM" d="M10512 5245 c-12 -19 -18 -35 -13 -35 6 0 15 8 20 18 9 15 12 15 21 2 7 -12 10 -8 10 18 0 41 -9 40 -38 -3z"></path><path id="ppY8XTSVx" d="M9881 4614 c-12 -14 -20 -28 -17 -31 5 -5 56 42 56 52 0 13 -18 3 -39 -21z"></path></g></g><g id="l4noldh40zwK8HTxCUuHGW9" fill="rgb(253,253,0)" style="transform: none;"><g><path id="p1GjxGA2Jt" d="M1815 12273 c-57 -8 -183 -54 -241 -89 -80 -48 -187 -155 -236 -236 -22 -37 -52 -102 -66 -145 l-27 -78 -3 -4940 c-2 -3713 0 -4951 9 -4985 29 -114 58 -182 110 -255 90 -128 239 -229 399 -270 60 -16 670 -17 8455 -17 7583 1 8396 2 8449 16 222 59 388 216 479 453 l22 58 5 4919 c4 3635 2 4938 -6 4995 -28 188 -109 324 -263 440 -86 65 -112 78 -228 115 l-82 26 -8373 -1 c-4605 -1 -8386 -4 -8403 -6z m15995 -5505 l0 -4153 -7602 2 -7603 3 -3 4150 -2 4150 7605 0 7605 0 0 -4152z"></path><path id="pkHilovFr" d="M3640 8230 l0 -1310 -320 0 -320 0 0 -150 0 -150 320 0 320 0 0 -1316 c0 -1196 1 -1316 16 -1310 9 3 20 6 25 6 5 0 9 5 9 10 0 6 -7 10 -15 10 -13 0 -15 151 -15 1300 l0 1300 320 0 320 0 0 150 0 150 -320 0 -320 0 0 1310 c0 867 -3 1310 -10 1310 -7 0 -10 -443 -10 -1310z m-499 -1387 c12 -32 25 -29 45 12 22 48 32 35 10 -13 -17 -37 -17 -40 4 -76 13 -24 16 -36 8 -34 -7 3 -19 17 -26 31 -17 35 -28 34 -47 -3 -9 -16 -20 -30 -25 -30 -5 0 0 17 11 37 17 29 19 41 10 55 -6 10 -11 25 -11 33 0 8 -4 15 -10 15 -5 0 -10 5 -10 11 0 17 31 -11 41 -38z m179 5 c0 -18 8 -41 19 -52 10 -12 22 -32 26 -46 7 -24 7 -24 -9 -5 -8 11 -16 25 -16 31 0 6 -9 19 -20 29 -21 19 -30 92 -10 80 6 -3 10 -20 10 -37z m345 22 c14 -16 17 -30 12 -70 -3 -28 -9 -55 -12 -60 -8 -14 -65 -13 -65 1 0 6 12 9 28 7 27 -3 27 -2 30 60 l3 62 -31 0 c-29 0 -30 -1 -30 -47 0 -27 -5 -55 -10 -63 -7 -11 -10 2 -10 43 0 32 6 64 13 72 17 20 51 18 72 -5z m177 3 c21 -18 24 -53 6 -71 -14 -14 -68 -16 -68 -2 0 6 14 10 30 10 27 0 30 3 30 30 0 26 -3 30 -29 30 -24 0 -30 -5 -36 -32 -6 -25 -9 -28 -12 -14 -7 27 17 66 40 66 11 0 29 -7 39 -17z m120 -43 c2 -32 7 -45 18 -45 11 0 16 13 18 48 2 26 7 47 13 47 12 0 12 -52 -1 -84 -8 -22 -16 -26 -48 -26 -21 0 -43 5 -50 12 -9 9 -12 9 -12 0 0 -7 -4 -12 -10 -12 -5 0 -10 25 -10 55 0 30 5 55 10 55 6 0 10 -14 10 -31 0 -36 17 -72 31 -64 5 4 9 29 9 58 0 62 17 52 22 -13z m98 24 c0 -40 16 -77 31 -69 5 4 9 29 9 58 0 62 17 52 22 -13 2 -32 7 -45 18 -45 11 0 16 13 18 48 2 26 7 47 13 47 12 0 12 -52 -1 -85 -9 -24 -13 -25 -70 -23 l-60 2 0 58 c0 32 4 58 10 58 6 0 10 -16 10 -36z m-781 -88 c-11 -20 -25 -36 -30 -36 -10 0 6 33 30 63 23 28 23 12 0 -27z m501 -2 c0 -8 6 -14 14 -14 8 0 21 -3 30 -6 12 -4 16 0 16 15 0 12 5 21 10 21 13 0 13 -6 0 -31 -12 -22 -59 -26 -78 -7 -14 14 -16 52 -2 43 6 -3 10 -13 10 -21z"></path><path id="p2QGj9ANj" d="M9560 6850 c0 -56 -3 -70 -15 -70 -8 0 -15 -4 -15 -10 0 -5 7 -10 15 -10 12 0 15 -14 15 -70 l0 -70 55 0 55 0 0 150 0 150 -55 0 -55 0 0 -70z"></path><path id="pZXe9bSPQ" d="M10750 6770 l0 -150 55 0 55 0 0 70 c0 56 3 70 15 70 8 0 15 5 15 10 0 6 -7 10 -15 10 -12 0 -15 14 -15 70 l0 70 -55 0 -55 0 0 -150z"></path><path id="pdt4z15vc" d="M5760 4090 c0 -56 -3 -70 -15 -70 -8 0 -15 -4 -15 -9 0 -5 7 -11 15 -15 11 -4 15 -22 15 -71 l0 -65 650 0 650 0 0 70 c0 56 3 70 15 70 8 0 15 5 15 10 0 6 -7 10 -15 10 -12 0 -15 14 -15 70 l0 70 -650 0 -650 0 0 -70z m141 -7 c12 -32 25 -29 45 12 9 19 21 35 26 35 5 0 7 -3 5 -7 -25 -45 -38 -85 -30 -96 17 -22 33 -67 24 -67 -5 0 -16 16 -25 35 -20 41 -33 44 -45 12 -8 -21 -41 -56 -41 -44 0 4 9 23 21 44 l21 37 -21 39 c-12 21 -21 41 -21 44 0 12 33 -23 41 -44z m179 5 c0 -18 8 -41 18 -52 22 -26 44 -76 33 -76 -4 0 -18 20 -31 44 -24 48 -46 52 -56 11 -5 -20 -44 -67 -44 -53 0 12 32 67 45 78 9 7 15 29 15 52 0 24 4 37 10 33 6 -3 10 -20 10 -37z m342 25 c13 -11 18 -30 18 -68 0 -57 -12 -75 -50 -75 -38 0 -50 18 -50 74 0 74 39 108 82 69z m181 -1 c19 -17 23 -58 6 -64 -9 -3 -8 -10 2 -25 10 -18 11 -24 0 -37 -25 -30 -91 -15 -91 21 0 20 17 15 23 -7 4 -14 12 -19 29 -17 33 5 31 41 -2 45 -49 7 -66 47 -35 82 19 21 45 22 68 2z m59 -34 c6 -57 1 -81 -13 -72 -12 7 -12 124 0 124 5 0 11 -24 13 -52z m58 2 c0 -43 3 -50 20 -50 17 0 20 7 20 51 0 31 4 48 10 44 6 -3 10 -26 10 -49 0 -50 -16 -69 -61 -70 -32 -1 -46 8 -29 19 5 3 10 28 10 56 0 27 5 49 10 49 6 0 10 -22 10 -50z m100 14 c0 -40 16 -77 31 -69 5 4 9 28 9 56 0 27 5 49 10 49 6 0 10 -22 10 -49 0 -33 5 -51 14 -54 21 -8 26 2 26 49 0 24 5 46 10 49 15 9 12 -91 -2 -102 -20 -15 -76 -24 -83 -12 -4 5 -15 7 -26 4 -17 -6 -19 -1 -19 54 0 34 4 61 10 61 6 0 10 -16 10 -36z"></path><path id="pZm9w0yKc" d="M6360 4050 c0 -53 2 -58 25 -62 13 -3 27 -3 30 0 3 3 5 31 5 62 0 56 0 57 -30 58 -30 1 -30 1 -30 -58z"></path><path id="pxeRph4re" d="M6540 4081 c0 -31 13 -41 43 -33 13 3 17 12 15 31 -2 20 -9 27 -30 29 -25 3 -28 0 -28 -27z"></path></g></g><g id="l0l8k0Qta78aubjObkwjUH" fill="rgb(0,255,255)" style="transform: none;"><g><path id="pHvPYMKk1" d="M9826 6935 c-11 -11 -37 -15 -100 -15 l-86 0 0 -150 0 -150 86 0 c63 0 89 -4 100 -15 9 -8 21 -15 27 -14 9 0 8 2 0 6 -36 14 -2 23 87 23 89 0 123 -9 88 -23 -9 -4 -10 -6 -1 -6 6 -1 18 6 27 14 11 12 44 15 156 15 112 0 145 -3 156 -15 9 -8 21 -15 27 -14 9 0 8 2 0 6 -35 14 -4 23 77 23 73 0 90 -3 90 -15 0 -8 5 -15 10 -15 6 0 10 7 10 15 0 12 18 15 100 15 l100 0 0 150 0 150 -100 0 c-82 0 -100 3 -100 15 0 8 -4 15 -10 15 -5 0 -10 -7 -10 -15 0 -12 -17 -15 -90 -15 -81 0 -112 9 -77 23 8 4 9 6 0 6 -6 1 -18 -6 -27 -14 -11 -12 -44 -15 -156 -15 -112 0 -145 3 -156 15 -9 8 -21 15 -27 14 -9 0 -8 -2 1 -6 35 -14 1 -23 -88 -23 -89 0 -123 9 -87 23 8 4 9 6 0 6 -6 1 -18 -6 -27 -14z m830 -108 c-4 -25 -14 -51 -23 -59 -15 -11 -16 -11 -8 7 5 11 10 42 13 68 3 33 7 46 14 39 6 -6 8 -29 4 -55z m-877 17 c12 -20 20 -44 19 -53 -2 -9 -14 5 -30 37 -30 59 -21 71 11 16z m62 2 c-13 -33 -21 -33 -21 0 0 14 4 23 10 19 6 -3 10 -1 10 6 0 7 2 10 5 7 3 -3 1 -17 -4 -32z m541 -1 c1 -19 2 -42 2 -52 1 -9 -5 -18 -11 -20 -10 -4 -13 11 -13 51 0 60 19 79 22 21z m160 0 c1 -19 2 -42 2 -52 1 -9 -5 -18 -11 -20 -10 -4 -13 11 -13 51 0 60 19 79 22 21z m-422 -50 c0 -36 -4 -65 -8 -65 -10 0 -52 35 -52 43 0 3 9 3 20 0 18 -5 20 0 20 41 0 25 5 46 10 46 6 0 10 -28 10 -65z m180 -8 c0 -30 -3 -56 -6 -60 -7 -6 -54 33 -54 45 0 5 9 6 20 3 17 -6 20 -2 20 29 0 20 5 36 10 36 6 0 10 -24 10 -53z m300 6 c0 -28 -3 -33 -13 -24 -8 6 -12 23 -9 41 6 40 22 28 22 -17z m-760 -34 c0 -10 -4 -19 -10 -19 -5 0 -10 12 -10 26 0 14 4 23 10 19 6 -3 10 -15 10 -26z"></path><path id="pguK8Kd2P" d="M6398 6798 c-8 -65 -6 -68 28 -68 24 0 34 5 34 15 0 13 179 15 1550 15 1027 0 1550 3 1550 10 0 7 -523 10 -1550 10 -1371 0 -1550 2 -1550 15 0 19 -59 21 -62 3z"></path><path id="p2mKuMFIf" d="M10860 6770 c0 -7 532 -10 1575 -10 1043 0 1575 3 1575 10 0 7 -532 10 -1575 10 -1043 0 -1575 -3 -1575 -10z"></path><path id="p1BVHTqFCo" d="M3654 4007 c-8 -9 220 -12 1048 -12 840 0 1058 3 1058 13 0 17 -2090 17 -2106 -1z"></path><path id="ppXSfJSEN" d="M7060 4010 c0 -7 360 -10 1060 -10 700 0 1060 3 1060 10 0 7 -360 10 -1060 10 -700 0 -1060 -3 -1060 -10z"></path></g></g><g id="l6uI4x6ONX3U2qNzBnQxm4F" fill="rgb(255,0,255)" style="transform: none;"><g><path id="p8BRsA6vL" d="M9860 9530 c0 -6 27 -10 60 -10 33 0 60 -2 60 -6 0 -3 -28 -32 -61 -65 -34 -33 -59 -63 -56 -66 3 -3 37 27 76 66 l70 71 66 0 c36 0 65 -2 65 -5 0 -3 -64 -69 -141 -146 -78 -77 -139 -142 -136 -145 3 -3 73 62 156 145 l151 151 65 0 c36 0 65 -2 65 -5 0 -2 -100 -104 -222 -225 -121 -121 -218 -223 -215 -226 3 -3 109 98 236 225 l231 231 65 0 c36 0 65 -2 65 -4 0 -3 -136 -140 -302 -305 -165 -166 -298 -304 -295 -307 3 -3 145 134 316 305 270 270 315 311 341 311 16 0 30 5 30 10 0 6 -122 10 -345 10 -223 0 -345 -4 -345 -10z"></path><path id="pvND0dXj7" d="M10201 9094 c-189 -190 -341 -347 -338 -350 7 -7 687 672 687 686 0 6 -1 10 -2 10 -2 -1 -158 -156 -347 -346z"></path><path id="pyOJNImvp" d="M10201 8934 c-189 -189 -341 -347 -338 -350 7 -7 687 672 687 686 0 6 -1 10 -2 10 -2 0 -158 -156 -347 -346z"></path><path id="p1CaFqTJmy" d="M10201 8774 c-189 -190 -341 -347 -338 -350 7 -8 689 675 685 686 -2 5 -158 -147 -347 -336z"></path><path id="p19zMW1x39" d="M10285 8699 c-142 -143 -254 -259 -247 -259 16 0 514 498 510 509 -2 5 -120 -108 -263 -250z"></path><path id="p13fRpntRx" d="M10392 8643 c-84 -85 -151 -157 -148 -160 7 -7 308 296 304 307 -2 4 -72 -61 -156 -147z"></path><path id="p1Eptqnk6t" d="M10451 8545 c-52 -52 -92 -98 -88 -101 8 -9 190 173 185 186 -2 5 -45 -34 -97 -85z"></path><path id="pRD68fJHi" d="M10498 8431 c-26 -27 -45 -51 -41 -54 8 -9 96 80 91 92 -1 6 -24 -12 -50 -38z"></path><path id="p1EhhqcNuN" d="M10540 8311 c0 -7 -7 -11 -14 -8 -10 4 -13 1 -9 -9 3 -7 9 -14 13 -14 10 0 22 31 15 38 -3 3 -5 0 -5 -7z"></path><path id="ptuDFRoJ8" d="M9871 8284 c-18 -21 -6 -30 14 -11 8 9 15 18 15 21 0 11 -15 5 -29 -10z"></path><path id="p19sIEHdQw" d="M10513 5248 c-12 -18 -20 -34 -18 -36 7 -7 55 41 55 56 0 21 -14 13 -37 -20z"></path><path id="pMbOG9OOh" d="M9871 5244 c-18 -21 -6 -30 14 -11 8 9 15 18 15 21 0 11 -15 5 -29 -10z"></path><path id="p329bzxJA" d="M9940 5162 c0 -5 -18 -29 -41 -52 -22 -23 -38 -44 -35 -47 3 -4 19 7 35 24 15 16 38 37 50 45 19 13 20 17 6 28 -8 7 -15 8 -15 2z"></path><path id="pGVxLgWff" d="M10201 4775 c-189 -191 -341 -349 -338 -351 8 -8 689 675 685 686 -2 6 -158 -145 -347 -335z"></path><path id="pO5A0lpku" d="M10375 5100 c-24 -10 -519 -509 -512 -516 3 -3 125 114 272 260 148 146 266 266 264 265 -2 0 -13 -4 -24 -9z"></path><path id="p18i4nZ6nM" d="M9951 5004 c-51 -52 -91 -97 -88 -100 3 -3 48 37 101 90 52 52 92 97 87 100 -4 3 -49 -38 -100 -90z"></path><path id="pl323Y2FU" d="M10010 4904 c-84 -86 -150 -158 -147 -161 3 -2 73 63 156 145 82 83 156 152 162 154 9 3 8 6 -3 10 -11 5 -60 -39 -168 -148z"></path><path id="pU9Ip1ggr" d="M10202 4614 c-189 -190 -342 -348 -339 -351 8 -7 689 676 685 687 -2 6 -158 -146 -346 -336z"></path><path id="pMpFYnwOP" d="M10202 4453 c-189 -189 -341 -347 -339 -350 7 -7 689 676 685 687 -2 4 -158 -147 -346 -337z"></path><path id="p125dYdCYG" d="M10238 4329 c-287 -288 -310 -309 -343 -309 -19 0 -35 -4 -35 -10 0 -6 122 -10 345 -10 223 0 345 4 345 10 0 6 -25 10 -55 10 -30 0 -55 2 -55 5 0 3 25 30 55 60 30 31 55 60 55 66 0 5 -31 -22 -70 -61 l-69 -70 -66 0 c-36 0 -65 2 -65 5 0 3 61 66 135 140 74 74 135 140 135 145 0 6 -67 -57 -150 -140 l-150 -150 -65 0 c-36 0 -65 2 -65 5 0 3 97 102 215 220 118 118 215 219 215 226 0 6 -103 -93 -230 -220 l-230 -231 -65 0 c-36 0 -65 2 -65 5 0 3 133 138 296 301 162 162 294 299 292 303 -2 5 -141 -130 -310 -300z"></path></g></g><g id="lRZnwrfsGtv2HwOHiAudnw" fill="rgb(255,181,181)" style="transform: none;"><g><path id="p17e8CxAEj" d="M6398 6918 c-1 -79 -1 -164 0 -191 1 -49 -7 -58 -28 -32 -7 8 -20 15 -30 15 -10 0 -21 7 -24 16 -9 24 -30 11 -37 -24 -6 -30 -2 -34 57 -79 35 -27 64 -56 64 -65 0 -13 8 -18 30 -18 l30 0 0 110 0 110 -30 0 c-16 0 -30 5 -30 10 0 6 14 10 30 10 l31 0 -3 137 -3 136 -27 4 -28 4 -2 -143z"></path><path id="pOBz34eQx" d="M13870 7052 c-19 -2 -38 -8 -41 -13 -8 -14 1 -59 12 -59 5 0 9 -6 9 -14 0 -8 19 -30 42 -48 83 -66 193 -177 205 -207 10 -27 8 -33 -13 -54 -52 -52 -128 -49 -172 8 -37 47 -98 34 -84 -17 18 -72 76 -108 172 -108 123 0 180 49 180 154 0 44 -5 60 -30 92 -38 48 -112 117 -162 151 -21 14 -38 29 -38 34 0 5 51 10 113 11 l112 3 3 33 3 32 -113 1 c-62 0 -124 1 -138 2 -14 1 -41 1 -60 -1z"></path></g></g><g id="l4B3WAFUwMPO6SYXqeAE73I" fill="rgb(255,255,255)" style="transform: none;"><g><path id="p71uFYFxm" d="M9800 7174 c0 -3 27 -32 61 -65 l61 -59 -31 -29 c-17 -16 -31 -35 -31 -43 0 -7 -9 -20 -20 -28 -12 -8 -20 -26 -20 -42 0 -15 -4 -28 -10 -28 -6 0 -10 -43 -10 -110 0 -67 4 -110 10 -110 6 0 10 -13 10 -30 0 -16 5 -30 10 -30 6 0 10 -8 10 -18 0 -10 9 -24 20 -32 11 -8 20 -22 20 -32 0 -10 5 -18 10 -18 24 0 6 -35 -41 -81 -28 -28 -49 -53 -45 -56 3 -3 28 17 56 46 46 47 80 65 80 41 0 -5 8 -10 18 -10 10 0 24 -9 32 -20 8 -11 22 -20 32 -20 10 0 18 -4 18 -10 0 -5 14 -10 30 -10 17 0 30 -4 30 -10 0 -6 40 -10 100 -10 60 0 100 4 100 10 0 6 14 10 30 10 17 0 30 5 30 10 0 6 9 10 20 10 11 0 20 5 20 10 0 6 7 10 16 10 9 0 29 14 45 31 l29 31 50 -53 c27 -29 53 -49 56 -46 4 3 -17 29 -46 57 l-52 50 31 29 c17 16 31 36 31 45 0 9 5 16 10 16 6 0 10 9 10 20 0 11 5 20 10 20 6 0 10 18 10 40 0 22 5 40 10 40 6 0 10 30 10 70 0 40 -4 70 -10 70 -5 0 -10 14 -10 30 0 17 -4 30 -10 30 -5 0 -10 13 -10 28 0 16 -8 34 -20 42 -11 8 -20 21 -20 29 0 7 -9 22 -21 32 l-21 18 52 51 c29 28 50 54 47 57 -3 3 -29 -18 -57 -47 l-51 -52 -18 21 c-10 12 -25 21 -32 21 -8 0 -21 9 -29 20 -8 12 -26 20 -42 20 -15 0 -28 5 -28 10 0 6 -13 10 -30 10 -16 0 -30 5 -30 10 0 6 -30 10 -70 10 -40 0 -70 -4 -70 -10 0 -5 -18 -10 -40 -10 -22 0 -40 -4 -40 -10 0 -5 -9 -10 -20 -10 -11 0 -20 -4 -20 -10 0 -5 -7 -10 -16 -10 -9 0 -29 -14 -45 -31 l-29 -31 -59 61 c-56 57 -71 69 -71 55z m480 -24 c0 -5 14 -10 30 -10 17 0 30 -4 30 -10 0 -5 13 -10 28 -10 16 0 34 -8 42 -20 8 -11 20 -20 28 -20 17 0 82 -65 82 -82 0 -8 9 -20 20 -28 12 -8 20 -26 20 -42 0 -15 5 -28 10 -28 6 0 10 -13 10 -29 0 -17 5 -33 10 -36 6 -3 10 -35 10 -71 0 -36 -4 -64 -10 -64 -5 0 -10 -18 -10 -40 0 -22 -4 -40 -10 -40 -5 0 -10 -9 -10 -20 0 -11 -4 -20 -10 -20 -5 0 -10 -7 -10 -15 0 -20 -105 -125 -125 -125 -8 0 -15 -4 -15 -10 0 -5 -9 -10 -20 -10 -11 0 -20 -4 -20 -10 0 -5 -13 -10 -30 -10 -16 0 -30 -4 -30 -10 0 -6 -40 -10 -100 -10 -60 0 -100 4 -100 10 0 6 -13 10 -30 10 -16 0 -30 5 -30 10 0 6 -8 10 -18 10 -10 0 -24 9 -32 20 -8 11 -22 20 -32 20 -38 0 -13 35 117 165 l135 135 131 -131 c72 -72 133 -129 136 -126 3 3 -54 64 -126 136 l-132 131 131 130 c73 72 130 134 127 137 -3 3 -65 -54 -137 -127 l-131 -132 -130 132 c-72 73 -133 130 -136 127 -3 -3 54 -64 126 -136 l131 -131 -135 -135 c-130 -130 -165 -155 -165 -117 0 10 -9 24 -20 32 -11 8 -20 22 -20 32 0 10 -4 18 -10 18 -5 0 -10 14 -10 30 0 17 -4 30 -10 30 -6 0 -10 43 -10 110 0 67 4 110 10 110 6 0 10 13 10 28 0 16 8 34 20 42 11 8 20 20 20 27 0 19 106 123 125 123 8 0 15 5 15 10 0 6 9 10 20 10 11 0 20 5 20 10 0 6 18 10 40 10 22 0 40 5 40 10 0 6 30 10 70 10 40 0 70 -4 70 -10z"></path></g></g></svg>