<svg class="img-fluid" id="outputsvg" xmlns="http://www.w3.org/2000/svg" style="transform: matrix(1, 0, 0, 1, 0, 0); transform-origin: 50% 50% 0px; cursor: move; transition: transform 200ms ease-in-out;" width="2880" height="1424" viewBox="0 0 28800 14240"><g id="l7X1KTy9egAQqL2xXUcBVY6" fill="rgb(240,1,0)" style="transform: none;"><g style="transform: none;"><path id="pHnlZ5EzA" d="M6967 13262 c-3 -4 -12 -34 -22 -67 -22 -79 -56 -122 -119 -151 -59 -28 -116 -30 -177 -9 -73 26 -106 58 -124 122 -9 32 -18 66 -21 75 -3 10 -11 15 -20 11 -12 -4 -14 -73 -14 -464 l0 -459 260 0 260 0 2 470 c2 362 0 471 -9 474 -7 3 -14 2 -16 -2z"></path><path id="pJqwZvrwx" d="M10122 13253 c-5 -10 -12 -38 -16 -62 -20 -131 -159 -203 -299 -155 -50 17 -114 80 -122 121 -3 13 -7 34 -10 48 -4 16 -12 25 -24 25 -18 0 -19 -15 -18 -452 l2 -453 66 -3 c80 -3 79 0 79 -156 l0 -109 -992 -991 c-546 -545 -1013 -1008 -1038 -1028 -34 -28 -56 -37 -90 -40 l-45 -3 -5 -45 c-6 -55 -30 -90 -124 -183 l-71 -70 -3 -873 -2 -874 25 0 25 0 1 268 c0 147 0 535 -1 863 l-1 595 90 87 c89 86 103 94 171 99 34 3 35 5 38 47 2 24 10 55 19 70 9 14 473 484 1032 1044 l1016 1017 2 127 c1 70 5 133 7 140 4 9 46 13 163 15 l158 3 0 463 c0 344 -3 466 -12 473 -8 7 -14 5 -21 -8z"></path><path id="pUhoueGkV" d="M10905 13233 c-12 -80 -27 -115 -63 -151 -75 -75 -206 -83 -294 -19 -28 21 -73 102 -83 150 -4 18 -12 27 -25 27 -20 0 -20 -6 -18 -457 l3 -458 259 0 259 0 0 470 c1 428 -1 470 -15 473 -13 2 -18 -7 -23 -35z"></path><path id="pFUFvBjeu" d="M3309 13253 c-4 -19 3 -928 6 -932 2 -2 39 -8 82 -13 43 -6 84 -12 91 -14 9 -3 12 -114 12 -516 l0 -513 696 -696 c584 -584 697 -702 707 -735 6 -22 13 -164 16 -332 l6 -293 35 -30 c19 -17 47 -37 63 -45 26 -14 27 -16 27 -104 l0 -90 84 0 c77 0 89 -3 128 -29 24 -16 56 -43 72 -60 l30 -31 173 0 174 0 69 -65 69 -65 158 0 157 0 188 -187 188 -187 0 -183 0 -183 23 0 c23 0 24 3 30 108 4 59 4 147 0 194 l-6 86 -203 201 -202 201 -157 0 -157 0 -68 66 -68 65 -154 -5 c-185 -7 -207 -2 -257 69 -34 46 -36 55 -41 145 l-5 95 -55 1 c-30 1 -85 2 -122 3 -57 1 -71 5 -99 28 l-32 27 6 286 c5 255 8 291 26 344 12 33 21 62 21 65 0 4 -310 317 -690 696 l-690 690 0 492 0 493 26 0 c14 0 56 5 95 11 l69 12 0 446 c0 250 -4 452 -9 460 -14 23 -37 -2 -45 -47 -8 -52 -57 -117 -105 -142 -49 -24 -120 -26 -184 -4 -79 27 -105 61 -143 188 -8 28 -32 48 -35 29z"></path><path id="pwoSqUFQ5" d="M6160 13218 c-22 -85 -31 -105 -58 -130 -40 -38 -88 -59 -148 -65 -44 -5 -62 -1 -107 20 -76 38 -102 72 -122 160 -4 20 -11 27 -23 25 -16 -3 -17 -37 -20 -454 l-2 -451 105 -13 105 -13 0 -346 0 -345 325 -326 325 -325 0 -488 0 -488 -71 -70 c-38 -38 -70 -77 -70 -87 1 -9 2 -147 4 -305 l2 -288 50 -48 c28 -26 57 -50 65 -53 11 -3 14 -24 15 -94 l0 -89 34 -5 c29 -4 36 -11 48 -45 10 -29 54 -80 158 -186 l145 -145 -4 -180 c-2 -98 -2 -236 1 -306 6 -115 8 -128 24 -128 17 0 19 18 21 313 l3 312 -142 145 c-112 114 -143 152 -143 173 0 28 24 47 59 47 29 0 35 35 25 143 l-9 92 -115 5 c-122 5 -162 19 -176 62 -3 12 -6 73 -6 137 0 64 1 182 1 262 l1 147 43 44 c23 24 66 63 95 87 l52 43 0 516 0 517 -330 330 -330 331 0 316 c0 174 4 319 9 322 4 3 52 11 105 17 l96 12 0 459 c0 252 0 461 1 466 0 4 -7 8 -15 10 -10 2 -18 -10 -26 -40z"></path><path id="p15xfNFWB3" d="M7254 13244 c3 -9 6 -219 6 -469 l0 -453 131 -4 c100 -3 132 -7 139 -18 6 -9 10 -160 10 -343 0 -266 -3 -333 -14 -355 -8 -15 -166 -178 -350 -362 l-336 -335 0 -1043 0 -1043 100 -101 100 -102 0 -333 0 -334 23 3 22 3 3 338 2 339 -100 103 -100 103 0 1028 0 1028 345 346 345 345 0 357 c0 272 3 359 12 364 7 5 52 10 100 12 l88 4 0 460 c0 432 -1 459 -17 456 -12 -2 -23 -22 -33 -61 -19 -73 -61 -118 -130 -140 -65 -21 -94 -21 -155 -1 -72 25 -117 76 -139 157 -15 54 -22 67 -38 67 -14 0 -18 -5 -14 -16z"></path><path id="pBL95dsKz" d="M4098 12785 l2 -465 260 0 260 0 0 454 c0 463 -3 497 -37 451 -7 -11 -13 -29 -13 -41 0 -12 -15 -43 -32 -70 -58 -84 -157 -115 -259 -79 -77 28 -112 76 -145 203 -2 6 -11 12 -21 12 -17 0 -18 -25 -15 -465z"></path><path id="pMKGJpKK1" d="M5376 13228 c-9 -12 -16 -31 -16 -42 0 -11 -11 -38 -24 -60 -60 -102 -182 -134 -298 -77 -52 25 -72 51 -99 125 -12 36 -23 51 -36 51 -15 0 -18 -8 -18 -57 1 -32 2 -235 3 -451 l2 -393 118 -15 117 -14 5 -335 5 -335 493 -489 492 -490 0 -314 c0 -202 -4 -320 -11 -333 -5 -11 -39 -56 -74 -100 -36 -43 -67 -90 -71 -103 -3 -13 -4 -146 -2 -294 l3 -271 45 -46 c24 -25 52 -48 62 -51 16 -5 18 -18 18 -100 l0 -94 85 0 85 0 58 -44 c32 -25 152 -138 265 -252 l207 -208 0 -243 0 -243 25 0 25 0 0 253 0 252 -191 190 c-105 105 -222 225 -260 268 l-69 77 0 89 c0 72 -3 90 -16 95 -9 3 -64 6 -124 6 l-108 0 -31 35 -31 36 0 274 0 273 43 37 c23 20 69 54 102 75 33 22 70 47 83 55 l22 16 0 357 0 357 -490 490 c-270 270 -493 493 -496 497 -11 13 -4 602 7 609 7 4 38 10 70 13 l59 7 0 469 c0 288 -4 470 -9 470 -6 0 -17 -10 -25 -22z"></path><path id="p124Ra5bVz" d="M8053 13113 c4 -76 5 -285 1 -465 l-6 -327 118 -3 119 -3 3 -120 c2 -71 -2 -130 -8 -146 -7 -15 -89 -102 -183 -194 -95 -92 -176 -172 -182 -178 -5 -6 -185 -186 -399 -401 -214 -215 -416 -419 -448 -452 l-59 -62 1 -928 1 -929 74 -75 75 -75 0 -403 0 -402 24 0 c23 0 24 3 28 88 3 48 3 233 0 411 l-5 323 -76 74 -76 74 3 917 2 918 640 640 640 640 0 136 c0 160 -11 149 138 149 l92 0 0 460 c0 395 -2 460 -14 460 -9 0 -22 -22 -33 -57 -22 -71 -72 -124 -138 -147 -67 -22 -98 -20 -169 11 -70 32 -102 64 -111 113 -9 45 -32 90 -48 90 -9 0 -10 -31 -4 -137z"></path><path id="p1BAGW4cMB" d="M8842 12783 l3 -458 105 -6 c58 -4 106 -7 108 -8 1 0 2 -76 2 -168 l0 -167 -822 -824 c-453 -453 -849 -843 -880 -867 -39 -29 -71 -45 -102 -49 l-46 -7 0 -54 c0 -40 5 -57 18 -67 11 -8 18 -29 20 -58 2 -38 -2 -48 -23 -65 l-25 -21 0 -534 -1 -534 47 -47 47 -47 -3 -359 c-2 -197 -3 -389 -2 -426 2 -65 3 -68 25 -65 l22 3 1 430 1 430 -48 52 -49 52 0 508 0 508 40 44 c29 32 40 52 40 76 0 18 7 38 15 45 8 7 15 22 15 34 0 20 8 38 41 96 7 14 396 409 864 877 l850 853 5 177 5 178 123 3 122 3 0 459 c0 392 -2 460 -14 460 -9 0 -21 -21 -30 -53 -24 -82 -54 -119 -116 -144 -30 -12 -71 -23 -91 -23 -89 0 -188 67 -212 145 -12 40 -35 75 -49 75 -5 0 -7 -206 -6 -457z"></path><path id="pzgStijKC" d="M2857 11273 c-14 -13 -6 -95 13 -150 11 -32 20 -79 20 -106 0 -44 -4 -54 -36 -83 -20 -19 -40 -50 -45 -69 -8 -28 -15 -34 -42 -37 l-32 -3 -3 -112 -3 -113 116 0 116 0 -3 113 -3 112 -40 5 c-37 5 -40 7 -38 34 1 16 16 46 33 67 26 33 30 46 30 100 0 51 5 68 25 95 27 35 29 45 27 112 l-2 42 -63 0 c-35 0 -67 -3 -70 -7z"></path><path id="psDMsjCFY" d="M3167 11273 c-4 -3 -7 -30 -7 -59 0 -59 14 -74 67 -74 34 0 78 -41 89 -83 6 -24 10 -27 34 -22 22 5 31 1 47 -21 13 -18 26 -25 36 -21 26 10 1 65 -55 119 -51 49 -78 99 -78 143 0 24 -2 25 -63 25 -35 0 -67 -3 -70 -7z"></path><path id="p1BRUITysi" d="M12875 10840 l-450 -5 -5 -115 -5 -115 -80 -5 -81 -5 -498 -497 -498 -498 -1181 0 -1182 0 -557 -557 -558 -558 2 -265 c3 -261 3 -265 24 -268 20 -3 22 3 28 88 4 50 4 168 0 261 l-7 171 539 539 539 539 1180 0 1179 0 339 338 c187 185 401 400 476 476 181 185 197 196 278 196 l63 0 0 -120 0 -120 433 0 c439 0 484 4 443 35 -11 8 -27 15 -37 15 -9 0 -39 20 -66 45 -44 39 -52 52 -63 105 -11 51 -11 71 1 118 21 88 75 137 177 162 31 8 42 16 40 27 -2 9 -7 17 -13 17 -5 1 -212 -1 -460 -4z"></path><path id="pvU7WmlsQ" d="M881 10827 c-15 -19 -4 -27 38 -28 70 -1 116 -28 171 -99 33 -42 35 -49 35 -120 0 -69 -2 -78 -34 -122 -40 -56 -115 -98 -174 -98 -31 0 -38 -3 -35 -17 3 -17 35 -18 476 -21 l472 -2 0 104 c0 57 3 111 6 120 5 14 41 16 302 16 l296 0 421 -420 421 -420 90 0 c81 0 95 -3 128 -25 45 -31 129 -36 144 -8 9 14 37 17 227 21 l217 5 512 -512 511 -511 283 0 283 0 68 -64 69 -65 147 6 146 6 161 -161 160 -160 -3 -149 c-4 -144 -3 -148 17 -151 28 -4 34 32 34 197 l0 125 -172 173 -172 173 -157 0 -158 0 -58 60 -58 60 -285 0 -286 0 -509 510 -510 510 -212 0 c-116 0 -219 3 -228 6 -9 4 -21 18 -26 32 -9 23 -13 24 -67 19 -35 -4 -61 -12 -69 -22 -9 -13 -35 -18 -113 -22 l-102 -6 -416 419 -417 419 -305 3 c-224 2 -306 6 -312 15 -4 7 -8 58 -8 115 l0 102 -469 0 c-380 0 -471 -3 -480 -13z"></path><path id="p100vt1Zf5" d="M3201 10816 c-8 -9 -11 -47 -9 -112 l3 -99 48 -3 48 -3 -1 -57 c-1 -81 9 -131 30 -142 22 -12 30 -4 30 28 0 14 7 33 16 43 14 15 14 22 0 67 -8 28 -12 53 -9 56 4 3 21 6 40 6 l34 0 -3 113 -3 112 -106 3 c-82 2 -109 -1 -118 -12z"></path><path id="pCbwczWLM" d="M7283 10768 c-23 -36 -31 -85 -26 -154 l6 -74 -27 0 c-27 0 -27 0 -24 -67 l3 -68 63 1 c35 1 67 6 72 10 4 5 3 43 -3 84 -11 88 -12 125 -2 163 6 22 4 27 -10 27 -15 0 -16 6 -11 45 7 41 5 45 -13 45 -11 0 -23 -6 -28 -12z"></path><path id="pSryPGlds" d="M9528 10673 l-48 -4 0 -63 c0 -72 4 -76 73 -76 63 0 72 10 71 76 -2 54 -14 76 -39 72 -5 -1 -31 -3 -57 -5z"></path><path id="p8vmSGawg" d="M9227 10614 c-4 -4 -7 -17 -7 -29 0 -13 -7 -28 -15 -35 -19 -16 -19 -41 0 -66 21 -28 18 -57 -10 -110 -27 -51 -33 -122 -13 -142 7 -7 38 -12 70 -12 l57 0 7 34 c8 45 -3 91 -32 142 -23 39 -23 43 -9 77 19 46 19 73 0 81 -10 4 -15 16 -13 33 3 27 -19 43 -35 27z"></path><path id="p13tD6ySjV" d="M7723 10365 c-40 -46 -53 -55 -82 -55 l-34 0 7 -62 c8 -70 15 -78 66 -78 69 0 80 8 80 56 0 35 5 47 25 60 29 19 32 36 10 54 -14 12 -14 15 0 36 43 66 -11 58 -72 -11z"></path><path id="pJ7njMuIQ" d="M9509 10363 c-23 -4 -27 -10 -33 -50 -9 -67 -42 -116 -150 -222 l-96 -94 -83 6 -82 7 -702 -703 c-412 -413 -702 -710 -703 -722 -1 -11 -2 -159 -1 -328 l1 -308 23 3 c20 3 23 10 28 73 3 39 4 180 1 315 l-5 245 687 689 686 689 67 -6 c37 -3 78 -1 92 5 15 5 67 50 117 100 61 60 96 88 104 83 8 -5 11 -4 7 3 -4 5 7 22 23 36 27 22 53 31 120 39 11 2 16 18 18 65 3 59 2 63 -23 72 -26 10 -47 11 -96 3z"></path><path id="pZNvXs2F4" d="M13320 10342 c0 -5 6 -16 13 -26 13 -17 14 -17 30 8 l17 26 -30 0 c-16 0 -30 -4 -30 -8z"></path><path id="p11GjUbR0d" d="M3980 10130 c-14 -4 -122 -5 -240 -2 -250 6 -243 8 -238 -85 l3 -58 312 0 313 0 288 -287 c164 -165 296 -288 306 -288 10 0 31 9 47 21 60 42 57 46 -284 387 l-313 313 -64 -3 c-36 -2 -74 0 -85 3 -11 4 -31 3 -45 -1z"></path><path id="p1ABB0PoOq" d="M12873 10052 l-453 -2 0 -260 0 -260 424 0 c233 0 431 -3 440 -6 12 -5 16 0 16 20 0 22 -6 28 -30 33 -17 3 -52 25 -78 49 -39 34 -51 52 -60 94 -22 95 -10 160 41 214 32 35 127 86 160 86 19 0 24 26 5 31 -7 2 -217 3 -465 1z"></path><path id="p1BYCdQsjZ" d="M877 10044 c-17 -17 8 -34 50 -34 165 0 258 -206 158 -350 -34 -50 -76 -76 -143 -91 -33 -7 -52 -16 -52 -25 0 -12 71 -14 470 -14 l470 0 0 74 c0 40 3 94 6 120 l7 46 316 0 315 0 186 -185 186 -185 314 0 c270 0 316 -2 331 -16 9 -8 42 -18 72 -21 48 -5 56 -3 66 15 15 28 59 33 330 39 l234 4 427 -426 426 -425 292 -3 291 -2 63 -62 64 -63 154 0 154 0 81 -82 c140 -143 139 -143 143 -277 3 -92 7 -119 20 -128 9 -7 19 -13 24 -13 4 0 8 65 8 145 l0 145 -132 130 -133 130 -155 0 -156 0 -64 65 -64 65 -286 0 -287 0 -419 420 -419 420 -220 0 c-227 0 -333 10 -369 35 -11 9 -43 15 -72 15 -46 0 -52 -3 -58 -24 -5 -20 -13 -24 -67 -30 -34 -3 -179 -6 -322 -6 l-259 0 -188 185 -187 185 -320 0 c-283 0 -322 2 -327 16 -3 9 -6 60 -6 115 l0 99 -473 0 c-261 0 -476 -3 -480 -6z"></path><path id="pCz5mAuFM" d="M5547 9930 l-27 -21 0 -373 c0 -283 3 -376 13 -388 22 -27 61 -48 90 -48 l29 0 -4 -77 -3 -78 90 -3 c88 -3 90 -3 143 -45 116 -91 101 -86 210 -80 77 5 104 2 127 -10 17 -9 124 -110 239 -225 l208 -210 2 -208 c1 -209 1 -209 24 -212 25 -4 24 -15 26 303 l1 129 -244 241 -243 240 -107 1 c-58 1 -116 2 -128 3 -13 0 -37 23 -67 63 l-46 62 0 88 c0 107 7 103 -169 89 -68 -6 -128 -8 -133 -5 -12 8 -10 707 2 740 15 38 -1 49 -33 24z"></path><path id="pLr1uvOex" d="M5298 9672 c-52 -50 -62 -66 -67 -103 l-6 -44 -85 -5 -85 -5 -3 -118 -3 -118 113 3 113 3 5 157 5 157 48 48 c26 27 47 54 47 60 0 30 -26 19 -82 -35z"></path><path id="pStCrhFTl" d="M5737 9683 c-4 -3 -7 -21 -7 -39 0 -18 -5 -36 -11 -39 -6 -4 -9 -23 -7 -43 1 -19 -2 -36 -7 -38 -6 -1 -22 -5 -37 -8 l-27 -6 0 -105 c0 -92 3 -106 19 -115 20 -11 178 -14 204 -4 13 5 16 25 16 121 l0 115 -37 -3 -38 -3 3 42 c2 31 -2 44 -13 48 -10 4 -15 19 -15 45 0 31 -4 39 -18 39 -10 0 -22 -3 -25 -7z"></path><path id="pxr5gzcPc" d="M6170 9671 c-5 -11 -10 -29 -10 -40 0 -11 -4 -23 -10 -26 -5 -3 -10 -24 -10 -45 0 -32 -4 -39 -22 -42 -22 -3 -23 -7 -26 -120 l-3 -118 100 0 c55 0 106 3 115 6 13 5 16 25 16 120 l0 114 -45 0 c-45 0 -45 0 -45 35 0 18 -5 57 -11 85 -11 53 -30 65 -49 31z"></path><path id="pQ19WR8GM" d="M6634 9682 c-12 -7 -24 -61 -27 -122 -2 -32 -5 -35 -37 -40 l-35 -5 0 -115 0 -115 104 -3 c128 -3 135 1 127 77 -3 31 -5 80 -6 109 l0 52 -36 0 c-36 0 -37 1 -31 34 3 19 2 37 -1 41 -4 3 -12 25 -17 47 -11 43 -22 53 -41 40z"></path><path id="pZdXPBnL2" d="M7637 9608 c-8 -13 -17 -35 -21 -50 -5 -20 -15 -30 -39 -36 l-32 -8 -3 -112 -3 -112 116 0 115 0 0 115 c0 109 -1 115 -20 115 -26 0 -70 43 -70 68 0 11 -6 25 -14 31 -12 10 -18 8 -29 -11z"></path><path id="pWz8T7bMr" d="M13330 9534 c0 -31 23 -28 28 4 2 15 -2 22 -12 22 -11 0 -16 -9 -16 -26z"></path><path id="pzFTnfIrs" d="M8934 9398 c-60 -58 -76 -79 -81 -110 -6 -39 -6 -39 -47 -36 l-41 3 -3 -77 c-2 -50 -8 -80 -17 -88 -7 -6 -40 -14 -72 -17 l-58 -5 -352 -352 -353 -351 0 -208 0 -208 23 3 c22 3 22 4 25 203 l2 200 332 332 332 333 186 2 185 3 0 55 c1 176 3 187 36 219 30 31 31 31 152 33 233 5 181 30 407 -198 l198 -199 1303 -5 1302 -5 13 -55 c7 -30 13 -72 14 -92 l0 -38 450 -2 c248 -1 458 -2 467 -2 10 -1 19 6 21 14 2 11 -16 20 -67 33 -59 15 -76 25 -110 62 -24 26 -41 54 -41 68 0 13 -5 38 -11 55 -8 24 -7 44 7 94 19 70 47 101 127 143 26 14 47 32 47 40 0 13 -55 15 -442 13 l-442 -3 -16 -90 -15 -90 -1275 -3 -1275 -2 -200 200 -200 200 -218 0 -219 0 -74 -72z"></path><path id="p2K31ZPIY" d="M7986 9346 c-20 -19 -26 -35 -26 -66 0 -35 -7 -48 -46 -90 -40 -43 -52 -50 -85 -50 -28 0 -42 6 -51 20 -12 18 -24 20 -125 20 l-113 0 0 -114 c0 -102 2 -115 18 -120 22 -7 46 -91 37 -129 -4 -14 -18 -35 -31 -48 l-24 -22 0 -399 c0 -389 0 -398 20 -398 19 0 19 10 22 389 l3 390 29 30 c24 25 31 44 40 108 l11 78 46 0 c25 0 53 6 61 12 8 7 37 16 64 19 66 9 98 30 189 125 l77 81 -4 75 c-5 79 -15 97 -60 108 -21 5 -33 1 -52 -19z"></path><path id="pzCMbHLix" d="M13326 9255 c-9 -24 -8 -25 20 -25 19 0 25 5 22 17 -4 23 -34 28 -42 8z"></path><path id="p1EbXvdcQn" d="M877 9253 c-20 -19 -5 -33 37 -33 61 0 105 -21 154 -74 48 -52 57 -78 57 -161 0 -54 -4 -66 -39 -113 -42 -58 -71 -77 -131 -87 -65 -11 -74 -15 -68 -31 4 -12 74 -14 474 -14 l469 0 0 103 c0 56 3 119 6 140 l7 37 291 0 291 1 102 -108 102 -108 755 -5 756 -5 182 -182 182 -183 456 0 456 0 122 -117 c66 -65 135 -136 152 -158 29 -37 31 -44 25 -91 -6 -48 -4 -53 33 -100 22 -27 66 -75 100 -106 l61 -58 84 0 c46 0 112 3 146 6 56 6 62 9 59 28 -3 20 -10 21 -133 26 -150 6 -167 13 -253 104 l-52 55 0 68 0 68 -163 163 -164 162 -458 0 -459 0 -186 185 -186 185 -749 0 -750 0 -107 110 -107 110 -294 0 -294 0 -7 46 c-3 26 -6 69 -6 95 l0 49 -473 0 c-261 0 -477 -3 -480 -7z"></path><path id="pRSPue5D7" d="M9113 9254 c-10 -4 -13 -39 -13 -126 l0 -121 -53 -54 -54 -53 -104 0 -104 0 -124 -124 c-70 -70 -141 -132 -163 -142 -23 -10 -38 -24 -38 -35 0 -9 -11 -31 -25 -47 -24 -29 -33 -62 -17 -62 4 0 23 11 42 25 19 14 43 25 55 25 14 0 26 13 42 48 14 31 59 83 131 155 l109 107 109 0 109 0 74 83 75 82 85 5 86 5 0 115 0 115 -105 2 c-58 1 -111 -1 -117 -3z"></path><path id="pZGL5n2Xk" d="M3507 9193 c-9 -8 -9 -80 -1 -110 l6 -23 351 0 351 0 246 -245 c193 -193 251 -245 271 -245 27 0 47 18 69 59 11 22 -1 36 -261 297 l-274 274 -376 0 c-206 0 -379 -3 -382 -7z"></path><path id="pl74GWVvm" d="M9218 8769 c-12 -6 -18 -22 -18 -44 0 -33 -42 -95 -124 -182 l-30 -33 -101 0 -100 0 -174 -174 -173 -173 -5 -69 -6 -69 -69 -67 c-93 -89 -114 -98 -236 -98 -112 0 -132 -4 -132 -30 0 -14 13 -18 83 -23 45 -4 108 -7 140 -7 l57 0 105 108 105 107 0 63 0 62 158 160 158 160 105 0 c105 0 105 0 135 31 16 17 55 49 88 71 48 33 62 38 80 30 31 -14 203 -172 349 -321 l128 -131 1327 0 1327 0 13 -65 c6 -35 12 -78 12 -94 l0 -30 463 -3 c254 -2 466 0 470 3 12 9 -13 25 -71 44 -77 25 -119 65 -138 133 -39 133 16 260 127 294 27 8 39 17 39 30 0 17 -19 18 -439 18 -332 0 -442 -3 -447 -12 -4 -7 -7 -28 -6 -48 1 -19 -4 -55 -12 -80 l-13 -45 -1300 -3 -1300 -2 -191 194 c-122 124 -203 215 -223 250 l-31 56 -56 0 c-32 0 -65 -5 -74 -11z"></path><path id="pqVrEQa5I" d="M8893 8735 c5 -31 3 -35 -16 -35 -15 0 -77 -54 -191 -166 -93 -91 -180 -170 -194 -175 -15 -6 -43 -7 -63 -4 -54 9 -93 -13 -190 -107 -99 -96 -115 -120 -95 -137 11 -10 22 -5 50 20 29 25 39 29 50 19 12 -9 17 -5 26 27 13 43 30 66 79 106 30 25 40 27 103 26 l70 -2 151 150 c84 83 162 156 174 162 12 6 58 11 102 11 92 0 95 4 89 91 l-3 44 -74 3 -74 3 6 -36z"></path><path id="pGLTtuc4a" d="M891 8461 c-21 -14 -3 -31 32 -31 47 -1 108 -32 145 -75 43 -48 52 -74 52 -141 0 -63 -20 -117 -58 -158 -31 -32 -116 -76 -149 -76 -14 0 -23 -6 -23 -15 0 -13 57 -15 473 -13 l472 3 3 82 c2 52 7 85 16 92 17 14 986 8 1126 -7 52 -6 95 -11 95 -11 0 -1 0 -54 0 -118 l0 -118 83 0 c82 0 84 -1 104 -30 12 -16 92 -101 178 -188 l157 -158 254 4 c140 3 306 10 369 16 63 7 262 15 443 19 l327 7 40 45 c21 25 39 50 40 57 0 18 35 25 113 21 l72 -3 3 32 c3 33 33 63 62 63 8 0 116 -101 240 -225 l225 -225 205 2 c204 3 205 3 208 26 l3 22 -199 0 -199 0 -219 221 c-215 216 -253 249 -292 249 -21 0 -32 18 -32 51 0 18 -8 19 -115 19 l-115 0 0 -87 c-1 -122 -12 -172 -46 -201 l-27 -24 -236 5 c-267 4 -591 24 -637 38 -17 5 -122 9 -235 9 l-204 0 -122 123 -123 122 -2 265 -3 265 -130 0 c-71 0 -145 -2 -164 -4 l-33 -3 4 -53 5 -53 -56 -7 c-31 -4 -305 -9 -609 -11 l-552 -4 -10 25 c-6 15 -10 52 -10 84 0 35 -5 63 -12 68 -16 13 -917 16 -937 4z"></path><path id="pgIjsLPf3" d="M13327 8464 c-4 -4 -7 -11 -7 -15 0 -10 24 -5 28 6 4 12 -12 18 -21 9z"></path><path id="paTbU7tOJ" d="M4012 8413 l-132 -4 2 -267 3 -267 160 0 160 0 -3 113 c-3 122 -6 116 59 126 33 6 39 2 105 -64 l71 -70 428 0 429 0 213 -212 212 -212 233 3 c128 1 237 6 242 11 5 5 6 16 3 24 -6 14 -37 16 -235 16 l-228 0 -95 96 c-52 53 -148 148 -213 210 l-120 114 -429 0 -429 0 -66 64 c-79 75 -102 88 -145 84 l-32 -3 0 120 0 120 -30 1 c-16 0 -90 -1 -163 -3z"></path><path id="p1G6sg5tUr" d="M4687 8334 c-4 -4 -7 -20 -7 -36 0 -25 -4 -28 -31 -28 -18 0 -50 5 -72 12 -34 10 -41 10 -52 -5 -7 -9 -24 -17 -39 -17 -19 0 -26 -5 -26 -20 0 -15 7 -20 25 -20 14 0 34 -9 45 -20 22 -22 45 -26 55 -10 3 6 29 10 57 10 l50 0 -6 -44 c-7 -43 -6 -45 21 -48 15 -2 70 -2 121 0 l93 3 -3 112 -3 112 -111 3 c-60 1 -113 -1 -117 -4z"></path><path id="pRDOn2pGo" d="M5030 8225 l0 -115 146 0 c86 0 154 -4 166 -11 14 -8 23 -8 31 0 23 23 56 12 71 -24 9 -21 26 -40 43 -47 15 -6 105 -87 198 -180 l171 -169 169 3 c165 3 170 4 173 24 4 29 -22 33 -193 29 l-140 -4 -133 132 c-149 146 -192 199 -192 233 0 21 -4 23 -29 18 -25 -5 -32 -2 -45 25 -13 24 -23 31 -46 31 -16 0 -32 5 -36 11 -3 6 -22 9 -43 6 -20 -2 -46 0 -58 4 -21 8 -23 15 -23 79 l0 70 -115 0 -115 0 0 -115z"></path><path id="pfhfgTZV8" d="M8760 8157 c0 -75 -3 -88 -29 -128 -16 -24 -86 -100 -155 -169 l-126 -125 -198 -5 c-195 -5 -197 -5 -200 -27 l-3 -23 207 0 208 0 156 155 c172 171 179 175 297 175 l73 0 0 115 0 115 -115 0 -115 0 0 -83z"></path><path id="pwAKy7uHW" d="M9104 8227 c-2 -7 -3 -58 -2 -113 l3 -99 112 -3 112 -3 3 33 c3 30 6 33 32 30 16 -2 33 3 40 12 6 8 25 16 41 18 22 2 31 9 33 26 3 19 -1 22 -31 22 -21 0 -37 6 -40 14 -3 8 -21 16 -39 18 -28 2 -34 7 -36 31 l-3 27 -110 0 c-82 0 -111 -3 -115 -13z"></path><path id="p7huvbZf0" d="M4687 7893 c-4 -3 -7 -21 -7 -39 0 -18 -4 -35 -10 -39 -20 -13 -81 -8 -98 8 -34 31 -42 21 -42 -53 0 -76 6 -82 47 -50 26 20 68 26 89 12 7 -4 14 -18 15 -32 4 -25 5 -25 122 -28 l117 -3 0 116 0 115 -113 0 c-63 0 -117 -3 -120 -7z"></path><path id="p4imVSMMX" d="M6320 7661 c0 -187 15 -171 -156 -171 -61 0 -145 -3 -187 -6 -66 -6 -77 -10 -77 -25 0 -21 12 -23 128 -19 40 1 122 -1 183 -5 l109 -7 0 -153 0 -152 -31 -7 c-17 -3 -106 -6 -198 -6 -91 0 -172 -4 -180 -9 -8 -5 -11 -16 -8 -25 6 -14 31 -16 179 -17 95 -1 187 -4 203 -8 l30 -6 5 -410 5 -410 799 0 800 0 -3 795 -2 795 -800 3 -799 2 0 -159z m532 -203 c31 -13 53 -30 59 -45 9 -25 24 -28 63 -13 21 8 26 16 26 45 0 43 21 47 37 6 10 -28 13 -29 49 -21 22 5 56 5 77 1 34 -8 39 -7 58 20 11 16 29 29 40 29 15 0 19 -7 19 -38 0 -33 4 -40 45 -65 25 -15 48 -27 50 -27 3 0 5 27 5 60 0 41 4 60 13 61 6 0 52 0 100 0 80 0 92 -2 123 -26 46 -35 54 -59 54 -161 0 -118 -24 -161 -98 -173 l-37 -7 3 -52 c2 -29 -2 -76 -8 -105 -14 -59 -61 -157 -84 -176 -26 -22 -19 -42 31 -93 26 -26 43 -51 39 -55 -4 -4 -29 15 -56 42 -141 143 -170 169 -170 154 0 -8 15 -37 33 -63 55 -82 78 -129 67 -140 -10 -10 -475 -10 -491 0 -5 3 -9 16 -9 30 0 20 -15 53 -37 83 -2 3 -30 -22 -63 -54 -33 -32 -63 -56 -67 -52 -4 4 17 31 45 60 l53 53 -36 60 c-47 78 -65 142 -65 230 0 68 -1 72 -25 78 -35 9 -96 65 -111 103 -8 18 -14 55 -14 83 0 146 140 229 282 168z"></path><path id="pQZfCQc7g" d="M7420 7414 c-19 -48 -9 -82 18 -65 15 9 62 72 62 83 0 4 -16 8 -35 8 -29 0 -37 -5 -45 -26z"></path><path id="pP73JQJoL" d="M6750 7420 c0 -22 50 -81 78 -91 21 -8 29 -7 39 7 21 29 16 60 -12 72 -43 20 -105 26 -105 12z"></path><path id="pg1sEaiLT" d="M7483 7372 c-29 -31 -53 -61 -53 -67 0 -5 18 -37 40 -70 22 -33 40 -65 40 -72 0 -21 18 -24 54 -9 51 21 67 53 67 129 0 70 -18 119 -50 137 -32 17 -44 11 -98 -48z"></path><path id="pj2wlzUe2" d="M6662 7397 c-12 -13 -29 -44 -38 -69 -14 -41 -14 -50 0 -83 24 -57 55 -95 78 -95 24 0 40 19 69 79 19 40 19 45 5 53 -18 10 -22 38 -6 38 17 0 11 15 -22 58 -37 48 -55 52 -86 19z"></path><path id="pIetHFc4M" d="M7058 7403 c-14 -3 -17 -23 -20 -126 -2 -67 -2 -124 -1 -125 1 -2 13 18 26 45 14 26 46 82 71 123 25 41 46 78 46 82 0 8 -92 9 -122 1z"></path><path id="pzNYnE2eW" d="M7222 7387 c-5 -6 -19 -30 -30 -53 -11 -22 -39 -68 -61 -101 -22 -34 -48 -77 -57 -96 -16 -34 -16 -36 5 -66 12 -17 29 -31 38 -31 15 0 106 89 124 122 12 21 12 225 0 232 -5 3 -13 0 -19 -7z"></path><path id="ppODxsPWU" d="M6938 7368 c-8 -7 -22 -34 -31 -59 -14 -42 -13 -47 5 -72 18 -25 86 -73 92 -66 1 2 1 50 -2 107 -4 97 -5 102 -26 102 -12 0 -29 -6 -38 -12z"></path><path id="prQqKPZ8T" d="M7280 7285 c0 -47 3 -85 6 -85 12 0 94 91 94 105 0 15 -66 65 -87 65 -10 0 -13 -23 -13 -85z"></path><path id="pfeOcKNIg" d="M6818 7268 c-13 -11 -58 -106 -58 -122 0 -13 35 -5 67 15 44 27 68 72 53 99 -12 23 -39 26 -62 8z"></path><path id="p103d3K0aP" d="M7414 7224 c-10 -53 5 -88 39 -92 17 -2 29 2 33 11 6 17 -27 87 -50 106 -13 11 -16 7 -22 -25z"></path><path id="p12rvwdq7q" d="M7340 7227 c-39 -34 -60 -69 -60 -99 0 -30 -9 -35 -28 -16 -9 9 -24 -1 -64 -41 l-53 -53 29 -24 c26 -23 29 -24 47 -9 24 22 39 11 40 -28 0 -18 4 -40 8 -50 11 -28 133 -147 151 -147 38 0 115 216 107 298 l-4 37 -61 3 c-57 3 -62 5 -68 28 -4 14 -4 47 -2 75 6 55 -3 61 -42 26z"></path><path id="p16RlC7idv" d="M6896 7161 c-29 -45 -65 -65 -109 -58 -42 6 -51 -13 -44 -101 6 -86 25 -148 63 -205 l25 -38 28 28 c15 15 55 50 89 77 35 28 62 58 62 68 0 30 -44 21 -90 -17 -46 -38 -63 -40 -68 -8 -5 32 60 83 107 83 58 0 131 -12 126 -20 -3 -4 2 -24 10 -44 33 -78 11 -147 -57 -182 -32 -16 -101 -12 -126 9 -25 20 -23 -2 4 -42 29 -44 35 -47 129 -56 71 -6 55 -6 178 1 106 7 117 15 79 65 -31 41 -59 94 -76 146 -23 69 -81 136 -111 129 -18 -5 -22 -2 -19 12 3 11 -24 45 -85 106 l-89 89 -26 -42z"></path><path id="pLcnOYgBK" d="M6977 6862 c-31 -32 -57 -63 -57 -69 0 -11 32 -23 66 -23 25 0 84 59 84 85 0 34 -12 65 -24 65 -6 0 -37 -26 -69 -58z"></path><path id="pVh9qMGOz" d="M8803 7813 l-42 -4 -3 -92 c-3 -88 -4 -91 -28 -98 -14 -4 -162 -8 -330 -8 -168 -1 -315 -4 -327 -7 -14 -4 -23 -14 -23 -25 0 -18 14 -19 356 -19 195 0 363 4 372 9 9 5 45 11 80 14 62 5 63 4 97 -32 19 -20 35 -39 35 -43 0 -3 15 -15 33 -26 36 -22 124 -25 1087 -41 261 -5 484 -12 496 -15 11 -4 418 -8 904 -9 l884 -2 12 -65 c7 -36 13 -93 13 -127 l1 -63 438 -1 c240 0 449 -2 464 -4 15 -2 32 3 38 10 9 11 1 17 -43 31 -71 22 -139 73 -162 120 -27 55 -27 158 0 208 22 42 124 116 159 116 30 0 63 24 47 34 -13 8 -914 8 -935 0 -7 -3 -16 -27 -19 -56 -4 -28 -12 -55 -19 -60 -7 -4 -389 -8 -848 -8 -520 -1 -854 -5 -885 -11 -48 -10 -798 -28 -1335 -33 l-255 -2 -37 37 -38 37 0 121 0 121 -72 -2 c-40 -1 -92 -3 -115 -5z"></path><path id="p1FogIz0Rp" d="M9132 7813 l-33 -4 3 -112 3 -112 115 0 c95 0 114 3 112 14 -2 8 -1 25 3 38 4 18 10 22 28 17 15 -3 28 0 36 10 8 9 26 16 41 16 16 0 30 7 34 16 9 23 -2 34 -34 34 -20 0 -31 6 -35 21 -5 16 -14 19 -38 17 -28 -3 -32 0 -35 25 l-3 27 -82 -2 c-45 0 -97 -3 -115 -5z"></path><path id="p10L3Jaf0j" d="M875 7670 c-10 -17 4 -30 33 -30 162 0 276 -190 196 -326 -43 -74 -72 -91 -212 -130 -7 -2 -10 -8 -7 -14 4 -6 171 -10 476 -10 l469 0 -2 258 -3 257 -472 3 c-309 1 -474 -1 -478 -8z"></path><path id="pcCJE7Sqb" d="M8133 7482 c-46 -1 -83 -7 -83 -12 0 -6 0 -13 0 -17 0 -5 124 -10 275 -13 l274 -5 48 -46 c26 -26 63 -54 81 -63 l32 -17 0 -79 0 -80 89 0 89 0 22 -34 c11 -19 36 -48 54 -64 l33 -29 464 -7 c255 -5 598 -9 761 -11 245 -3 303 -6 330 -19 19 -9 303 -287 633 -618 l600 -602 276 3 c188 2 279 0 283 -7 4 -6 12 -50 18 -97 l11 -85 412 0 c227 0 427 -3 444 -6 27 -6 31 -4 31 15 0 14 -12 27 -39 40 -52 27 -99 67 -116 101 -22 42 -28 120 -15 170 18 66 116 154 190 170 14 3 25 11 25 18 0 11 -85 13 -459 12 -253 0 -462 -3 -466 -5 -4 -3 -10 -28 -13 -57 -10 -84 -19 -122 -31 -130 -6 -4 -119 -8 -252 -8 l-240 0 -606 606 -606 607 -63 -7 c-35 -4 -262 -11 -504 -16 -242 -5 -578 -12 -747 -16 l-308 -7 -35 37 -34 37 -3 122 -3 122 -134 -4 -133 -3 -54 53 -55 54 -197 0 c-108 0 -234 -1 -279 -3z"></path><path id="p12O3nYOA4" d="M4687 7444 c-4 -4 -7 -22 -7 -40 0 -29 -4 -32 -35 -38 -27 -5 -44 -2 -69 13 -18 12 -36 18 -39 14 -10 -10 -8 -86 2 -102 8 -12 16 -13 48 -2 62 20 87 12 93 -29 l5 -35 118 -3 118 -3 -3 113 -3 113 -111 3 c-60 1 -113 -1 -117 -4z"></path><path id="poJ2KQsLx" d="M5030 7352 c0 -112 -9 -151 -42 -184 -23 -23 -25 -23 -286 -26 l-263 -3 -85 83 -85 83 -260 3 -259 4 -109 -106 c-97 -94 -112 -105 -133 -98 -12 5 -115 6 -228 3 l-205 -6 -1 -185 -1 -185 -29 -2 c-16 -1 -78 -9 -139 -18 -155 -23 -1040 -19 -1055 5 -5 8 -10 47 -10 87 l0 71 -467 4 c-258 2 -476 1 -485 -1 -27 -5 -21 -20 10 -26 106 -22 169 -61 202 -124 22 -44 26 -122 10 -182 -18 -65 -128 -149 -195 -149 -16 0 -25 -6 -25 -15 0 -13 57 -15 473 -13 l472 3 3 70 c1 39 4 80 7 92 l5 23 773 2 772 3 5 225 5 225 88 11 88 10 97 97 97 97 250 6 250 6 75 -76 74 -76 275 0 275 0 63 65 63 65 80 0 80 0 0 44 c0 62 22 76 120 76 l75 0 72 -75 72 -76 253 -5 c139 -3 275 -2 301 1 42 6 48 10 45 29 -3 21 -4 21 -291 22 l-288 0 -77 77 c-74 74 -79 77 -123 77 -93 0 -140 11 -151 36 -11 23 -15 24 -125 24 l-113 0 0 -98z"></path><path id="pyF3a64Ll" d="M9100 7265 l0 -116 118 3 117 3 3 33 c3 28 6 31 27 26 16 -4 30 1 44 15 12 12 30 21 41 21 15 0 20 7 20 25 0 21 -5 25 -30 25 -18 0 -33 6 -37 15 -4 11 -16 15 -37 13 -27 -3 -31 0 -34 25 l-3 27 -115 0 -114 0 0 -115z"></path><path id="psojy6a9t" d="M8057 7354 c-4 -4 -7 -15 -7 -25 0 -16 12 -19 113 -21 l112 -3 3 -32 3 -33 -68 -1 c-102 -1 -157 -11 -161 -30 -4 -24 9 -25 156 -21 120 4 132 6 132 22 0 27 15 32 58 21 29 -8 64 -38 152 -129 63 -65 136 -146 163 -180 46 -62 47 -63 47 -137 l0 -75 115 0 115 0 0 119 0 118 -78 -1 -78 -1 -79 67 c-44 36 -132 119 -195 182 l-115 116 -52 0 c-46 0 -52 2 -55 23 -3 21 -7 22 -139 25 -74 1 -138 -1 -142 -4z"></path><path id="pR6yNqiiG" d="M5097 7080 l-59 -60 -417 2 -416 3 0 40 0 40 -160 0 -160 0 0 -270 0 -270 140 -3 c77 -1 150 0 162 3 21 5 21 8 20 197 l-2 192 40 8 c22 4 213 7 425 7 l384 1 58 60 57 60 171 0 171 0 72 -71 c40 -39 81 -74 92 -78 11 -3 134 -5 273 -3 241 3 252 4 252 23 0 22 10 21 -317 23 l-202 1 -78 78 -78 77 -184 0 -184 0 -60 -60z"></path><path id="pyMMmdNmu" d="M8073 7103 c-15 -3 -23 -12 -23 -24 0 -18 8 -19 145 -19 l145 0 0 25 0 25 -122 -1 c-68 -1 -133 -4 -145 -6z"></path><path id="p1Bpv5IyuR" d="M8250 7042 c-30 -5 -45 -12 -45 -22 0 -12 18 -16 83 -20 l83 -5 100 -102 c90 -91 100 -105 95 -130 -5 -24 4 -38 63 -103 l69 -75 613 -3 c337 -1 615 -4 617 -7 3 -3 6 -58 6 -122 l1 -118 273 -3 272 -2 0 160 0 160 -25 6 c-32 8 -452 -3 -605 -16 -63 -5 -341 -10 -618 -10 l-503 0 -60 57 c-50 48 -59 61 -59 92 0 32 -12 48 -112 150 -108 110 -113 114 -157 117 -25 1 -66 -1 -91 -4z"></path><path id="pbHmtdVZ2" d="M8118 6983 c-60 -3 -68 -6 -68 -23 0 -19 8 -20 143 -20 79 0 146 3 149 6 3 3 4 14 1 25 -6 20 -33 22 -225 12z"></path><path id="p19AqIP7UR" d="M9183 6943 l-83 -4 0 -115 0 -115 118 3 117 3 -3 27 c-4 32 11 43 38 28 17 -9 22 -7 30 15 6 15 17 25 29 25 33 0 51 11 51 31 0 15 -7 19 -34 19 -21 0 -36 6 -40 15 -3 10 -16 14 -38 13 -29 -3 -33 0 -38 27 -6 34 -6 34 -147 28z"></path><path id="pKdLS3IRL" d="M12770 6909 l-55 -31 -145 4 -145 3 -3 -260 -2 -260 441 2 c243 1 444 4 446 7 10 10 -9 27 -56 51 -68 34 -107 82 -121 150 -28 135 31 227 173 271 41 13 57 22 55 33 -2 10 -13 15 -28 14 -225 -17 -313 -9 -358 30 l-22 21 -28 -27 c-35 -34 -50 -34 -62 -2 -12 32 -23 31 -90 -6z"></path><path id="p63HCVwBI" d="M5510 6870 c-8 -5 -31 -10 -51 -10 -38 0 -54 -12 -61 -45 -2 -12 -13 -21 -26 -23 -18 -3 -21 -9 -19 -35 l2 -32 -163 -5 -164 -5 1 -102 c0 -57 0 -107 1 -113 0 -6 45 -10 115 -10 l114 0 3 78 3 77 62 20 c69 23 168 88 141 93 -18 3 -31 29 -22 43 7 13 61 11 69 -2 4 -6 14 -7 24 -2 9 4 160 10 336 13 l320 5 3 22 3 22 -308 4 c-169 2 -321 7 -338 11 -16 3 -37 2 -45 -4z"></path><path id="prXfPEyJf" d="M8052 6838 c3 -22 6 -23 138 -26 138 -2 168 4 157 32 -5 14 -28 16 -152 16 -146 0 -146 0 -143 -22z"></path><path id="pzkSXiAtL" d="M5470 6534 c-113 -113 -218 -212 -234 -221 -16 -8 -70 -18 -120 -22 l-90 -6 3 -100 c3 -111 -4 -137 -45 -178 l-28 -28 -411 4 c-225 3 -437 10 -470 15 -33 5 -83 13 -112 17 l-51 8 -63 -62 -63 -61 -955 0 c-536 0 -962 4 -970 9 -9 6 -16 38 -20 97 l-6 89 -479 0 c-367 0 -480 -3 -483 -12 -3 -7 8 -15 24 -19 109 -24 168 -65 207 -141 18 -36 21 -110 6 -164 -20 -72 -127 -149 -206 -149 -31 0 -35 -2 -24 -15 11 -13 74 -15 484 -13 l471 3 6 83 c4 45 10 86 13 90 4 4 456 8 1004 9 l996 3 66 64 c36 36 79 70 95 77 22 9 156 13 480 16 248 2 459 6 470 8 11 3 43 32 70 65 l50 60 88 0 87 0 0 80 c0 46 6 95 14 113 14 35 399 427 419 427 7 1 119 2 249 3 243 2 268 6 255 41 -6 14 -39 16 -264 16 l-258 0 -205 -206z"></path><path id="pOlq9xx62" d="M8068 6733 c-10 -2 -18 -13 -18 -24 0 -22 2 -22 175 -19 113 1 132 7 122 34 -5 14 -27 16 -134 15 -70 -1 -136 -3 -145 -6z"></path><path id="pIGtmHgnJ" d="M4687 6713 c-4 -4 -4 -22 -1 -40 l6 -33 -43 0 c-24 0 -59 4 -76 9 -22 6 -35 6 -39 -1 -4 -5 -22 -16 -40 -24 -23 -10 -34 -21 -34 -35 0 -18 4 -20 45 -13 37 5 45 3 45 -9 0 -26 18 -29 42 -7 13 12 29 18 38 14 8 -4 25 -9 38 -12 19 -4 22 -10 20 -36 l-3 -31 118 -3 117 -3 0 116 0 115 -113 0 c-63 0 -117 -3 -120 -7z"></path><path id="pYqsMVToD" d="M5868 6611 l-108 -6 -140 -140 -140 -140 0 -111 0 -111 -118 -115 c-131 -129 -149 -138 -264 -138 -47 0 -68 -4 -69 -12 -1 -7 0 -52 1 -100 2 -105 -21 -171 -67 -189 -19 -7 -113 -9 -288 -6 l-260 4 -161 -156 c-88 -86 -191 -184 -230 -218 l-69 -62 -1048 -1 -1047 0 -10 26 c-6 14 -10 57 -10 95 l0 69 -297 1 c-164 1 -371 3 -461 5 -159 3 -237 -7 -202 -25 8 -5 35 -11 59 -15 77 -12 125 -47 162 -118 25 -49 25 -148 0 -203 -30 -67 -113 -125 -180 -125 -27 0 -47 -20 -34 -34 4 -3 214 -6 468 -6 358 0 465 3 472 13 6 6 13 47 16 90 3 44 8 81 10 83 3 3 389 5 858 4 470 0 954 3 1077 6 l223 7 13 31 c15 36 187 226 332 367 l99 97 90 8 c50 5 168 8 263 7 l172 -1 57 65 56 64 81 -2 81 -2 5 89 c3 57 11 100 22 121 10 17 70 83 133 146 l115 114 0 113 0 112 119 121 120 122 213 5 c212 5 213 5 216 28 3 21 0 22 -60 22 -35 0 -85 2 -113 4 -27 2 -98 1 -157 -3z"></path><path id="pl7jbZ1Qi" d="M8187 6613 c-118 -4 -137 -8 -137 -33 0 -19 7 -20 184 -20 l185 0 94 -95 94 -95 57 0 c60 0 96 -22 96 -59 0 -35 25 -44 99 -37 l69 7 21 -35 c12 -19 37 -48 55 -64 l33 -29 268 -6 c207 -5 272 -10 289 -21 28 -18 244 -238 287 -291 50 -64 59 -94 59 -210 l0 -105 193 0 c214 0 194 5 297 -79 30 -24 328 -317 663 -650 l607 -606 346 -2 c190 -1 348 -3 350 -6 2 -2 9 -44 16 -93 l13 -89 453 -5 c408 -4 455 -3 468 11 13 15 8 18 -48 39 -208 75 -228 319 -36 416 34 17 48 30 46 42 -3 16 -38 17 -446 20 l-442 2 -1 -37 c0 -21 -6 -65 -13 -98 l-13 -60 -318 -3 -319 -2 -563 562 c-310 310 -583 587 -606 617 -23 29 -57 71 -74 93 -33 39 -33 41 -33 144 0 99 -1 104 -22 109 -13 3 -116 4 -229 3 l-205 -3 -45 30 c-24 17 -114 98 -199 182 l-156 152 -284 -6 c-271 -5 -286 -5 -308 13 -30 24 -41 80 -42 202 l0 93 -112 -3 -112 -3 -7 -33 c-4 -18 -9 -35 -12 -38 -3 -3 -30 -8 -62 -11 l-57 -6 -96 96 -97 96 -78 3 c-43 2 -120 2 -170 1z"></path><path id="pQi8D2Kn5" d="M9107 6503 c-4 -3 -7 -55 -7 -115 l0 -109 118 3 117 3 3 27 c3 21 13 30 52 47 27 12 51 25 54 30 8 13 -15 29 -49 33 -24 2 -34 11 -49 46 l-19 42 -107 0 c-59 0 -110 -3 -113 -7z"></path><path id="pR0icWDVy" d="M5815 6481 c-25 -11 -205 -196 -206 -213 -1 -7 -2 -106 -3 -220 l-1 -207 -29 -30 c-16 -17 -53 -40 -82 -52 -46 -19 -54 -27 -61 -58 -8 -31 -13 -37 -43 -41 -26 -4 -35 -11 -43 -35 -12 -38 -41 -79 -90 -130 -21 -22 -43 -50 -48 -62 -8 -21 -15 -23 -88 -23 -51 0 -82 -4 -88 -12 -5 -7 -7 -61 -5 -120 l4 -108 114 0 114 0 0 133 0 133 45 44 c24 24 66 55 92 69 40 22 49 32 53 60 4 30 10 36 45 45 33 9 44 19 62 56 13 24 39 60 58 80 l35 36 0 214 0 214 93 93 93 93 177 0 c151 0 179 2 184 15 3 9 2 19 -2 23 -10 10 -356 13 -380 3z"></path><path id="pkDyRvnDo" d="M8083 6483 c-25 -3 -33 -9 -33 -24 0 -18 8 -19 155 -19 l156 0 126 -122 c69 -68 159 -161 199 -207 l74 -83 0 -68 c0 -37 8 -100 19 -141 10 -41 22 -118 26 -172 l7 -98 97 -97 c54 -53 128 -135 165 -182 l66 -84 0 -202 0 -201 95 -6 c53 -4 105 -12 118 -18 54 -29 159 -129 760 -728 l637 -636 823 -1 822 -1 15 -94 15 -94 450 -3 c248 -1 460 0 473 3 30 7 28 23 -5 30 -96 21 -182 90 -202 162 -35 126 26 239 153 281 49 17 69 36 44 43 -7 2 -217 3 -465 1 l-453 -2 0 -32 c0 -18 -5 -58 -12 -89 -9 -44 -17 -59 -32 -63 -12 -3 -370 -6 -796 -6 l-775 0 -598 598 c-602 601 -686 690 -727 772 -21 42 -22 53 -19 230 l4 185 -106 5 c-105 5 -106 5 -153 43 -25 21 -94 84 -151 140 l-106 102 11 109 c5 60 14 114 20 120 6 6 10 59 10 123 l0 113 -59 -6 c-69 -8 -99 -2 -126 24 -11 10 -40 32 -65 49 -25 17 -117 104 -205 192 l-160 161 -130 -2 c-71 0 -145 -3 -162 -5z"></path><path id="pygWqyBDl" d="M13327 6394 c-9 -10 4 -34 18 -34 20 0 30 21 14 31 -17 10 -24 11 -32 3z"></path><path id="pZYqU7mPk" d="M5880 6363 c-25 -9 -131 -116 -144 -146 -10 -21 -12 -100 -8 -307 l5 -279 -64 -66 c-35 -37 -76 -73 -91 -81 -16 -8 -28 -20 -28 -26 0 -7 -47 -60 -105 -118 l-105 -107 0 -69 c-1 -76 -10 -99 -57 -138 -50 -42 -95 -56 -178 -56 l-75 0 0 -110 c0 -119 -10 -155 -52 -184 -19 -14 -63 -16 -283 -16 -185 -1 -266 -4 -281 -13 -42 -23 -311 -278 -576 -544 l-268 -269 -1 -139 c0 -77 -5 -192 -11 -255 -6 -63 -13 -467 -17 -897 -3 -430 -9 -784 -12 -788 -4 -3 -44 -10 -90 -15 -46 -5 -94 -12 -105 -16 -22 -6 -22 -7 -26 -462 -3 -252 -3 -459 -1 -461 8 -11 41 37 58 84 44 120 181 170 303 109 58 -29 86 -63 111 -132 10 -27 23 -47 31 -47 13 0 15 66 18 462 l2 462 -72 3 -73 3 -6 785 c-5 635 -9 820 -23 970 -10 102 -16 211 -14 243 l4 58 320 322 c175 177 351 358 390 402 l71 80 249 -3 c162 -2 259 0 277 7 15 6 53 38 84 71 l55 60 84 0 84 0 0 88 c1 92 7 110 55 164 71 79 75 86 75 161 l0 70 195 197 195 197 0 298 0 298 49 48 48 49 146 0 c80 0 152 3 161 6 24 9 19 41 -6 48 -28 7 -277 7 -298 -1z"></path><path id="p10ioENXbd" d="M8133 6363 c-73 -3 -83 -6 -83 -22 0 -25 38 -29 180 -22 91 5 115 9 115 21 0 8 -11 17 -25 21 -26 7 -46 7 -187 2z"></path><path id="poIcsZqJ" d="M4684 6276 c-3 -7 -4 -17 -3 -22 8 -46 -30 -61 -91 -37 -56 22 -72 13 -68 -39 l3 -43 83 4 83 3 -3 -38 -3 -39 115 0 115 0 3 113 3 112 -116 0 c-88 0 -117 -3 -121 -14z"></path><path id="p2zH3O7nT" d="M5917 6233 c-10 -3 -17 -12 -15 -21 3 -15 21 -17 148 -17 138 0 145 1 145 20 0 19 -7 20 -130 21 -71 1 -138 0 -148 -3z"></path><path id="p167q0eMqF" d="M8057 6234 c-4 -4 -7 -16 -7 -26 0 -17 9 -18 148 -16 139 3 147 4 147 23 0 19 -8 20 -141 23 -77 1 -143 -1 -147 -4z"></path><path id="p1BfoAPCMm" d="M6301 6087 c-8 -8 -11 -99 -11 -297 l0 -286 -66 -64 c-36 -36 -72 -77 -80 -92 -10 -20 -14 -68 -14 -190 l0 -163 -160 -158 -159 -159 -3 -358 -3 -359 -222 -224 -223 -224 0 -54 c0 -39 -7 -68 -25 -102 -21 -39 -25 -59 -23 -110 l3 -62 70 0 70 0 3 53 c2 40 -2 64 -18 94 -33 64 -44 136 -24 167 8 14 80 89 158 166 78 77 175 175 214 217 l72 77 0 352 0 353 163 163 162 164 1 170 1 171 69 69 c38 38 75 69 82 69 9 0 12 6 8 16 -3 9 -6 148 -6 309 0 240 -3 294 -14 298 -7 3 -19 0 -25 -6z"></path><path id="pzJGo6ZNA" d="M6794 6087 c-2 -7 -3 -74 -2 -148 3 -126 4 -134 23 -134 19 0 20 7 21 140 2 134 -2 154 -29 155 -4 0 -10 -6 -13 -13z"></path><path id="p1GHsuQIal" d="M6923 6083 c-4 -10 -8 -74 -8 -143 0 -122 1 -125 23 -128 20 -3 22 -9 22 -66 0 -62 0 -62 55 -116 l55 -54 0 -510 c0 -344 -4 -529 -12 -572 l-11 -63 -51 -3 -51 -3 0 -270 0 -270 110 -3 c61 -2 134 0 163 3 l52 6 0 270 0 269 -54 0 -53 0 -7 77 c-3 42 -6 307 -6 590 l0 514 -55 51 c-50 47 -55 55 -55 95 0 38 3 45 26 53 l26 10 -6 132 c-3 89 -9 134 -18 139 -18 11 -28 1 -28 -29 0 -58 -10 -73 -44 -70 -29 3 -31 6 -36 52 -5 51 -25 71 -37 39z"></path><path id="pytteYpB6" d="M7297 6094 c-4 -4 -7 -70 -7 -146 0 -117 2 -140 16 -145 32 -12 37 11 28 153 -8 126 -17 158 -37 138z"></path><path id="pwdfX8ope" d="M7415 6078 c-2 -13 -6 -151 -7 -308 -3 -253 -5 -288 -20 -310 -14 -18 -18 -44 -18 -103 l0 -79 -65 -60 -65 -61 0 -231 0 -232 158 -157 158 -157 92 0 c57 0 93 -4 98 -11 4 -7 7 -117 7 -245 l1 -234 85 0 c63 0 95 -5 119 -17 41 -23 250 -200 269 -229 12 -19 14 -157 13 -955 0 -513 -3 -935 -5 -937 -3 -3 -44 -8 -92 -11 l-88 -6 0 -463 c-1 -333 2 -462 10 -462 6 0 24 27 39 60 52 112 146 164 251 141 95 -21 146 -73 179 -181 7 -25 18 -45 25 -45 16 0 16 922 0 942 -8 8 -34 13 -76 13 -116 0 -103 -119 -103 983 l0 961 -84 81 c-94 89 -166 176 -196 235 -18 35 -20 59 -20 235 l0 195 -167 2 c-93 2 -208 1 -257 -1 l-89 -3 -138 138 -139 139 0 222 0 222 35 28 c33 26 42 28 152 33 l118 5 0 115 0 115 -53 -3 c-52 -4 -52 -3 -67 32 -12 28 -15 91 -15 325 0 254 -2 290 -16 295 -23 9 -23 8 -29 -16z"></path><path id="p19kaTA1l7" d="M7547 6093 c-3 -5 -7 -69 -9 -143 l-3 -135 28 -3 27 -3 0 -104 0 -104 69 -73 c142 -151 141 -150 141 -239 l0 -79 78 0 c44 0 113 -3 155 -6 l77 -7 0 -310 c0 -352 -3 -336 86 -407 l44 -35 0 -202 c0 -190 1 -204 20 -223 24 -24 67 -26 98 -4 22 15 22 19 22 244 l0 228 -65 63 -65 63 0 312 c0 270 -2 313 -16 325 -20 16 -108 46 -161 55 l-43 6 0 64 0 64 -65 0 c-85 0 -124 20 -220 112 l-75 71 0 87 c0 79 2 88 20 93 19 5 20 14 20 145 0 130 -1 140 -19 145 -28 7 -31 1 -31 -59 0 -58 -2 -60 -45 -65 l-30 -4 -5 64 c-4 58 -19 86 -33 64z"></path><path id="pdwpmeQe6" d="M7915 6088 c-3 -8 -4 -75 -3 -149 3 -126 4 -134 23 -134 19 0 20 7 20 145 0 130 -2 145 -18 148 -9 2 -19 -3 -22 -10z"></path><path id="p15133ZcHV" d="M6414 6054 c-4 -20 -3 -163 1 -318 4 -155 3 -299 -1 -321 -6 -32 -22 -55 -81 -113 -40 -40 -73 -81 -74 -90 0 -9 0 -108 1 -220 l1 -203 -126 -129 -126 -129 7 -673 7 -674 -34 -39 c-54 -62 -127 -114 -167 -120 -86 -14 -82 -11 -82 -63 0 -90 3 -93 79 -90 l66 3 6 40 c10 55 41 107 111 184 l58 64 0 680 0 680 125 127 125 126 0 219 0 220 75 75 75 75 6 225 c4 124 4 287 -1 363 -6 124 -9 137 -26 137 -13 0 -20 -10 -25 -36z"></path><path id="p3SUiVUVr" d="M6540 5704 c0 -260 -4 -392 -11 -406 -6 -11 -32 -42 -57 -70 l-47 -49 -5 -270 -5 -270 -47 -45 c-27 -25 -49 -53 -50 -62 -1 -10 -3 -80 -5 -157 -1 -77 -5 -229 -8 -337 l-6 -196 105 -105 c57 -58 138 -147 180 -197 l76 -92 0 -836 c0 -464 -4 -843 -9 -851 -6 -9 -38 -16 -90 -21 -45 -4 -83 -9 -86 -11 -2 -3 -5 -216 -6 -474 -2 -531 0 -542 56 -383 20 58 56 94 123 126 45 20 63 23 104 18 56 -8 114 -34 140 -63 9 -10 29 -44 42 -76 15 -33 32 -57 41 -57 13 0 15 53 13 457 l-3 458 -70 3 c-38 1 -80 4 -92 7 l-23 5 0 870 0 869 -97 78 c-54 43 -148 127 -210 187 l-112 109 -5 181 c-3 100 -8 248 -11 330 l-6 149 52 53 52 53 1 264 1 265 63 65 62 65 0 401 0 401 -25 0 -25 0 0 -386z"></path><path id="pSO9ePg8Z" d="M6667 6083 c-10 -10 -8 -256 2 -272 5 -8 16 -11 25 -8 14 5 16 27 16 147 0 129 -1 140 -18 140 -10 0 -22 -3 -25 -7z"></path><path id="p17x5WUkJt" d="M7160 5951 c0 -118 2 -140 16 -145 9 -3 20 -4 25 0 5 3 9 68 9 145 l0 139 -25 0 -25 0 0 -139z"></path><path id="pgfBflqTi" d="M7784 6077 c-2 -7 -3 -71 -2 -143 3 -125 4 -129 26 -132 22 -3 22 -3 22 142 0 140 -1 146 -20 146 -11 0 -23 -6 -26 -13z"></path><path id="pYCqTpxW6" d="M9113 6063 c-9 -3 -13 -36 -13 -113 0 -124 -3 -120 96 -120 68 0 124 -20 155 -56 9 -11 31 -45 49 -77 18 -32 39 -61 47 -64 25 -10 34 10 20 46 -9 27 -9 35 1 38 25 9 13 44 -21 58 -19 8 -50 32 -70 54 -36 40 -37 44 -37 115 0 41 -4 86 -10 100 -9 26 -11 26 -107 25 -54 0 -104 -3 -110 -6z"></path><path id="pf1PXESnr" d="M4689 5843 c-1 -4 -2 -19 -3 -33 -1 -22 -6 -25 -45 -28 -24 -2 -49 2 -54 7 -16 16 -54 13 -61 -4 -3 -9 -18 -15 -36 -15 -27 0 -31 -3 -28 -22 2 -16 11 -24 28 -26 14 -2 33 -11 43 -20 16 -14 20 -14 53 1 19 9 48 17 64 17 27 0 30 -3 30 -34 0 -66 1 -66 126 -66 l115 0 -3 113 -3 112 -112 3 c-62 1 -114 -1 -114 -5z"></path><path id="pzoC4wL8D" d="M6747 5653 c-15 -14 -6 -56 17 -83 20 -25 22 -35 16 -71 -8 -45 -22 -59 -57 -59 -22 0 -23 -3 -23 -92 0 -51 -4 -98 -8 -104 -4 -7 -23 -18 -42 -27 -19 -8 -51 -31 -70 -51 l-35 -37 -5 -349 c-5 -328 -6 -349 -25 -370 -16 -18 -17 -23 -5 -30 8 -6 18 -10 22 -10 4 0 8 -17 10 -37 2 -30 7 -38 23 -38 16 0 21 8 23 35 2 19 9 38 15 42 8 5 8 21 -1 58 -8 34 -12 158 -12 364 l0 312 28 26 c15 14 49 37 77 52 43 23 62 26 142 26 l93 0 0 115 0 115 -30 0 c-25 0 -33 6 -45 33 -7 17 -17 48 -20 69 -3 20 -12 38 -19 41 -8 3 -19 22 -26 41 -11 34 -28 45 -43 29z"></path><path id="p2ck9VP1x" d="M5961 5591 c-6 -10 -10 -85 -10 -167 0 -82 0 -154 0 -160 -1 -22 -689 -698 -728 -716 -24 -11 -64 -18 -108 -18 -38 0 -75 -4 -82 -8 -14 -9 -1 -208 18 -283 l13 -49 -372 -373 c-204 -204 -378 -381 -386 -392 -13 -17 -15 -129 -16 -840 0 -625 -3 -824 -12 -833 -7 -7 -44 -12 -95 -12 l-83 0 -2 -447 c-2 -247 1 -454 6 -461 15 -22 26 -13 51 43 51 115 153 166 268 134 75 -20 156 -120 157 -191 0 -29 11 -41 32 -33 11 4 13 89 10 468 -3 528 6 487 -98 487 -34 0 -69 3 -78 6 -14 6 -16 86 -16 807 l0 801 389 391 c261 261 392 399 396 418 4 15 5 52 3 82 -4 52 -3 55 19 55 22 0 23 3 23 88 0 68 4 93 19 116 10 15 177 187 370 381 l351 352 0 187 c0 157 -2 186 -15 186 -8 0 -19 -8 -24 -19z"></path><path id="poRnUnDuP" d="M13325 5600 c-16 -26 24 -41 44 -16 9 11 8 15 -5 20 -22 8 -32 8 -39 -4z"></path><path id="p19mbkDwkH" d="M4691 5401 c-10 -6 -12 -23 -6 -68 9 -82 -18 -102 -104 -73 -39 13 -44 12 -53 -3 -5 -10 -21 -17 -38 -17 -23 0 -30 -5 -30 -19 0 -19 18 -31 47 -31 8 0 21 -7 30 -15 10 -11 22 -13 37 -8 11 4 93 8 181 8 l160 0 0 115 0 115 -105 3 c-58 1 -111 -2 -119 -7z"></path><path id="p1FZyTFLHY" d="M8337 5314 c-4 -4 -7 -125 -7 -269 l0 -262 53 -7 c74 -8 250 -7 265 2 9 7 12 68 10 273 l-3 264 -156 3 c-85 1 -158 -1 -162 -4z"></path><path id="pX0NwSwbE" d="M13327 5301 c-3 -11 1 -22 8 -25 17 -6 25 3 25 26 0 24 -26 23 -33 -1z"></path><path id="pji4dYeUj" d="M12773 5303 l-353 -3 0 -261 0 -260 468 3 c390 3 467 5 467 17 0 8 -21 19 -53 27 -57 15 -116 51 -146 91 -10 14 -23 52 -28 86 -22 131 34 217 177 270 6 2 4 10 -4 20 -11 14 -29 17 -95 15 -44 -2 -240 -4 -433 -5z"></path><path id="pnlVeZ7X7" d="M6698 5073 c-2 -16 -2 -67 0 -115 l4 -88 39 0 c44 0 44 0 27 -48 -11 -29 -10 -35 5 -43 10 -6 17 -22 17 -37 0 -16 5 -33 12 -40 17 -17 38 4 38 39 0 18 7 32 19 39 17 8 18 15 10 42 -13 47 -13 48 26 48 l35 0 0 115 0 115 -114 0 -114 0 -4 -27z"></path><path id="pr6U1EMba" d="M7365 5091 c-6 -11 -5 -188 1 -213 4 -14 13 -16 56 -11 l50 6 -6 -40 c-6 -30 -3 -43 8 -53 11 -8 16 -29 16 -60 0 -31 5 -50 14 -53 23 -9 36 15 36 65 0 35 4 48 14 48 23 0 31 22 12 32 -24 14 -20 46 7 50 21 3 22 7 25 121 l3 117 -115 0 c-63 0 -117 -4 -121 -9z"></path><path id="p18lZSvnzY" d="M7800 4985 l0 -115 41 0 40 0 -7 -45 c-5 -36 -3 -46 10 -51 12 -4 16 -19 16 -55 0 -41 3 -49 19 -49 15 0 20 10 26 48 4 26 11 52 16 59 6 6 9 29 7 50 -3 37 -2 38 30 35 l32 -2 0 120 0 120 -115 0 -115 0 0 -115z"></path><path id="p59YEp4Lk" d="M4685 4958 c-3 -7 -4 -26 -2 -43 l2 -30 -75 0 c-41 0 -82 -3 -90 -7 -8 -4 -24 -8 -35 -10 -32 -5 -25 -40 9 -49 16 -5 33 -14 37 -20 6 -10 18 -10 53 -2 65 15 94 7 98 -26 l3 -26 115 0 115 0 0 110 0 110 -113 3 c-84 2 -114 -1 -117 -10z"></path><path id="p1DMPHjTze" d="M4692 4522 c-7 -5 -11 -23 -10 -43 l3 -34 -45 1 c-25 1 -58 5 -74 9 -22 6 -31 4 -38 -9 -5 -9 -21 -16 -37 -16 -30 0 -45 -18 -31 -40 5 -8 19 -11 35 -8 21 4 29 1 32 -13 6 -23 19 -24 68 -3 53 22 83 12 87 -29 l3 -32 118 -3 118 -3 -3 113 -3 113 -105 3 c-58 1 -111 -2 -118 -6z"></path><path id="pAPWap6cW" d="M13330 4506 c0 -17 5 -26 16 -26 10 0 14 7 12 22 -5 32 -28 35 -28 4z"></path><path id="p92yKycOk" d="M882 4512 c-20 -13 3 -27 71 -41 102 -22 177 -113 177 -215 0 -67 -9 -93 -51 -140 -39 -45 -94 -74 -154 -83 -48 -6 -66 -20 -45 -33 17 -11 922 -12 938 -2 9 7 12 66 10 263 l-3 254 -465 2 c-256 2 -471 -1 -478 -5z"></path><path id="pJmbyMKk5" d="M5492 4237 c-19 -20 -22 -35 -22 -97 l0 -74 -235 -236 -235 -236 0 -201 c0 -131 4 -204 11 -208 5 -4 37 -4 70 0 l59 7 0 171 0 172 236 237 236 237 -4 104 c-2 86 -6 109 -22 126 -25 28 -67 27 -94 -2z"></path><path id="pqy3lTC9e" d="M884 3717 c-23 -13 -7 -25 44 -32 71 -10 98 -23 141 -70 81 -88 81 -212 1 -299 -38 -41 -110 -76 -157 -76 -16 0 -23 -6 -23 -20 0 -20 5 -20 468 -18 l467 3 3 258 c2 202 0 257 -10 257 -380 5 -923 3 -934 -3z"></path><path id="p14EFqkZEK" d="M5776 3619 l-26 -20 0 -205 0 -204 70 0 70 0 0 204 0 205 -26 20 c-15 12 -34 21 -44 21 -10 0 -29 -9 -44 -21z"></path><path id="pQT7CVg0S" d="M5328 3013 c-23 -6 -23 -46 -2 -154 16 -78 16 -84 -1 -116 -17 -31 -17 -34 -1 -46 11 -8 16 -23 14 -47 -3 -32 -1 -34 34 -40 20 -4 43 -12 51 -18 11 -9 23 -8 53 4 31 13 62 15 148 12 99 -4 111 -7 124 -26 12 -18 24 -22 67 -22 66 0 77 12 73 82 l-3 53 -58 3 c-44 2 -66 -2 -85 -15 -33 -21 -224 -31 -281 -14 -31 9 -38 17 -52 58 -8 26 -15 71 -14 98 1 47 2 50 28 53 28 3 28 4 25 70 l-3 67 -50 2 c-27 0 -58 -1 -67 -4z"></path><path id="pe59qXTLZ" d="M4896 1722 c-10 -16 -10 -902 1 -913 13 -13 26 5 42 59 16 57 82 129 130 142 88 24 191 1 240 -55 24 -28 43 -68 76 -163 5 -14 27 -13 26 1 -1 4 -1 216 -1 472 l0 465 -254 0 c-140 0 -257 -3 -260 -8z"></path><path id="putbMeFeZ" d="M5682 1258 c3 -515 7 -543 52 -387 22 76 83 134 150 144 144 22 238 -35 270 -162 8 -29 18 -48 27 -48 12 0 14 67 14 460 l0 460 -258 3 -257 2 2 -472z"></path><path id="pPlXHMqj5" d="M7260 1265 c0 -318 3 -465 10 -465 12 0 49 76 50 101 0 24 79 97 118 110 20 6 64 9 102 7 108 -8 169 -58 194 -156 8 -30 19 -48 29 -50 16 -3 17 31 17 457 l0 461 -260 0 -260 0 0 -465z"></path><path id="piB62ORC" d="M8863 1723 l-23 -4 0 -455 c0 -250 4 -454 8 -454 14 0 42 35 42 51 0 24 40 91 68 113 39 32 81 44 147 45 116 1 193 -63 216 -180 7 -38 17 -59 25 -59 12 0 14 79 14 475 l0 475 -237 -1 c-131 -1 -248 -4 -260 -6z"></path><path id="pMyHAcgZQ" d="M9647 1723 c-16 -4 -17 -33 -15 -470 2 -351 6 -467 15 -470 7 -3 16 13 23 39 41 164 150 229 307 183 63 -19 103 -65 128 -145 9 -30 19 -61 21 -69 3 -9 8 -11 14 -5 11 11 22 843 12 899 l-7 40 -240 1 c-132 1 -248 0 -258 -3z"></path><path id="pl0Dpg9T1" d="M10453 1723 l-33 -4 -2 -465 -3 -464 21 0 c17 0 23 8 28 41 14 85 69 156 140 179 58 18 158 8 201 -21 46 -31 82 -84 93 -134 5 -25 14 -40 22 -40 13 0 16 65 20 448 3 266 1 451 -4 455 -11 6 -438 11 -483 5z"></path></g></g><g id="l2TnNEZAa9tEbCRm2Y3SsE6" fill="rgb(0,2,221)" style="transform: none;"><g style="transform: none;"><path id="p19pXKr5dt" d="M18031 13180 c-11 -6 -14 -25 -11 -72 2 -35 4 -243 5 -463 l0 -400 258 -3 c201 -2 259 0 262 10 3 7 6 215 7 461 3 438 3 448 -16 445 -13 -2 -23 -15 -28 -37 -10 -38 -46 -98 -75 -123 -41 -37 -114 -61 -166 -55 -99 12 -173 80 -198 182 -15 60 -20 67 -38 55z"></path><path id="po1PPXBWj" d="M21686 13178 c-3 -7 -12 -38 -22 -68 -21 -68 -80 -130 -148 -155 -41 -16 -56 -17 -101 -8 -96 21 -152 73 -180 167 -12 40 -39 60 -46 34 -2 -7 -2 -213 1 -458 l5 -445 258 -3 257 -2 2 27 c1 16 2 217 2 448 1 231 5 428 9 437 6 12 3 20 -12 28 -16 8 -22 8 -25 -2z"></path><path id="pOtqCtj39" d="M18815 13174 c-7 -3 -8 -163 -5 -466 l5 -463 260 0 260 0 3 458 c2 427 1 458 -15 455 -9 -2 -21 -18 -25 -37 -10 -38 -46 -98 -75 -123 -10 -10 -41 -27 -68 -39 -123 -54 -265 27 -295 169 -11 48 -19 57 -45 46z"></path><path id="polaAkEFh" d="M20884 13153 c-14 -66 -28 -97 -57 -130 -36 -41 -118 -83 -161 -83 -92 0 -186 69 -216 160 -13 39 -24 56 -38 58 -19 3 -20 -7 -21 -440 -1 -244 1 -452 5 -461 6 -15 30 -17 259 -17 140 0 256 4 259 9 3 5 6 215 6 467 1 401 -1 459 -14 462 -10 2 -18 -7 -22 -25z"></path><path id="p8mtgYh6r" d="M21972 13173 c-6 -2 -9 -10 -5 -16 5 -7 10 -214 13 -462 l5 -450 249 -3 c193 -2 251 1 258 10 4 7 8 215 8 461 0 411 -1 448 -16 445 -10 -2 -22 -21 -30 -48 -26 -88 -124 -170 -203 -170 -54 0 -108 21 -151 57 -48 41 -60 62 -75 128 -11 48 -24 60 -53 48z"></path><path id="pQFtSDh1b" d="M22778 13167 c-11 -11 -12 -98 -8 -468 l5 -454 256 -3 256 -2 7 31 c3 17 6 224 6 460 0 421 0 429 -20 429 -13 0 -22 -9 -26 -27 -28 -119 -141 -206 -246 -189 -108 17 -198 111 -198 208 0 23 -16 31 -32 15z"></path><path id="pR1rk5ibz" d="M24831 13126 c-25 -111 -111 -182 -221 -180 -99 1 -177 61 -211 161 -9 27 -22 48 -30 48 -12 0 -14 -70 -14 -455 l0 -455 258 -3 c141 -1 258 -1 259 0 1 2 5 211 8 465 5 473 5 473 -29 473 -4 0 -13 -24 -20 -54z"></path><path id="p138cekK6" d="M25621 13119 c-28 -83 -60 -122 -126 -155 -47 -22 -64 -26 -106 -21 -100 12 -179 80 -201 175 -9 36 -17 51 -26 47 -8 -3 -17 -5 -20 -5 -4 0 -5 -206 -2 -457 l5 -458 251 -3 c201 -2 254 0 262 11 8 10 12 149 12 468 1 387 -1 454 -13 457 -10 2 -22 -17 -36 -59z"></path><path id="p5dvSPRX5" d="M20113 13162 c-6 -4 -21 -33 -33 -64 -78 -208 -353 -205 -425 5 -13 40 -24 57 -34 55 -13 -3 -15 -62 -16 -458 l0 -455 258 -3 c208 -2 258 0 263 11 6 17 11 917 4 917 -3 0 -10 -4 -17 -8z"></path><path id="p6OdMsLz7" d="M23559 13148 c-2 -7 -2 -213 1 -458 l5 -445 250 -3 c226 -2 251 -1 263 15 16 23 18 888 1 899 -16 9 -34 -15 -47 -62 -15 -51 -72 -110 -130 -137 -114 -50 -261 28 -293 155 -9 34 -18 48 -30 48 -9 0 -18 -6 -20 -12z"></path><path id="p16Hom8KNW" d="M19005 10974 c-33 -13 -106 -15 -440 -13 -409 2 -455 -1 -455 -36 0 -9 11 -20 24 -24 13 -5 210 -10 437 -10 228 0 432 -3 455 -7 22 -3 59 -1 82 6 55 14 57 45 7 78 -40 25 -55 26 -110 6z"></path><path id="p18GsKhJ2k" d="M28036 10772 c-4 -4 -206 -9 -449 -12 l-442 -5 -3 -257 -2 -258 422 -1 c233 0 431 -2 440 -4 10 -2 20 0 23 5 2 4 15 5 28 3 14 -3 29 2 36 11 12 14 9 16 -26 16 -51 0 -138 52 -176 106 -59 84 -44 219 32 287 21 19 63 42 92 52 66 22 64 19 47 44 -8 12 -18 18 -22 13z"></path><path id="p10J862o2f" d="M15615 10753 c-19 -19 -6 -33 33 -33 34 0 93 -28 126 -58 87 -81 88 -241 3 -323 -34 -33 -97 -59 -144 -59 -43 0 -55 -14 -33 -36 7 -7 125 -10 348 -7 185 1 397 3 470 3 l132 0 0 260 0 260 -427 1 c-236 0 -442 2 -460 5 -21 2 -38 -2 -48 -13z"></path><path id="p14PK821Fy" d="M19770 10363 c-295 -295 -389 -395 -393 -418 -3 -16 -6 -338 -7 -715 l0 -684 195 -193 195 -193 2 -1459 3 -1460 213 -214 212 -215 0 -368 0 -369 137 -137 137 -137 4 -186 c4 -183 5 -187 28 -197 28 -13 68 -4 94 22 19 19 20 34 20 218 l0 197 -140 140 -140 140 0 369 0 370 -210 211 -210 210 -2 1457 -3 1457 -192 194 -193 194 0 659 0 659 348 347 347 348 835 0 c834 0 1054 -7 1095 -35 11 -7 236 -229 500 -492 264 -263 493 -485 509 -493 24 -12 31 -12 54 1 32 18 56 63 45 83 -4 8 -243 246 -530 530 -493 489 -524 517 -570 528 -34 8 -332 12 -1022 15 l-975 4 -386 -388z"></path><path id="pflCCoEpB" d="M21089 10513 l-856 -3 -46 -49 c-26 -27 -49 -61 -53 -75 -9 -36 29 -110 74 -144 l35 -27 842 4 842 3 94 -85 c52 -47 394 -387 762 -755 l667 -669 0 -1008 c0 -1127 -6 -1041 72 -1085 57 -32 139 -21 184 24 l31 31 7 345 c4 190 4 410 1 490 -3 80 -5 413 -5 740 l0 594 -822 824 c-480 481 -836 830 -855 838 -18 8 -52 13 -75 12 -24 -2 -428 -4 -899 -5z"></path><path id="p11dIHe3ap" d="M19811 9976 l-196 -195 -3 -493 c-2 -271 0 -513 3 -538 7 -42 19 -57 203 -243 l197 -198 2 -1397 c0 -768 2 -1448 2 -1511 l1 -114 713 -709 c391 -390 726 -718 742 -729 29 -18 57 -19 805 -19 740 0 777 1 817 19 53 25 73 62 73 141 0 55 -3 64 -34 97 -31 34 -40 38 -102 44 -38 4 -352 5 -699 3 -346 -2 -658 0 -693 5 l-63 7 -620 620 c-340 340 -626 633 -634 651 -13 27 -15 220 -15 1525 0 821 -3 1503 -6 1515 -3 12 -16 24 -27 27 -12 3 -100 83 -194 179 l-173 173 0 411 0 410 104 101 c58 56 116 106 129 111 13 5 93 8 178 6 252 -5 292 7 324 104 20 62 11 104 -35 152 l-37 39 -283 0 -282 0 -197 -194z"></path><path id="pWrozblbs" d="M28034 9980 c-6 -6 -181 -11 -449 -12 l-440 -3 -3 -262 -2 -263 440 0 440 0 0 23 c0 18 -10 28 -39 42 -176 79 -174 325 2 411 28 13 59 24 68 24 26 0 31 15 11 34 -12 10 -22 12 -28 6z"></path><path id="plhRGL1cj" d="M15610 9972 c-21 -7 -9 -32 18 -37 71 -15 100 -27 134 -55 49 -40 78 -103 78 -168 0 -121 -78 -208 -202 -226 -48 -7 -64 -28 -32 -40 20 -8 908 -8 928 0 14 5 16 38 16 260 0 195 -3 256 -12 259 -15 5 -913 12 -928 7z"></path><path id="p4YT2eiio" d="M28040 9460 c0 -21 8 -24 34 -14 25 10 19 34 -9 34 -18 0 -25 -5 -25 -20z"></path><path id="p10eT3Gn6O" d="M6340 9350 c0 -5 7 -10 15 -10 8 0 15 5 15 10 0 6 -7 10 -15 10 -8 0 -15 -4 -15 -10z"></path><path id="pACjD5r8S" d="M15602 9168 c-21 -21 -14 -25 42 -30 67 -6 124 -41 163 -99 21 -33 28 -57 31 -108 3 -57 0 -73 -25 -120 -23 -45 -38 -59 -83 -83 -30 -15 -72 -30 -93 -33 -29 -5 -37 -10 -35 -23 3 -16 37 -17 403 -20 220 -2 433 0 473 3 l72 7 -2 256 -3 257 -465 3 c-354 2 -469 -1 -478 -10z"></path><path id="pbGtYswGr" d="M27147 9174 c-4 -4 -7 -121 -7 -260 0 -251 0 -252 22 -257 12 -4 218 -6 458 -6 338 0 440 3 459 13 23 13 21 14 -48 35 -83 25 -130 62 -160 126 -37 78 -21 187 37 249 32 34 116 76 155 76 17 0 27 5 27 14 0 13 -67 15 -468 16 -258 0 -471 -3 -475 -6z"></path><path id="pDPhuhBhr" d="M28046 8384 c-9 -9 -17 -10 -21 -4 -4 6 -161 10 -446 10 l-439 0 0 -265 0 -265 458 -2 c410 -3 459 -1 479 13 23 17 22 17 -23 28 -62 16 -113 43 -146 78 -74 78 -78 210 -8 295 33 40 123 88 164 88 16 0 26 6 26 14 0 21 -27 27 -44 10z"></path><path id="p8E1hz8BT" d="M15607 8379 c-25 -15 -12 -29 27 -29 51 0 137 -49 170 -97 35 -50 46 -137 26 -198 -25 -75 -103 -137 -190 -151 -30 -5 -40 -11 -38 -23 3 -14 49 -16 473 -16 l470 0 0 260 0 260 -460 2 c-303 2 -466 -1 -478 -8z"></path><path id="p1CVvoc0i4" d="M27580 7600 l-435 -5 -3 -263 -2 -263 452 1 c249 0 462 -1 473 -2 11 -2 21 4 23 14 2 13 -8 20 -40 28 -59 17 -108 43 -140 77 -94 99 -70 268 49 339 29 17 71 34 94 37 49 6 56 12 39 32 -7 9 -25 14 -44 13 -17 -2 -227 -5 -466 -8z"></path><path id="pSTTIB3FZ" d="M15600 7581 c0 -15 9 -19 48 -23 149 -14 235 -177 169 -322 -29 -64 -74 -97 -162 -120 -70 -18 -75 -23 -41 -36 29 -11 892 -15 920 -4 14 5 16 38 16 265 l0 259 -475 0 c-458 0 -475 -1 -475 -19z"></path><path id="p1AAwAc1wT" d="M27500 6833 c-21 -15 -54 -19 -190 -23 l-165 -5 -3 -262 -2 -263 440 0 c432 0 440 0 440 20 0 11 -12 27 -27 36 -81 50 -95 63 -118 108 -70 140 5 286 168 327 46 11 66 38 30 40 -10 0 -91 1 -179 2 -139 2 -165 5 -181 20 -24 21 -56 22 -73 2 -7 -8 -20 -15 -30 -15 -10 0 -23 7 -30 15 -17 20 -50 19 -80 -2z"></path><path id="p178bzncCg" d="M15606 6795 c-4 -10 3 -17 22 -21 136 -29 212 -110 212 -226 0 -30 -8 -71 -19 -94 -33 -72 -124 -134 -199 -134 -17 0 -23 -5 -20 -17 3 -17 34 -18 473 -18 l470 0 0 260 0 260 -466 3 c-407 2 -468 0 -473 -13z"></path><path id="p182FRLcaO" d="M28044 6305 c-7 -18 3 -35 21 -35 16 0 38 34 28 44 -12 11 -44 6 -49 -9z"></path><path id="pmdYeq3tV" d="M5550 6250 c0 -5 7 -10 15 -10 8 0 15 5 15 10 0 6 -7 10 -15 10 -8 0 -15 -4 -15 -10z"></path><path id="pBjArrVyJ" d="M8681 6251 c-10 -6 -9 -10 3 -14 8 -3 18 -2 21 3 8 13 -9 20 -24 11z"></path><path id="pLEENrf2A" d="M15584 6018 c-12 -19 11 -38 47 -38 75 0 176 -74 200 -147 6 -19 9 -64 7 -99 -3 -50 -10 -73 -34 -106 -32 -48 -99 -87 -163 -95 -29 -4 -38 -10 -36 -22 2 -15 45 -16 471 -16 l469 0 3 262 2 263 -481 2 c-264 2 -483 0 -485 -4z"></path><path id="pKThHWaJo" d="M27590 6020 l-445 -5 -3 -262 -2 -263 441 0 440 0 -3 22 c-2 12 -18 29 -38 40 -117 63 -161 191 -105 305 34 66 128 133 190 133 19 0 35 4 35 8 0 16 -24 32 -44 30 -12 -2 -221 -5 -466 -8z"></path><path id="plB7pHN1J" d="M28040 5500 c6 -11 17 -20 25 -20 8 0 19 9 25 20 10 18 8 20 -25 20 -33 0 -35 -2 -25 -20z"></path><path id="pGIUtyGAL" d="M28047 5234 c-16 -16 -6 -34 19 -34 19 0 25 5 22 17 -3 19 -29 29 -41 17z"></path><path id="p1EY2ixhkb" d="M15607 5224 c-15 -15 -6 -34 17 -34 34 0 100 -25 136 -52 17 -12 42 -46 56 -75 36 -74 32 -163 -12 -225 -34 -50 -119 -98 -171 -98 -29 0 -34 -3 -31 -21 3 -21 4 -21 468 -19 256 0 468 4 473 9 4 4 6 122 5 262 l-3 254 -466 3 c-256 1 -468 -1 -472 -4z"></path><path id="p7S9XsPfG" d="M27163 5222 l-23 -3 0 -260 0 -259 428 0 c235 0 443 -3 462 -6 23 -4 42 0 55 9 26 20 17 27 -42 38 -112 21 -193 113 -193 219 0 93 32 145 127 206 37 24 51 39 46 50 -5 13 -54 15 -422 12 -229 -1 -426 -4 -438 -6z"></path><path id="pJUDmEJ7V" d="M28043 4434 c-3 -8 -1 -20 4 -25 14 -14 43 0 43 22 0 24 -38 26 -47 3z"></path><path id="pCob4rABQ" d="M15606 4424 c-9 -23 -8 -24 17 -24 74 0 167 -63 202 -137 27 -57 17 -161 -20 -215 -34 -49 -120 -98 -171 -98 -38 0 -49 -11 -31 -31 10 -12 87 -13 477 -9 l465 5 0 259 0 259 -467 3 c-409 2 -467 1 -472 -12z"></path><path id="pGqCdCJdd" d="M27353 4432 l-213 -2 0 -260 0 -259 463 -3 c254 -2 470 1 480 5 29 13 19 23 -37 36 -83 18 -142 61 -171 124 -56 119 -15 238 105 304 21 12 35 27 35 38 0 18 -13 19 -225 19 -124 1 -321 0 -437 -2z"></path><path id="p9v0Lyu6g" d="M28016 3653 c-4 -5 -202 -10 -439 -13 l-432 -5 -3 -257 -2 -258 397 0 c219 0 427 -3 463 -6 51 -5 69 -2 85 10 17 13 18 17 5 26 -8 5 -26 10 -40 10 -41 0 -126 46 -152 81 -70 95 -62 226 19 302 17 15 57 39 89 52 32 13 60 29 63 36 6 20 -37 38 -53 22z"></path><path id="pswZoSEAm" d="M15608 3645 c-16 -17 -7 -34 22 -39 17 -3 43 -9 59 -12 44 -8 117 -77 136 -129 26 -66 17 -153 -21 -208 -33 -48 -119 -97 -170 -97 -18 0 -36 -5 -40 -11 -19 -32 19 -34 486 -29 l465 5 3 258 2 257 -327 0 c-181 0 -391 3 -468 6 -77 4 -143 3 -147 -1z"></path><path id="p1G0yB1vig" d="M18033 1637 c-8 -12 -22 -880 -14 -905 8 -28 33 -4 56 52 28 70 62 108 121 136 61 28 117 26 190 -9 48 -22 66 -38 86 -72 14 -24 28 -56 32 -71 8 -34 46 -59 46 -31 2 84 -1 897 -3 899 -1 0 -115 4 -254 7 -194 5 -254 4 -260 -6z"></path><path id="pxFtAtw5m" d="M18858 1642 c-35 -3 -37 -5 -43 -45 -3 -23 -5 -226 -3 -452 3 -395 4 -410 22 -410 14 0 22 12 32 45 38 129 180 195 300 139 78 -37 117 -90 139 -192 4 -18 11 -27 21 -25 13 3 15 59 14 467 0 256 -3 467 -6 470 -6 6 -411 8 -476 3z"></path><path id="pKHtpwYy9" d="M19628 1644 c-22 -7 -20 29 -22 -486 -1 -394 0 -428 16 -428 11 0 22 17 33 50 22 65 56 105 116 135 64 33 124 33 195 -1 61 -29 95 -71 120 -149 8 -27 17 -56 20 -63 3 -10 9 -10 23 -2 17 8 18 15 10 42 -5 18 -9 228 -9 465 l0 433 -87 0 c-49 0 -158 2 -243 5 -85 2 -163 2 -172 -1z"></path><path id="pyrMosK9X" d="M20418 1642 c-27 -5 -29 -56 -25 -511 2 -314 6 -426 15 -429 12 -4 23 18 41 83 32 121 180 189 297 136 56 -26 112 -86 125 -135 15 -63 17 -66 33 -66 14 0 15 57 13 463 l-2 462 -240 0 c-133 0 -248 -1 -257 -3z"></path><path id="pyhbAYRmV" d="M21207 1637 c-14 -11 -16 -60 -18 -472 -2 -379 0 -460 11 -460 8 0 21 24 31 56 44 151 185 219 316 154 61 -31 93 -71 117 -142 10 -31 24 -53 32 -53 8 0 14 6 14 13 2 48 -1 901 -3 903 -1 1 -110 4 -243 8 -184 4 -244 3 -257 -7z"></path><path id="prW0OXTJi" d="M22140 1640 l-155 -5 -5 -165 c-4 -134 -9 -171 -24 -198 -18 -33 -17 -42 6 -74 10 -14 9 -23 -6 -48 -17 -30 -17 -32 4 -78 21 -44 22 -57 17 -194 -4 -115 -2 -148 8 -152 17 -6 29 9 44 54 32 96 119 160 215 160 94 0 195 -82 212 -170 8 -39 24 -56 36 -37 4 7 8 216 8 465 l0 452 -102 -2 c-57 -1 -173 -5 -258 -8z"></path><path id="pDaBf3ulH" d="M22810 1642 c-14 -2 -28 -7 -32 -10 -4 -4 -8 -207 -9 -452 -2 -427 -1 -445 17 -445 13 0 22 11 29 36 18 63 60 115 116 143 68 34 124 34 195 0 68 -32 109 -85 124 -160 6 -30 15 -54 20 -54 35 0 35 -1 30 469 -3 253 -7 461 -10 464 -6 6 -446 14 -480 9z"></path><path id="pC0KeYL41" d="M23712 1643 c-101 -3 -144 -7 -147 -16 -2 -6 -6 -211 -7 -455 -3 -439 -3 -442 17 -442 16 0 24 10 33 45 7 25 28 63 49 86 76 84 177 102 271 48 58 -33 112 -105 112 -149 0 -33 21 -63 40 -55 13 4 14 67 9 473 -3 257 -6 468 -7 470 -2 2 -67 1 -370 -5z"></path><path id="p183K4i2GS" d="M24383 1644 c-12 -3 -24 -11 -27 -19 -3 -8 -6 -218 -7 -467 -1 -434 -1 -453 17 -453 14 0 20 10 26 42 18 110 114 193 221 193 99 0 205 -91 222 -190 5 -31 11 -40 22 -36 8 3 17 6 19 6 2 0 4 207 4 460 l0 460 -172 0 c-95 0 -202 2 -238 4 -36 3 -75 2 -87 0z"></path><path id="pZQeeMn88" d="M25185 1642 c-16 -2 -33 -7 -37 -10 -4 -4 -8 -214 -8 -467 -2 -459 -2 -460 19 -463 16 -3 21 2 21 20 0 77 60 165 135 199 118 54 272 -21 304 -148 9 -33 16 -44 29 -41 16 3 17 36 20 438 1 239 0 445 -3 458 l-5 22 -223 -2 c-122 -2 -235 -4 -252 -6z"></path></g></g></svg>